<?xml version="1.0" encoding="UTF-8" standalone="no"?>
<!-- Generator: Adobe Illustrator 23.0.2, SVG Export Plug-In . SVG Version: 6.00 Build 0)  -->

<svg
   version="1.1"
   x="0px"
   y="0px"
   viewBox="0 0 1080 1080"
   style="enable-background:new 0 0 1080 1080;"
   xml:space="preserve"
   id="svg76"
   sodipodi:docname="back.svg"
   inkscape:version="1.3 (0e150ed6c4, 2023-07-21)"
   xmlns:inkscape="http://www.inkscape.org/namespaces/inkscape"
   xmlns:sodipodi="http://sodipodi.sourceforge.net/DTD/sodipodi-0.dtd"
   xmlns="http://www.w3.org/2000/svg"
   xmlns:svg="http://www.w3.org/2000/svg"><defs
   id="defs76" /><sodipodi:namedview
   id="namedview76"
   pagecolor="#ffffff"
   bordercolor="#000000"
   borderopacity="0.25"
   inkscape:showpageshadow="2"
   inkscape:pageopacity="0.0"
   inkscape:pagecheckerboard="0"
   inkscape:deskcolor="#d1d1d1"
   inkscape:zoom="0.50021257"
   inkscape:cx="372.84149"
   inkscape:cy="415.82321"
   inkscape:window-width="1920"
   inkscape:window-height="1012"
   inkscape:window-x="0"
   inkscape:window-y="0"
   inkscape:window-maximized="1"
   inkscape:current-layer="svg76" />&#10;<style
   type="text/css"
   id="style1">&#10;	.st0{display:none;}&#10;	.st1{display:inline;fill:#FFFFCC;}&#10;	.st2{fill:#330000;}&#10;	.st3{display:inline;}&#10;	.st4{fill:#FFFFCC;}&#10;</style>&#10;<g
   id="Capa_10"
   class="st0">&#10;	<circle
   class="st1"
   cx="540"
   cy="540"
   r="790"
   id="circle1" />&#10;</g>&#10;&#10;<g
   id="coldbrews"
   class="st0">&#10;	<g
   class="st3"
   id="g5">&#10;		<path
   class="st4"
   d="M409.33,483.41v31.29c-7.94,3.89-16.58,5.84-25.92,5.84c-16.5,0-30.21-5.29-41.1-15.88    c-10.74-10.43-16.11-23.43-16.11-39c0-16.03,5.6-29.5,16.81-40.4c11.05-10.59,25.06-15.88,42.03-15.88    c8.41,0,16.5,1.95,24.29,5.84v31.29c-6.39-4.51-12.84-6.77-19.38-6.77c-7.32,0-13.39,2.42-18.21,7.24    c-4.83,4.83-7.24,10.82-7.24,17.98c0,6.85,2.18,12.69,6.54,17.51c4.98,5.29,11.36,7.94,19.15,7.94    C397.49,490.41,403.88,488.08,409.33,483.41z"
   id="path2" />&#10;		<path
   class="st4"
   d="M551.77,464.73c0,15.1-5.37,27.95-16.11,38.53c-11.68,11.52-27.25,17.28-46.7,17.28    c-19.31,0-34.79-5.76-46.47-17.28c-10.74-10.58-16.11-23.43-16.11-38.53c0-15.1,5.37-27.87,16.11-38.3    c11.83-11.52,27.32-17.28,46.47-17.28c18.99,0,34.56,5.76,46.7,17.28C546.4,436.86,551.77,449.63,551.77,464.73z M489.19,440.91    c-6.39,0-11.99,2.26-16.81,6.77c-4.83,4.52-7.24,10.2-7.24,17.05c0,6.23,2.41,11.76,7.24,16.58c4.67,4.67,10.27,7.01,16.81,7.01    c6.38,0,11.91-2.34,16.58-7.01c4.82-4.52,7.24-10.04,7.24-16.58c0-6.54-2.42-12.22-7.24-17.05    C500.94,443.17,495.41,440.91,489.19,440.91z"
   id="path3" />&#10;		<path
   class="st4"
   d="M573.25,346.8h37.36v170.24h-37.36V346.8z"
   id="path4" />&#10;		<path
   class="st4"
   d="M754.23,346.8v170.24h-37.36v-11.44c-7.79,9.97-18.3,14.95-31.53,14.95c-14.48,0-26.7-4.82-36.66-14.48    c-11.21-10.9-16.81-24.75-16.81-41.57s5.68-30.59,17.05-41.33c9.81-9.34,22.1-14.01,36.9-14.01c12.3,0,22.65,4.52,31.06,13.54    V346.8H754.23z M693.98,488.78c5.92,0,11.29-2.1,16.11-6.3c5.29-4.83,7.94-10.74,7.94-17.75c0-6.22-2.34-11.83-7.01-16.81    c-4.36-4.67-10.04-7.01-17.05-7.01c-6.54,0-12.07,2.26-16.58,6.77c-4.83,4.83-7.24,10.74-7.24,17.75c0,6.07,2.41,11.52,7.24,16.35    C682.08,486.44,687.6,488.78,693.98,488.78z"
   id="path5" />&#10;	</g>&#10;	<g
   class="st3"
   id="g10">&#10;		<path
   class="st4"
   d="M207.21,559.91h37.36v75.89c8.41-9.03,18.76-13.54,31.06-13.54c14.79,0,27.09,4.67,36.9,14.01    c11.36,10.74,17.05,24.52,17.05,41.33c0,16.81-5.6,30.67-16.81,41.57c-9.97,9.66-22.18,14.48-36.66,14.48    c-13.23,0-23.74-4.98-31.53-14.95v11.44h-37.36V559.91z M267.46,701.89c6.38,0,11.91-2.34,16.58-7.01    c4.82-4.82,7.24-10.27,7.24-16.35c0-7.01-2.42-12.92-7.24-17.75c-4.52-4.51-10.04-6.77-16.58-6.77c-7.01,0-12.69,2.34-17.05,7.01    c-4.67,4.99-7.01,10.59-7.01,16.81c0,7.01,2.65,12.92,7.94,17.75C256.17,699.79,261.54,701.89,267.46,701.89z"
   id="path6" />&#10;		<path
   class="st4"
   d="M351.06,730.15V625.76h37.36v17.05c3.42-6.54,8.33-11.36,14.71-14.48c5.14-2.8,11.6-4.2,19.38-4.2    c0.31,0,0.7,0.04,1.17,0.12c0.47,0.08,1.28,0.16,2.45,0.23c1.17,0.08,2.45,0.12,3.85,0.12v35.26c-4.98-2.49-10.35-3.74-16.11-3.74    c-7.32,0-13,1.87-17.05,5.61c-5.6,5.14-8.41,13.08-8.41,23.82v44.6H351.06z"
   id="path7" />&#10;		<path
   class="st4"
   d="M557.26,680.87v3.97H479.5c0,7.32,2.18,13.16,6.54,17.51c3.42,3.43,8.56,5.14,15.41,5.14    c4.67,0,8.72-0.94,12.14-2.8c2.96-1.71,5.14-4.05,6.54-7.01h35.73c-2.34,8.41-6.54,15.57-12.61,21.48    c-9.96,9.66-24.13,14.48-42.5,14.48c-18.22,0-32.62-5.29-43.2-15.88c-10.28-10.28-15.41-23.43-15.41-39.47    c0-16.81,5.21-30.28,15.65-40.4c10.43-10.12,24.67-15.18,42.74-15.18c16.66,0,30.04,4.75,40.17,14.24    C551.73,647.56,557.26,662.19,557.26,680.87z M480.67,663.36h42.27c-1.09-4.51-3.12-8.25-6.07-11.21    c-3.74-3.74-8.87-5.6-15.41-5.6c-6.39,0-11.44,1.87-15.18,5.6C483.16,655.58,481.29,659.31,480.67,663.36z"
   id="path8" />&#10;		<path
   class="st4"
   d="M565.9,625.76h41.8l24.75,55.11l26.39-55.11h22.89l26.39,56.75l26.15-56.75h41.57l-54.64,104.38h-25.22    l-26.15-57.45l-24.99,57.45h-25.22L565.9,625.76z"
   id="path9" />&#10;		<path
   class="st4"
   d="M782.14,721.51l13.31-25.92c4.67,3.43,9.65,5.99,14.95,7.71c4.82,1.71,9.65,2.57,14.48,2.57    c4.36,0,7.55-0.93,9.57-2.8c1.24-1.24,1.87-2.88,1.87-4.9c0-2.02-0.62-3.58-1.87-4.67c-1.25-1.25-4.52-2.49-9.81-3.74l-9.81-2.34    c-8.25-1.87-14.33-4.91-18.22-9.11c-4.52-4.82-6.77-10.82-6.77-17.98c0-10.12,3.27-18.6,9.81-25.45    c8.09-8.41,20.55-12.61,37.36-12.61c11.52,0,22.65,2.26,33.39,6.77l-12.61,23.82c-7.47-3.42-14.01-5.14-19.62-5.14    c-3.43,0-6.31,0.7-8.64,2.1c-2.18,1.25-3.27,2.96-3.27,5.14c0,2.65,1.48,4.59,4.44,5.84c1.24,0.47,3.19,0.97,5.84,1.52    c2.65,0.55,4.82,1.05,6.54,1.52l6.77,1.87c6.69,1.87,11.83,4.6,15.41,8.17c5.29,4.99,7.94,11.91,7.94,20.78    c0,10.59-3.5,19.23-10.51,25.92c-8.72,8.72-21.56,13.08-38.53,13.08C809.38,733.65,795.37,729.6,782.14,721.51z"
   id="path10" />&#10;	</g>&#10;</g>&#10;<g
   id="smoothies"
   class="st0">&#10;	<g
   class="st3"
   id="g19">&#10;		<path
   class="st4"
   d="M124.3,601.09l10.42-20.28c3.65,2.68,7.55,4.69,11.69,6.03c3.78,1.34,7.55,2.01,11.33,2.01    c3.41,0,5.91-0.73,7.49-2.19c0.97-0.97,1.46-2.25,1.46-3.84c0-1.58-0.49-2.8-1.46-3.65c-0.98-0.97-3.53-1.95-7.67-2.92l-7.67-1.83    c-6.46-1.46-11.21-3.84-14.25-7.13c-3.53-3.77-5.3-8.47-5.3-14.07c0-7.92,2.56-14.55,7.67-19.92c6.33-6.58,16.08-9.87,29.24-9.87    c9.01,0,17.72,1.77,26.13,5.3l-9.87,18.64c-5.85-2.68-10.96-4.02-15.35-4.02c-2.68,0-4.93,0.55-6.76,1.64    c-1.71,0.98-2.56,2.32-2.56,4.02c0,2.07,1.16,3.6,3.47,4.57c0.97,0.37,2.5,0.76,4.57,1.19c2.07,0.43,3.77,0.82,5.12,1.19l5.3,1.46    c5.24,1.46,9.26,3.59,12.06,6.4c4.14,3.9,6.21,9.32,6.21,16.26c0,8.28-2.74,15.05-8.22,20.28c-6.82,6.82-16.87,10.23-30.15,10.23    C145.62,610.6,134.65,607.43,124.3,601.09z"
   id="path11" />&#10;		<path
   class="st4"
   d="M210.54,607.86v-81.68h29.24v9.87c6.21-7.55,14.37-11.33,24.49-11.33c5.97,0,11.21,1.22,15.71,3.65    c4.87,2.56,8.65,6.46,11.33,11.69c2.8-4.99,6.51-8.77,11.15-11.33c4.75-2.68,10.42-4.02,16.99-4.02c9.99,0,17.54,2.5,22.66,7.49    c5.12,5,7.67,12.49,7.67,22.48v53.17h-29.24v-40.38c0-9.01-1.4-14.86-4.2-17.54c-2.07-1.83-4.63-2.74-7.67-2.74    c-3.41,0-6.28,1.1-8.59,3.29c-3.53,3.41-5.3,8.59-5.3,15.53v41.84h-29.24v-40.38c0-9.01-1.28-14.86-3.84-17.54    c-2.07-2.19-5-3.29-8.77-3.29c-3.41,0-6.09,0.98-8.04,2.92c-3.41,3.29-5.12,9.26-5.12,17.91v40.38H210.54z"
   id="path12" />&#10;		<path
   class="st4"
   d="M464.89,566.93c0,11.82-4.2,21.87-12.61,30.15c-9.14,9.02-21.32,13.52-36.54,13.52    c-15.1,0-27.22-4.51-36.36-13.52c-8.41-8.28-12.61-18.33-12.61-30.15c0-11.81,4.2-21.8,12.61-29.96    c9.26-9.01,21.38-13.52,36.36-13.52c14.86,0,27.04,4.51,36.54,13.52C460.68,545.12,464.89,555.11,464.89,566.93z M415.92,548.29    c-5,0-9.38,1.77-13.16,5.3c-3.78,3.53-5.67,7.98-5.67,13.34c0,4.87,1.89,9.2,5.67,12.97c3.65,3.65,8.04,5.48,13.16,5.48    c4.99,0,9.32-1.83,12.97-5.48c3.77-3.53,5.66-7.86,5.66-12.97c0-5.12-1.89-9.56-5.66-13.34    C425.11,550.06,420.79,548.29,415.92,548.29z"
   id="path13" />&#10;		<path
   class="st4"
   d="M576.53,566.93c0,11.82-4.2,21.87-12.61,30.15c-9.14,9.02-21.32,13.52-36.54,13.52    c-15.11,0-27.23-4.51-36.36-13.52c-8.4-8.28-12.61-18.33-12.61-30.15c0-11.81,4.2-21.8,12.61-29.96    c9.26-9.01,21.38-13.52,36.36-13.52c14.86,0,27.04,4.51,36.54,13.52C572.32,545.12,576.53,555.11,576.53,566.93z M527.56,548.29    c-5,0-9.38,1.77-13.16,5.3c-3.78,3.53-5.66,7.98-5.66,13.34c0,4.87,1.89,9.2,5.66,12.97c3.65,3.65,8.04,5.48,13.16,5.48    c4.99,0,9.32-1.83,12.97-5.48c3.77-3.53,5.66-7.86,5.66-12.97c0-5.12-1.89-9.56-5.66-13.34    C536.75,550.06,532.43,548.29,527.56,548.29z"
   id="path14" />&#10;		<path
   class="st4"
   d="M642.3,550.12h-16.63v57.74h-29.24v-57.74h-9.32v-23.94h9.32v-26.86h29.24v26.86h16.63V550.12z"
   id="path15" />&#10;		<path
   class="st4"
   d="M653.26,607.86v-133.2h29.24v61.76c2.68-3.41,5.72-6.09,9.14-8.04c4.63-2.68,10.23-4.02,16.81-4.02    c10.23,0,18.27,2.92,24.12,8.77c3.29,3.29,5.39,6.67,6.3,10.14c0.91,3.47,1.37,7.7,1.37,12.7v51.89h-29.24v-41.29    c0-7.92-1.22-13.22-3.65-15.9c-2.07-2.31-5.18-3.47-9.32-3.47c-4.51,0-8.04,1.16-10.6,3.47c-3.29,3.05-4.93,7.49-4.93,13.34v43.85    H653.26z"
   id="path16" />&#10;		<path
   class="st4"
   d="M758.6,503.8c-3.23-3.23-4.84-7.09-4.84-11.6c0-4.51,1.61-8.37,4.84-11.6c3.23-3.23,7.09-4.84,11.6-4.84    c4.51,0,8.37,1.61,11.6,4.84c3.23,3.23,4.84,7.1,4.84,11.6c0,4.51-1.62,8.38-4.84,11.6c-3.23,3.23-7.1,4.84-11.6,4.84    C765.7,508.64,761.83,507.03,758.6,503.8z M755.59,526.18h29.24v81.68h-29.24V526.18z"
   id="path17" />&#10;		<path
   class="st4"
   d="M891.35,569.3v3.1H830.5c0,5.73,1.7,10.3,5.12,13.7c2.68,2.68,6.7,4.02,12.06,4.02c3.65,0,6.82-0.73,9.5-2.19    c2.31-1.34,4.02-3.17,5.12-5.48h27.96c-1.83,6.58-5.12,12.18-9.87,16.81c-7.8,7.55-18.88,11.33-33.26,11.33    c-14.25,0-25.52-4.14-33.8-12.42c-8.04-8.04-12.06-18.33-12.06-30.88c0-13.16,4.08-23.69,12.24-31.61    c8.16-7.92,19.31-11.88,33.44-11.88c13.03,0,23.51,3.72,31.43,11.15C887.02,543.24,891.35,554.68,891.35,569.3z M831.42,555.6    h33.07c-0.85-3.53-2.44-6.46-4.75-8.77c-2.92-2.92-6.94-4.38-12.06-4.38c-5,0-8.95,1.46-11.88,4.38    C833.36,549.51,831.9,552.43,831.42,555.6z"
   id="path18" />&#10;		<path
   class="st4"
   d="M903.04,601.09l10.42-20.28c3.65,2.68,7.55,4.69,11.69,6.03c3.78,1.34,7.55,2.01,11.33,2.01    c3.41,0,5.91-0.73,7.49-2.19c0.97-0.97,1.46-2.25,1.46-3.84c0-1.58-0.49-2.8-1.46-3.65c-0.98-0.97-3.53-1.95-7.67-2.92l-7.67-1.83    c-6.46-1.46-11.21-3.84-14.25-7.13c-3.53-3.77-5.3-8.47-5.3-14.07c0-7.92,2.56-14.55,7.67-19.92c6.33-6.58,16.08-9.87,29.24-9.87    c9.01,0,17.72,1.77,26.13,5.3l-9.87,18.64c-5.85-2.68-10.96-4.02-15.35-4.02c-2.68,0-4.93,0.55-6.76,1.64    c-1.71,0.98-2.56,2.32-2.56,4.02c0,2.07,1.16,3.6,3.47,4.57c0.97,0.37,2.5,0.76,4.57,1.19c2.07,0.43,3.77,0.82,5.12,1.19l5.3,1.46    c5.24,1.46,9.26,3.59,12.06,6.4c4.14,3.9,6.21,9.32,6.21,16.26c0,8.28-2.74,15.05-8.22,20.28c-6.82,6.82-16.87,10.23-30.15,10.23    C924.36,610.6,913.39,607.43,903.04,601.09z"
   id="path19" />&#10;	</g>&#10;</g>&#10;<g
   id="cafetería_fria"
   class="st0">&#10;	<g
   class="st3"
   id="g28">&#10;		<path
   class="st4"
   d="M187.02,521.77v28.12c-7.14,3.5-14.9,5.25-23.3,5.25c-14.83,0-27.15-4.76-36.94-14.27    c-9.65-9.37-14.48-21.06-14.48-35.05c0-14.41,5.04-26.51,15.11-36.31c9.93-9.51,22.53-14.27,37.78-14.27    c7.56,0,14.83,1.75,21.83,5.25v28.12c-5.74-4.06-11.54-6.09-17.42-6.09c-6.58,0-12.04,2.17-16.37,6.51    c-4.34,4.34-6.51,9.73-6.51,16.16c0,6.16,1.96,11.41,5.88,15.74c4.48,4.76,10.21,7.14,17.21,7.14    C176.39,528.07,182.12,525.97,187.02,521.77z"
   id="path20" />&#10;		<path
   class="st4"
   d="M278.74,467.21v-9.03h33.58V552h-33.58v-10.28c-6.44,8.96-16.16,13.43-29.17,13.43    c-13.15,0-24.42-4.97-33.79-14.9c-8.96-9.51-13.43-20.99-13.43-34.42c0-15.39,4.83-27.91,14.48-37.57    c8.81-8.82,20.08-13.22,33.79-13.22C262.08,455.03,271.46,459.09,278.74,467.21z M258.17,483.58c-5.6,0-10.49,2.03-14.69,6.09    c-4.48,4.34-6.72,9.44-6.72,15.32c0,6.16,2.17,11.26,6.51,15.32c4.48,4.2,9.51,6.3,15.11,6.3c5.74,0,10.77-2.17,15.11-6.51    c4.2-4.2,6.3-9.23,6.3-15.11c0-6.01-2.17-11.12-6.51-15.32C268.94,485.61,263.9,483.58,258.17,483.58z"
   id="path21" />&#10;		<path
   class="st4"
   d="M395.01,485.68H371.5V552h-33.58v-66.32h-11.75v-27.49h11.75v-15.74c0-12.87,2.87-23.16,8.6-30.85    c7.42-9.93,18.26-14.9,32.53-14.9c5.46,0,10.84,1.05,16.16,3.15v28.96c-3.5-2.1-7-3.15-10.49-3.15c-4.2,0-7.35,1.19-9.44,3.57    c-2.52,2.8-3.78,8.05-3.78,15.74v13.22h23.51V485.68z"
   id="path22" />&#10;		<path
   class="st4"
   d="M507.29,507.71v3.57H437.4c0,6.58,1.96,11.83,5.88,15.74c3.08,3.08,7.69,4.62,13.85,4.62    c4.2,0,7.83-0.84,10.91-2.52c2.66-1.54,4.62-3.64,5.88-6.3h32.11c-2.1,7.56-5.88,13.99-11.33,19.31    c-8.96,8.68-21.69,13.01-38.2,13.01c-16.37,0-29.31-4.76-38.83-14.27c-9.24-9.24-13.85-21.06-13.85-35.47    c0-15.11,4.69-27.21,14.06-36.31c9.37-9.09,22.18-13.64,38.41-13.64c14.97,0,27,4.27,36.1,12.8    C502.32,477.77,507.29,490.92,507.29,507.71z M438.45,491.97h37.99c-0.98-4.06-2.8-7.41-5.46-10.07    c-3.36-3.36-7.98-5.04-13.85-5.04c-5.74,0-10.28,1.68-13.64,5.04C440.69,484.98,439.01,488.33,438.45,491.97z"
   id="path23" />&#10;		<path
   class="st4"
   d="M582.85,485.68h-19.1V552h-33.58v-66.32h-10.7v-27.49h10.7v-30.85h33.58v30.85h19.1V485.68z"
   id="path24" />&#10;		<path
   class="st4"
   d="M694.92,507.71v3.57h-69.89c0,6.58,1.96,11.83,5.88,15.74c3.08,3.08,7.69,4.62,13.85,4.62    c4.2,0,7.83-0.84,10.91-2.52c2.66-1.54,4.62-3.64,5.88-6.3h32.11c-2.1,7.56-5.88,13.99-11.33,19.31    c-8.96,8.68-21.69,13.01-38.2,13.01c-16.37,0-29.31-4.76-38.83-14.27c-9.24-9.24-13.85-21.06-13.85-35.47    c0-15.11,4.69-27.21,14.06-36.31c9.37-9.09,22.18-13.64,38.41-13.64c14.97,0,27,4.27,36.1,12.8    C689.95,477.77,694.92,490.92,694.92,507.71z M626.08,491.97h37.99c-0.98-4.06-2.8-7.41-5.46-10.07    c-3.36-3.36-7.98-5.04-13.85-5.04c-5.74,0-10.28,1.68-13.64,5.04C628.32,484.98,626.64,488.33,626.08,491.97z"
   id="path25" />&#10;		<path
   class="st4"
   d="M714.23,552v-93.82h33.58v15.32c3.08-5.88,7.48-10.21,13.22-13.01c4.62-2.52,10.42-3.78,17.42-3.78    c0.28,0,0.63,0.04,1.05,0.1c0.42,0.07,1.15,0.14,2.2,0.21c1.05,0.07,2.2,0.1,3.46,0.1v31.69c-4.48-2.24-9.31-3.36-14.48-3.36    c-6.58,0-11.68,1.68-15.32,5.04c-5.04,4.62-7.56,11.75-7.56,21.41V552H714.23z"
   id="path26" />&#10;		<path
   class="st4"
   d="M799.65,458.18h33.58V552h-33.58V458.18z M828.4,399l21.2,15.32l-32.32,28.54l-15.53-11.54L828.4,399z"
   id="path27" />&#10;		<path
   class="st4"
   d="M928.73,467.21v-9.03h33.58V552h-33.58v-10.28c-6.44,8.96-16.16,13.43-29.17,13.43    c-13.15,0-24.42-4.97-33.79-14.9c-8.96-9.51-13.43-20.99-13.43-34.42c0-15.39,4.83-27.91,14.48-37.57    c8.81-8.82,20.08-13.22,33.79-13.22C912.07,455.03,921.45,459.09,928.73,467.21z M908.16,483.58c-5.6,0-10.49,2.03-14.69,6.09    c-4.48,4.34-6.72,9.44-6.72,15.32c0,6.16,2.17,11.26,6.51,15.32c4.48,4.2,9.51,6.3,15.11,6.3c5.74,0,10.77-2.17,15.11-6.51    c4.2-4.2,6.3-9.23,6.3-15.11c0-6.01-2.17-11.12-6.51-15.32C918.93,485.61,913.89,483.58,908.16,483.58z"
   id="path28" />&#10;	</g>&#10;	<g
   class="st3"
   id="g32">&#10;		<path
   class="st4"
   d="M441.29,682.19h-23.51v66.32H384.2v-66.32h-11.75V654.7h11.75v-15.74c0-12.87,2.87-23.16,8.6-30.85    c7.42-9.93,18.26-14.9,32.53-14.9c5.46,0,10.84,1.05,16.16,3.15v28.96c-3.5-2.1-7-3.15-10.49-3.15c-4.2,0-7.35,1.19-9.44,3.57    c-2.52,2.8-3.78,8.05-3.78,15.74v13.22h23.51V682.19z"
   id="path29" />&#10;		<path
   class="st4"
   d="M454.09,748.51V654.7h33.58v15.32c3.08-5.88,7.48-10.21,13.22-13.01c4.62-2.52,10.42-3.78,17.42-3.78    c0.28,0,0.63,0.04,1.05,0.1c0.42,0.07,1.15,0.14,2.2,0.21c1.05,0.07,2.2,0.1,3.46,0.1v31.69c-4.48-2.24-9.31-3.36-14.48-3.36    c-6.58,0-11.68,1.68-15.32,5.04c-5.04,4.62-7.56,11.75-7.56,21.41v40.09H454.09z"
   id="path30" />&#10;		<path
   class="st4"
   d="M539.51,654.7h33.58v93.82h-33.58V654.7z M568.26,595.51l21.2,15.32l-32.32,28.54l-15.53-11.54L568.26,595.51    z"
   id="path31" />&#10;		<path
   class="st4"
   d="M668.58,663.72v-9.03h33.58v93.82h-33.58v-10.28c-6.44,8.96-16.16,13.43-29.17,13.43    c-13.15,0-24.42-4.97-33.79-14.9c-8.96-9.51-13.43-20.99-13.43-34.42c0-15.39,4.83-27.91,14.48-37.57    c8.81-8.82,20.08-13.22,33.79-13.22C651.93,651.55,661.31,655.61,668.58,663.72z M648.02,680.09c-5.6,0-10.49,2.03-14.69,6.09    c-4.48,4.34-6.72,9.44-6.72,15.32c0,6.16,2.17,11.26,6.51,15.32c4.48,4.2,9.51,6.3,15.11,6.3c5.74,0,10.77-2.17,15.11-6.51    c4.2-4.2,6.3-9.23,6.3-15.11c0-6.01-2.17-11.12-6.51-15.32C658.79,682.12,653.75,680.09,648.02,680.09z"
   id="path32" />&#10;	</g>&#10;</g>&#10;<g
   id="sandwiches"
   class="st0">&#10;	<g
   class="st3"
   id="g42">&#10;		<path
   class="st4"
   d="M114.65,598.59l9.01-17.54c3.16,2.32,6.53,4.06,10.11,5.21c3.27,1.16,6.53,1.74,9.8,1.74    c2.95,0,5.11-0.63,6.48-1.9c0.84-0.84,1.26-1.95,1.26-3.32c0-1.37-0.42-2.42-1.26-3.16c-0.85-0.84-3.06-1.68-6.64-2.53l-6.64-1.58    c-5.58-1.26-9.69-3.32-12.33-6.16c-3.06-3.26-4.58-7.32-4.58-12.17c0-6.85,2.21-12.59,6.64-17.22c5.48-5.69,13.91-8.53,25.28-8.53    c7.79,0,15.33,1.53,22.6,4.58l-8.53,16.12c-5.06-2.32-9.48-3.48-13.27-3.48c-2.32,0-4.27,0.47-5.85,1.42    c-1.48,0.84-2.21,2-2.21,3.48c0,1.79,1,3.11,3,3.95c0.84,0.32,2.16,0.66,3.95,1.03c1.79,0.37,3.26,0.71,4.42,1.03l4.58,1.26    c4.53,1.26,8,3.11,10.43,5.53c3.58,3.37,5.37,8.06,5.37,14.06c0,7.17-2.37,13.01-7.11,17.54c-5.9,5.9-14.59,8.85-26.07,8.85    C133.09,606.81,123.61,604.07,114.65,598.59z"
   id="path33" />&#10;		<path
   class="st4"
   d="M243.91,540.6v-6.8h25.28v70.64h-25.28v-7.74c-4.85,6.74-12.17,10.11-21.97,10.11    c-9.9,0-18.39-3.74-25.44-11.22c-6.74-7.16-10.11-15.8-10.11-25.92c0-11.59,3.63-21.02,10.9-28.29    c6.64-6.64,15.12-9.96,25.44-9.96C231.37,531.43,238.43,534.49,243.91,540.6z M228.43,552.92c-4.21,0-7.9,1.53-11.06,4.58    c-3.37,3.27-5.06,7.11-5.06,11.54c0,4.64,1.63,8.48,4.9,11.54c3.37,3.16,7.16,4.74,11.38,4.74c4.32,0,8.11-1.63,11.38-4.9    c3.16-3.16,4.74-6.95,4.74-11.38c0-4.53-1.64-8.38-4.9-11.54C236.54,554.45,232.75,552.92,228.43,552.92z"
   id="path34" />&#10;		<path
   class="st4"
   d="M286.58,604.44V533.8h25.28v8.85c5.27-6.95,12.75-10.43,22.44-10.43c8.85,0,15.8,2.53,20.86,7.59    c2.74,2.74,4.53,5.58,5.37,8.53c0.84,2.95,1.27,6.69,1.27,11.22v44.88h-25.28v-35.71c0-6.95-1.06-11.54-3.16-13.75    c-1.9-2-4.58-3-8.06-3c-3.79,0-6.9,1.11-9.32,3.32c-2.74,2.53-4.11,6.27-4.11,11.22v37.93H286.58z"
   id="path35" />&#10;		<path
   class="st4"
   d="M458.98,489.24v115.2H433.7v-7.74c-5.27,6.74-12.38,10.11-21.33,10.11c-9.8,0-18.07-3.26-24.81-9.8    c-7.58-7.37-11.38-16.75-11.38-28.13s3.84-20.7,11.54-27.97c6.64-6.32,14.96-9.48,24.97-9.48c8.32,0,15.33,3.06,21.02,9.17v-51.36    H458.98z M418.21,585.32c4,0,7.64-1.42,10.9-4.27c3.58-3.26,5.37-7.27,5.37-12.01c0-4.21-1.58-8.01-4.74-11.38    c-2.95-3.16-6.79-4.74-11.54-4.74c-4.42,0-8.17,1.53-11.22,4.58c-3.27,3.27-4.9,7.27-4.9,12.01c0,4.11,1.63,7.8,4.9,11.06    C410.15,583.74,413.89,585.32,418.21,585.32z"
   id="path36" />&#10;		<path
   class="st4"
   d="M467.67,533.8h28.29l16.75,37.29l17.86-37.29h15.49l17.86,38.4l17.7-38.4h28.13l-36.98,70.64h-17.07    l-17.7-38.87l-16.91,38.87h-17.07L467.67,533.8z"
   id="path37" />&#10;		<path
   class="st4"
   d="M621.03,514.44c-2.79-2.79-4.19-6.14-4.19-10.03c0-3.9,1.4-7.24,4.19-10.03c2.79-2.79,6.14-4.19,10.04-4.19    c3.9,0,7.24,1.4,10.03,4.19c2.79,2.79,4.19,6.14,4.19,10.03c0,3.9-1.4,7.24-4.19,10.03c-2.79,2.79-6.14,4.19-10.03,4.19    C627.17,518.63,623.82,517.24,621.03,514.44z M618.43,533.8h25.28v70.64h-25.28V533.8z"
   id="path38" />&#10;		<path
   class="st4"
   d="M714.34,581.68v21.17c-5.37,2.63-11.22,3.95-17.54,3.95c-11.17,0-20.44-3.58-27.81-10.75    c-7.27-7.06-10.9-15.85-10.9-26.39c0-10.85,3.79-19.96,11.38-27.34c7.48-7.16,16.96-10.75,28.44-10.75    c5.69,0,11.17,1.32,16.43,3.95v21.18c-4.32-3.05-8.69-4.58-13.12-4.58c-4.95,0-9.06,1.64-12.33,4.9c-3.27,3.27-4.9,7.32-4.9,12.17    c0,4.64,1.47,8.59,4.42,11.85c3.37,3.58,7.69,5.37,12.96,5.37C706.34,586.42,710.66,584.84,714.34,581.68z"
   id="path39" />&#10;		<path
   class="st4"
   d="M728.72,604.44v-115.2h25.28v53.41c2.32-2.95,4.95-5.27,7.9-6.95c4-2.32,8.85-3.48,14.54-3.48    c8.85,0,15.8,2.53,20.86,7.59c2.84,2.84,4.66,5.77,5.45,8.77c0.79,3,1.19,6.66,1.19,10.98v44.88h-25.28v-35.71    c0-6.85-1.06-11.43-3.16-13.75c-1.79-2-4.48-3-8.06-3c-3.9,0-6.95,1-9.17,3c-2.84,2.63-4.27,6.48-4.27,11.54v37.93H728.72z"
   id="path40" />&#10;		<path
   class="st4"
   d="M892.91,571.1v2.69h-52.62c0,4.95,1.47,8.9,4.42,11.85c2.32,2.32,5.79,3.48,10.43,3.48    c3.16,0,5.9-0.63,8.22-1.9c2-1.16,3.48-2.74,4.42-4.74h24.18c-1.58,5.69-4.42,10.54-8.53,14.54c-6.74,6.53-16.33,9.8-28.76,9.8    c-12.33,0-22.07-3.58-29.23-10.75c-6.95-6.95-10.43-15.85-10.43-26.71c0-11.38,3.53-20.49,10.59-27.34    c7.06-6.85,16.7-10.27,28.92-10.27c11.27,0,20.33,3.21,27.18,9.64C889.17,548.55,892.91,558.45,892.91,571.1z M841.08,559.24h28.6    c-0.74-3.05-2.11-5.58-4.11-7.58c-2.53-2.53-6-3.79-10.43-3.79c-4.32,0-7.74,1.26-10.27,3.79    C842.76,553.98,841.5,556.51,841.08,559.24z"
   id="path41" />&#10;		<path
   class="st4"
   d="M903.02,598.59l9.01-17.54c3.16,2.32,6.53,4.06,10.11,5.21c3.27,1.16,6.53,1.74,9.8,1.74    c2.95,0,5.11-0.63,6.48-1.9c0.84-0.84,1.26-1.95,1.26-3.32c0-1.37-0.42-2.42-1.26-3.16c-0.85-0.84-3.06-1.68-6.64-2.53l-6.64-1.58    c-5.58-1.26-9.69-3.32-12.33-6.16c-3.06-3.26-4.58-7.32-4.58-12.17c0-6.85,2.21-12.59,6.64-17.22c5.48-5.69,13.91-8.53,25.28-8.53    c7.79,0,15.33,1.53,22.6,4.58l-8.53,16.12c-5.06-2.32-9.48-3.48-13.27-3.48c-2.32,0-4.27,0.47-5.85,1.42    c-1.48,0.84-2.21,2-2.21,3.48c0,1.79,1,3.11,3,3.95c0.84,0.32,2.16,0.66,3.95,1.03c1.79,0.37,3.26,0.71,4.42,1.03l4.58,1.26    c4.53,1.26,8,3.11,10.43,5.53c3.58,3.37,5.37,8.06,5.37,14.06c0,7.17-2.37,13.01-7.11,17.54c-5.9,5.9-14.59,8.85-26.07,8.85    C921.46,606.81,911.98,604.07,903.02,598.59z"
   id="path42" />&#10;	</g>&#10;</g>&#10;<g
   id="cafetería"
   class="st0">&#10;	<g
   class="st3"
   id="g51">&#10;		<path
   class="st4"
   d="M189.92,602.53v28.12c-7.14,3.5-14.9,5.25-23.3,5.25c-14.83,0-27.15-4.76-36.94-14.27    c-9.65-9.37-14.48-21.06-14.48-35.05c0-14.41,5.04-26.51,15.11-36.31c9.93-9.51,22.53-14.27,37.78-14.27    c7.56,0,14.83,1.75,21.83,5.25v28.12c-5.74-4.06-11.54-6.09-17.42-6.09c-6.58,0-12.04,2.17-16.37,6.51    c-4.34,4.34-6.51,9.73-6.51,16.16c0,6.16,1.96,11.41,5.88,15.74c4.48,4.76,10.21,7.14,17.21,7.14    C179.28,608.83,185.02,606.73,189.92,602.53z"
   id="path43" />&#10;		<path
   class="st4"
   d="M281.63,547.96v-9.03h33.58v93.82h-33.58v-10.28c-6.44,8.96-16.16,13.43-29.17,13.43    c-13.15,0-24.42-4.97-33.79-14.9c-8.96-9.51-13.43-20.99-13.43-34.42c0-15.39,4.83-27.91,14.48-37.57    c8.81-8.82,20.08-13.22,33.79-13.22C264.98,535.79,274.36,539.85,281.63,547.96z M261.06,564.33c-5.6,0-10.49,2.03-14.69,6.09    c-4.48,4.34-6.72,9.44-6.72,15.32c0,6.16,2.17,11.26,6.51,15.32c4.48,4.2,9.51,6.3,15.11,6.3c5.74,0,10.77-2.17,15.11-6.51    c4.2-4.2,6.3-9.23,6.3-15.11c0-6.01-2.17-11.12-6.51-15.32C271.84,566.36,266.8,564.33,261.06,564.33z"
   id="path44" />&#10;		<path
   class="st4"
   d="M397.91,566.43H374.4v66.32h-33.58v-66.32h-11.75v-27.49h11.75V523.2c0-12.87,2.87-23.16,8.6-30.85    c7.42-9.93,18.26-14.9,32.53-14.9c5.46,0,10.84,1.05,16.16,3.15v28.96c-3.5-2.1-7-3.15-10.49-3.15c-4.2,0-7.35,1.19-9.44,3.57    c-2.52,2.8-3.78,8.05-3.78,15.74v13.22h23.51V566.43z"
   id="path45" />&#10;		<path
   class="st4"
   d="M510.19,588.47v3.57H440.3c0,6.58,1.96,11.83,5.88,15.74c3.08,3.08,7.69,4.62,13.85,4.62    c4.2,0,7.83-0.84,10.91-2.52c2.66-1.54,4.62-3.64,5.88-6.3h32.11c-2.1,7.56-5.88,13.99-11.33,19.31    c-8.96,8.68-21.69,13.01-38.2,13.01c-16.37,0-29.31-4.76-38.83-14.27c-9.24-9.24-13.85-21.06-13.85-35.47    c0-15.11,4.69-27.21,14.06-36.31c9.37-9.09,22.18-13.64,38.41-13.64c14.97,0,27,4.27,36.1,12.8    C505.22,558.53,510.19,571.68,510.19,588.47z M441.35,572.73h37.99c-0.98-4.06-2.8-7.41-5.46-10.07    c-3.36-3.36-7.98-5.04-13.85-5.04c-5.74,0-10.28,1.68-13.64,5.04C443.59,565.74,441.91,569.09,441.35,572.73z"
   id="path46" />&#10;		<path
   class="st4"
   d="M585.74,566.43h-19.1v66.32h-33.58v-66.32h-10.7v-27.49h10.7v-30.85h33.58v30.85h19.1V566.43z"
   id="path47" />&#10;		<path
   class="st4"
   d="M697.82,588.47v3.57h-69.89c0,6.58,1.96,11.83,5.88,15.74c3.08,3.08,7.69,4.62,13.85,4.62    c4.2,0,7.83-0.84,10.91-2.52c2.66-1.54,4.62-3.64,5.88-6.3h32.11c-2.1,7.56-5.88,13.99-11.33,19.31    c-8.96,8.68-21.69,13.01-38.2,13.01c-16.37,0-29.31-4.76-38.83-14.27c-9.24-9.24-13.85-21.06-13.85-35.47    c0-15.11,4.69-27.21,14.06-36.31c9.37-9.09,22.18-13.64,38.41-13.64c14.97,0,27,4.27,36.1,12.8    C692.85,558.53,697.82,571.68,697.82,588.47z M628.98,572.73h37.99c-0.98-4.06-2.8-7.41-5.46-10.07    c-3.36-3.36-7.98-5.04-13.85-5.04c-5.74,0-10.28,1.68-13.64,5.04C631.21,565.74,629.53,569.09,628.98,572.73z"
   id="path48" />&#10;		<path
   class="st4"
   d="M717.13,632.76v-93.82h33.58v15.32c3.08-5.88,7.48-10.21,13.22-13.01c4.62-2.52,10.42-3.78,17.42-3.78    c0.28,0,0.63,0.04,1.05,0.1c0.42,0.07,1.15,0.14,2.2,0.21c1.05,0.07,2.2,0.1,3.46,0.1v31.69c-4.48-2.24-9.31-3.36-14.48-3.36    c-6.58,0-11.68,1.68-15.32,5.04c-5.04,4.62-7.56,11.75-7.56,21.41v40.09H717.13z"
   id="path49" />&#10;		<path
   class="st4"
   d="M802.54,538.94h33.58v93.82h-33.58V538.94z M831.3,479.75l21.2,15.32l-32.32,28.54l-15.53-11.54L831.3,479.75    z"
   id="path50" />&#10;		<path
   class="st4"
   d="M931.62,547.96v-9.03h33.58v93.82h-33.58v-10.28c-6.44,8.96-16.16,13.43-29.17,13.43    c-13.15,0-24.42-4.97-33.79-14.9c-8.96-9.51-13.43-20.99-13.43-34.42c0-15.39,4.83-27.91,14.48-37.57    c8.81-8.82,20.08-13.22,33.79-13.22C914.97,535.79,924.34,539.85,931.62,547.96z M911.05,564.33c-5.6,0-10.49,2.03-14.69,6.09    c-4.48,4.34-6.72,9.44-6.72,15.32c0,6.16,2.17,11.26,6.51,15.32c4.48,4.2,9.51,6.3,15.11,6.3c5.74,0,10.77-2.17,15.11-6.51    c4.2-4.2,6.3-9.23,6.3-15.11c0-6.01-2.17-11.12-6.51-15.32C921.83,566.36,916.79,564.33,911.05,564.33z"
   id="path51" />&#10;	</g>&#10;</g>&#10;<g
   id="tortas_y_tartas"
   class="st0">&#10;	<g
   class="st3"
   id="g64">&#10;		<path
   class="st4"
   d="M261.69,435.86h-19.3v67.02h-33.93v-67.02h-10.82v-27.78h10.82v-31.18h33.93v31.18h19.3V435.86z"
   id="path52" />&#10;		<path
   class="st4"
   d="M384.47,455.37c0,13.72-4.88,25.38-14.63,34.99c-10.6,10.46-24.74,15.69-42.41,15.69    c-17.53,0-31.6-5.23-42.2-15.69c-9.76-9.61-14.63-21.28-14.63-34.99c0-13.71,4.88-25.31,14.63-34.78    c10.74-10.46,24.81-15.69,42.2-15.69c17.25,0,31.39,5.23,42.41,15.69C379.6,430.07,384.47,441.66,384.47,455.37z M327.64,433.74    c-5.8,0-10.89,2.05-15.27,6.15c-4.38,4.1-6.57,9.26-6.57,15.48c0,5.66,2.19,10.68,6.57,15.06c4.24,4.24,9.33,6.36,15.27,6.36    c5.8,0,10.82-2.12,15.06-6.36c4.38-4.1,6.57-9.12,6.57-15.06c0-5.94-2.19-11.1-6.57-15.48    C338.31,435.8,333.29,433.74,327.64,433.74z"
   id="path53" />&#10;		<path
   class="st4"
   d="M403.98,502.88v-94.8h33.93v15.48c3.11-5.94,7.56-10.32,13.36-13.15c4.67-2.54,10.53-3.82,17.6-3.82    c0.28,0,0.64,0.04,1.06,0.11c0.42,0.07,1.17,0.14,2.23,0.21c1.06,0.07,2.23,0.11,3.5,0.11v32.02c-4.53-2.26-9.4-3.39-14.63-3.39    c-6.65,0-11.81,1.7-15.48,5.09c-5.09,4.66-7.63,11.88-7.63,21.63v40.51H403.98z"
   id="path54" />&#10;		<path
   class="st4"
   d="M550.74,435.86h-19.3v67.02h-33.93v-67.02h-10.82v-27.78h10.82v-31.18h33.93v31.18h19.3V435.86z"
   id="path55" />&#10;		<path
   class="st4"
   d="M636.84,417.2v-9.12h33.93v94.8h-33.93v-10.39c-6.51,9.05-16.33,13.57-29.48,13.57    c-13.29,0-24.67-5.02-34.14-15.06c-9.05-9.61-13.57-21.21-13.57-34.78c0-15.55,4.88-28.21,14.63-37.96    c8.91-8.91,20.29-13.36,34.14-13.36C620.01,404.9,629.48,409,636.84,417.2z M616.05,433.74c-5.66,0-10.6,2.05-14.85,6.15    c-4.53,4.38-6.79,9.54-6.79,15.48c0,6.22,2.19,11.38,6.57,15.48c4.52,4.24,9.61,6.36,15.27,6.36c5.8,0,10.89-2.19,15.27-6.57    c4.24-4.24,6.36-9.33,6.36-15.27c0-6.08-2.19-11.24-6.57-15.48C626.94,435.8,621.85,433.74,616.05,433.74z"
   id="path56" />&#10;		<path
   class="st4"
   d="M688.16,495.03l12.09-23.54c4.24,3.11,8.76,5.44,13.57,7c4.38,1.56,8.76,2.33,13.15,2.33    c3.96,0,6.86-0.85,8.7-2.55c1.13-1.13,1.7-2.61,1.7-4.45c0-1.83-0.57-3.25-1.7-4.24c-1.13-1.13-4.1-2.26-8.91-3.39l-8.91-2.12    c-7.5-1.7-13.01-4.45-16.54-8.27c-4.1-4.38-6.15-9.83-6.15-16.33c0-9.19,2.97-16.89,8.91-23.11c7.35-7.64,18.66-11.45,33.93-11.45    c10.46,0,20.57,2.05,30.33,6.15l-11.45,21.63c-6.79-3.11-12.72-4.66-17.81-4.66c-3.11,0-5.73,0.64-7.85,1.91    c-1.98,1.13-2.97,2.69-2.97,4.67c0,2.41,1.34,4.17,4.03,5.3c1.13,0.42,2.9,0.88,5.3,1.38c2.4,0.5,4.38,0.95,5.94,1.38l6.15,1.7    c6.08,1.7,10.74,4.17,14,7.42c4.8,4.53,7.21,10.82,7.21,18.88c0,9.62-3.18,17.46-9.54,23.54c-7.92,7.92-19.58,11.88-34.99,11.88    C712.9,506.06,700.17,502.39,688.16,495.03z"
   id="path57" />&#10;		<path
   class="st4"
   d="M288.17,625.59l20.78,20.15c-5.66,7.21-12.09,14.07-19.3,20.57l31.6,33.51h-45.81l-12.3-12.94    C248.44,697.63,232.6,703,215.64,703c-15.13,0-26.72-3.96-34.78-11.88c-7.63-7.35-11.45-16.68-11.45-27.99    c0-11.03,3.53-20.07,10.6-27.15c5.65-5.79,13.36-10.39,23.12-13.78c-3.11-3.67-5.87-7.42-8.27-11.24    c-3.25-5.37-4.88-11.17-4.88-17.39c0-9.75,3.6-18.38,10.81-25.87c8.2-8.34,19.3-12.51,33.3-12.51c13.85,0,24.81,3.89,32.87,11.66    c7.49,7.35,11.24,16.19,11.24,26.51c0,8.63-3.25,16.19-9.75,22.69c-4.81,4.81-10.32,8.48-16.54,11.03l17.81,18.66    C276.5,639.52,282.65,632.8,288.17,625.59z M242.99,664.62l-22.27-23.96c-8.91,5.09-13.36,10.6-13.36,16.54    c0,3.96,1.41,7.14,4.24,9.54c2.97,2.69,7,4.03,12.09,4.03C230.06,670.77,236.49,668.72,242.99,664.62z M224.76,591.87    c0,2.69,1.27,5.87,3.82,9.54c1.7,2.55,4.17,5.37,7.42,8.48c2.97-1.55,5.8-3.67,8.48-6.36c2.97-3.39,4.45-6.86,4.45-10.39    c0-4.24-1.27-7.49-3.82-9.76c-2.41-2.12-5.23-3.18-8.48-3.18c-3.25,0-5.94,0.99-8.06,2.97    C226.03,585.44,224.76,588.34,224.76,591.87z"
   id="path58" />&#10;		<path
   class="st4"
   d="M439.16,632.8h-19.3v67.02h-33.93V632.8h-10.82v-27.78h10.82v-31.18h33.93v31.18h19.3V632.8z"
   id="path59" />&#10;		<path
   class="st4"
   d="M525.26,614.14v-9.12h33.93v94.8h-33.93v-10.39c-6.51,9.05-16.33,13.57-29.48,13.57    c-13.29,0-24.67-5.02-34.14-15.06c-9.05-9.61-13.57-21.21-13.57-34.78c0-15.55,4.88-28.21,14.63-37.96    c8.91-8.91,20.29-13.36,34.14-13.36C508.43,601.84,517.91,605.95,525.26,614.14z M504.48,630.68c-5.66,0-10.6,2.05-14.85,6.15    c-4.53,4.38-6.79,9.54-6.79,15.48c0,6.22,2.19,11.38,6.57,15.48c4.52,4.24,9.61,6.36,15.27,6.36c5.8,0,10.89-2.19,15.27-6.57    c4.24-4.24,6.36-9.33,6.36-15.27c0-6.08-2.19-11.24-6.57-15.48C515.36,632.74,510.27,630.68,504.48,630.68z"
   id="path60" />&#10;		<path
   class="st4"
   d="M582.52,699.82v-94.8h33.93v15.48c3.11-5.94,7.56-10.32,13.36-13.15c4.67-2.54,10.53-3.82,17.6-3.82    c0.28,0,0.64,0.04,1.06,0.11c0.42,0.07,1.17,0.14,2.23,0.21c1.06,0.07,2.23,0.11,3.5,0.11v32.02c-4.53-2.26-9.4-3.39-14.63-3.39    c-6.65,0-11.81,1.7-15.48,5.09c-5.09,4.66-7.63,11.88-7.63,21.63v40.51H582.52z"
   id="path61" />&#10;		<path
   class="st4"
   d="M729.27,632.8h-19.3v67.02h-33.93V632.8h-10.82v-27.78h10.82v-31.18h33.93v31.18h19.3V632.8z"
   id="path62" />&#10;		<path
   class="st4"
   d="M815.37,614.14v-9.12h33.93v94.8h-33.93v-10.39c-6.51,9.05-16.33,13.57-29.48,13.57    c-13.29,0-24.67-5.02-34.14-15.06c-9.05-9.61-13.57-21.21-13.57-34.78c0-15.55,4.88-28.21,14.63-37.96    c8.91-8.91,20.29-13.36,34.14-13.36C798.55,601.84,808.02,605.95,815.37,614.14z M794.59,630.68c-5.66,0-10.6,2.05-14.85,6.15    c-4.53,4.38-6.79,9.54-6.79,15.48c0,6.22,2.19,11.38,6.57,15.48c4.52,4.24,9.61,6.36,15.27,6.36c5.8,0,10.89-2.19,15.27-6.57    c4.24-4.24,6.36-9.33,6.36-15.27c0-6.08-2.19-11.24-6.57-15.48C805.47,632.74,800.38,630.68,794.59,630.68z"
   id="path63" />&#10;		<path
   class="st4"
   d="M866.69,691.97l12.09-23.54c4.24,3.11,8.76,5.44,13.57,7c4.38,1.56,8.76,2.33,13.15,2.33    c3.96,0,6.86-0.85,8.7-2.55c1.13-1.13,1.7-2.61,1.7-4.45c0-1.83-0.57-3.25-1.7-4.24c-1.13-1.13-4.1-2.26-8.91-3.39l-8.91-2.12    c-7.5-1.7-13.01-4.45-16.54-8.27c-4.1-4.38-6.15-9.83-6.15-16.33c0-9.19,2.97-16.89,8.91-23.11c7.35-7.64,18.66-11.45,33.93-11.45    c10.46,0,20.57,2.05,30.33,6.15l-11.45,21.63c-6.79-3.11-12.72-4.66-17.81-4.66c-3.11,0-5.73,0.64-7.85,1.91    c-1.98,1.13-2.97,2.69-2.97,4.67c0,2.41,1.34,4.17,4.03,5.3c1.13,0.42,2.9,0.88,5.3,1.38c2.4,0.5,4.38,0.95,5.94,1.38l6.15,1.7    c6.08,1.7,10.74,4.17,14,7.42c4.81,4.53,7.21,10.82,7.21,18.88c0,9.62-3.18,17.46-9.54,23.54c-7.92,7.92-19.58,11.88-34.99,11.88    C891.43,703,878.71,699.33,866.69,691.97z"
   id="path64" />&#10;	</g>&#10;</g>&#10;<g
   id="bakery"
   transform="matrix(1.0686452,0,0,1.3333333,-51.927204,-161.35393)">&#10;	&#10;<g
   id="g77"
   transform="translate(17.273378,-7.9517289)"><rect
     style="fill:#fbeae0;stroke-width:0.0357723"
     id="rect76"
     width="499.14844"
     height="83.191406"
     x="402.58591"
     y="510.98727" /><path
     sodipodi:type="star"
     style="fill:#fbeae0;stroke-width:0.043"
     id="path77"
     inkscape:flatsided="false"
     sodipodi:sides="3"
     sodipodi:cx="-260.12433"
     sodipodi:cy="-49.528992"
     sodipodi:r1="141.85481"
     sodipodi:r2="70.927406"
     sodipodi:arg1="-1.0471976"
     sodipodi:arg2="0"
     inkscape:rounded="0"
     inkscape:randomized="0"
     d="m -189.19693,-172.37887 1e-5,122.849878 0,122.849868 -106.39111,-61.424932 -106.39111,-61.424929 106.39111,-61.424945 z"
     transform="matrix(1.1749102,0,0,-1.2210025,625.41233,492.10795)"
     inkscape:transform-center-x="41.666693"
     inkscape:transform-center-y="1.9142432e-06" /></g></g>&#10;<g
   id="combos"
   class="st0">&#10;	<g
   class="st3"
   id="g76">&#10;		<path
   class="st4"
   d="M193.62,596.37v32.36c-8.21,4.02-17.15,6.04-26.8,6.04c-17.07,0-31.23-5.47-42.5-16.42    c-11.11-10.78-16.66-24.23-16.66-40.33c0-16.58,5.8-30.51,17.39-41.78c11.43-10.95,25.92-16.42,43.47-16.42    c8.69,0,17.06,2.01,25.11,6.04v32.36c-6.6-4.67-13.28-7-20.04-7c-7.57,0-13.85,2.5-18.84,7.49c-4.99,4.99-7.49,11.19-7.49,18.59    c0,7.09,2.25,13.12,6.76,18.11c5.15,5.47,11.75,8.21,19.8,8.21C181.38,603.62,187.98,601.2,193.62,596.37z"
   id="path71" />&#10;		<path
   class="st4"
   d="M340.92,577.05c0,15.62-5.55,28.9-16.66,39.84c-12.07,11.92-28.17,17.87-48.3,17.87    c-19.96,0-35.98-5.95-48.05-17.87c-11.11-10.95-16.66-24.23-16.66-39.84c0-15.61,5.55-28.82,16.66-39.6    c12.23-11.91,28.25-17.87,48.05-17.87c19.64,0,35.74,5.96,48.3,17.87C335.36,548.24,340.92,561.44,340.92,577.05z M276.2,552.42    c-6.6,0-12.4,2.34-17.39,7c-4.99,4.67-7.49,10.55-7.49,17.63c0,6.44,2.49,12.16,7.49,17.15c4.83,4.83,10.63,7.24,17.39,7.24    c6.6,0,12.32-2.41,17.15-7.24c4.99-4.67,7.49-10.38,7.49-17.15c0-6.76-2.5-12.64-7.49-17.63    C288.35,554.76,282.64,552.42,276.2,552.42z"
   id="path72" />&#10;		<path
   class="st4"
   d="M363.13,631.14V523.2h38.64v13.04c8.21-9.98,18.99-14.97,32.36-14.97c7.89,0,14.81,1.61,20.77,4.83    c6.44,3.38,11.43,8.53,14.97,15.45c3.7-6.6,8.61-11.59,14.73-14.97c6.28-3.54,13.76-5.31,22.46-5.31c13.2,0,23.18,3.3,29.94,9.9    c6.76,6.6,10.14,16.5,10.14,29.7v70.27H508.5v-53.37c0-11.91-1.85-19.64-5.55-23.18c-2.74-2.41-6.12-3.62-10.14-3.62    c-4.51,0-8.29,1.45-11.35,4.35c-4.67,4.51-7,11.35-7,20.53v55.3h-38.64v-53.37c0-11.91-1.69-19.64-5.07-23.18    c-2.74-2.9-6.6-4.35-11.59-4.35c-4.51,0-8.05,1.29-10.63,3.86c-4.51,4.35-6.76,12.24-6.76,23.67v53.37H363.13z"
   id="path73" />&#10;		<path
   class="st4"
   d="M573.94,455.1h38.64v78.48c8.69-9.33,19.4-14.01,32.12-14.01c15.29,0,28.01,4.83,38.15,14.49    c11.75,11.11,17.63,25.36,17.63,42.74s-5.8,31.72-17.39,42.98c-10.3,9.98-22.94,14.97-37.91,14.97c-13.69,0-24.55-5.15-32.6-15.45    v11.83h-38.64V455.1z M636.24,601.92c6.6,0,12.32-2.41,17.15-7.24c4.99-4.99,7.49-10.63,7.49-16.9c0-7.24-2.5-13.36-7.49-18.35    c-4.67-4.67-10.38-7-17.15-7c-7.24,0-13.12,2.41-17.63,7.24c-4.83,5.15-7.24,10.95-7.24,17.39c0,7.24,2.74,13.36,8.21,18.35    C624.57,599.75,630.12,601.92,636.24,601.92z"
   id="path74" />&#10;		<path
   class="st4"
   d="M848.02,577.05c0,15.62-5.55,28.9-16.66,39.84c-12.07,11.92-28.17,17.87-48.3,17.87    c-19.96,0-35.98-5.95-48.05-17.87c-11.11-10.95-16.66-24.23-16.66-39.84c0-15.61,5.55-28.82,16.66-39.6    c12.23-11.91,28.25-17.87,48.05-17.87c19.64,0,35.74,5.96,48.3,17.87C842.47,548.24,848.02,561.44,848.02,577.05z M783.3,552.42    c-6.6,0-12.4,2.34-17.39,7c-4.99,4.67-7.49,10.55-7.49,17.63c0,6.44,2.49,12.16,7.49,17.15c4.83,4.83,10.63,7.24,17.39,7.24    c6.6,0,12.32-2.41,17.15-7.24c4.99-4.67,7.49-10.38,7.49-17.15c0-6.76-2.5-12.64-7.49-17.63    C795.46,554.76,789.74,552.42,783.3,552.42z"
   id="path75" />&#10;		<path
   class="st4"
   d="M863.47,622.21l13.76-26.8c4.83,3.54,9.98,6.2,15.45,7.97c4.99,1.77,9.98,2.66,14.97,2.66    c4.51,0,7.81-0.97,9.9-2.9c1.29-1.29,1.93-2.98,1.93-5.07c0-2.09-0.65-3.7-1.93-4.83c-1.29-1.29-4.67-2.57-10.14-3.86l-10.14-2.41    c-8.53-1.93-14.81-5.07-18.84-9.42c-4.67-4.99-7-11.19-7-18.59c0-10.46,3.38-19.24,10.14-26.32c8.37-8.69,21.25-13.04,38.64-13.04    c11.91,0,23.42,2.34,34.53,7l-13.04,24.63c-7.73-3.54-14.49-5.31-20.28-5.31c-3.54,0-6.52,0.72-8.93,2.17    c-2.26,1.29-3.38,3.06-3.38,5.31c0,2.74,1.53,4.75,4.59,6.04c1.29,0.48,3.3,1.01,6.04,1.57c2.74,0.57,4.99,1.09,6.76,1.57l7,1.93    c6.92,1.93,12.23,4.75,15.94,8.45c5.47,5.15,8.21,12.32,8.21,21.49c0,10.95-3.62,19.88-10.87,26.8    c-9.02,9.02-22.3,13.52-39.84,13.52C891.64,634.77,877.15,630.58,863.47,622.21z"
   id="path76" />&#10;	</g>&#10;</g>&#10;</svg>
