<?xml version="1.0" encoding="UTF-8" standalone="no"?>
<!-- Created with Inkscape (http://www.inkscape.org/) -->

<svg
   version="1.1"
   id="svg1"
   width="180.04396"
   height="180.04396"
   viewBox="0 0 180.04396 180.04396"
   sodipodi:docname="ig-icono.svg"
   inkscape:version="1.3 (0e150ed6c4, 2023-07-21)"
   xmlns:inkscape="http://www.inkscape.org/namespaces/inkscape"
   xmlns:sodipodi="http://sodipodi.sourceforge.net/DTD/sodipodi-0.dtd"
   xmlns="http://www.w3.org/2000/svg"
   xmlns:svg="http://www.w3.org/2000/svg">
  <defs
     id="defs1" />
  <sodipodi:namedview
     id="namedview1"
     pagecolor="#ffffff"
     bordercolor="#000000"
     borderopacity="0.25"
     inkscape:showpageshadow="2"
     inkscape:pageopacity="0.0"
     inkscape:pagecheckerboard="0"
     inkscape:deskcolor="#d1d1d1"
     inkscape:zoom="3.0358893"
     inkscape:cx="86.465603"
     inkscape:cy="92.229977"
     inkscape:window-width="1920"
     inkscape:window-height="1012"
     inkscape:window-x="0"
     inkscape:window-y="0"
     inkscape:window-maximized="1"
     inkscape:current-layer="g1" />
  <g
     inkscape:groupmode="layer"
     inkscape:label="Image"
     id="g1">
    <path
       style="fill:#d97706;fill-opacity:1;stroke-width:0.949915"
       d="M 45.716722,175.27622 C 35.3367,174.0437 25.572064,169.35991 18.161248,162.05867 11.157026,155.15807 7.047801,147.60597 4.8255238,137.54991 L 4.0525021,134.05182 V 90.126121 46.200413 L 4.8255238,42.702345 C 7.047801,32.646231 11.157026,25.094158 18.161248,18.193545 24.655384,11.795462 32.470006,7.6457421 41.96557,5.5529714 l 3.507383,-0.7730062 h 43.925704 43.925693 l 3.50736,0.7730062 c 9.68449,2.1343981 17.39241,6.2800446 24.11936,12.9723576 6.65733,6.623031 10.88234,14.465027 13.02074,24.167704 l 0.773,3.50738 v 43.925708 43.925699 l -0.773,3.50736 c -4.21956,19.14553 -17.79166,32.77306 -36.97305,37.1242 l -3.3404,0.75772 -42.756539,0.0614 c -23.516122,0.0339 -43.849424,-0.068 -45.185099,-0.22662 z m 84.857788,-15.01014 c 5.39016,-0.51119 10.90226,-2.47507 15.27623,-5.44288 2.21097,-1.5002 6.21233,-5.44889 7.84724,-7.74397 3.26906,-4.58906 5.29981,-10.07489 5.84063,-15.77725 0.45909,-4.84137 0.45909,-77.510389 0,-82.351724 -0.51119,-5.390183 -2.47507,-10.902262 -5.44288,-15.276192 -1.5002,-2.211028 -5.44889,-6.21237 -7.74397,-7.847301 -4.58906,-3.269044 -10.07489,-5.299813 -15.77725,-5.840564 -4.84137,-0.459095 -77.510384,-0.459095 -82.351717,0 -5.702387,0.540751 -11.188145,2.57152 -15.777246,5.840564 -2.29512,1.634931 -6.243784,5.636273 -7.743983,7.847301 -2.967756,4.37393 -4.931682,9.886009 -5.442826,15.276192 -0.4591,4.841335 -0.4591,77.510354 0,82.351724 0.540748,5.70236 2.571515,11.18819 5.840557,15.77725 1.634938,2.29508 5.63628,6.24377 7.847303,7.74397 4.137328,2.80726 9.974294,4.96285 14.667351,5.4167 4.2762,0.41356 78.628211,0.43698 82.960561,0.0262 z M 85.724259,134.01424 c -3.700543,-0.45713 -5.881832,-0.87792 -8.543495,-1.64797 -16.277995,-4.70977 -28.469318,-18.4947 -31.278176,-35.366834 -0.506455,-3.04218 -0.506455,-10.704449 0,-13.746629 3.13177,-18.811758 17.810998,-33.490987 36.622757,-36.622756 3.042178,-0.506455 10.704447,-0.506455 13.746627,0 18.795018,3.128983 33.493768,17.827715 36.622758,36.622756 0.50644,3.04218 0.50644,10.704449 0,13.746629 -3.10209,18.633334 -17.88455,33.534614 -36.258247,36.549664 -2.367129,0.3884 -9.181879,0.67892 -10.912224,0.46514 z m 7.311963,-15.31165 c 6.546248,-0.56119 14.197438,-4.78101 18.654508,-10.28828 11.55685,-14.280091 7.26613,-35.241066 -8.9674,-43.808173 -5.016639,-2.647471 -10.258636,-3.670364 -16.158498,-3.153079 -9.515951,0.83434 -18.274372,6.789525 -22.777494,15.487278 -2.566868,4.957888 -3.57098,10.211577 -3.061747,16.01961 1.174994,13.401244 12.366235,24.624114 25.78659,25.859484 1.495705,0.13766 3.09525,0.20894 3.554547,0.15824 0.459298,-0.0506 1.795575,-0.17438 2.969494,-0.27508 z M 131.4606,54.603808 c -2.44608,-1.006277 -4.06362,-2.271978 -5.31174,-4.156279 -1.33392,-2.013782 -1.80926,-3.746976 -1.78451,-6.505906 0.0165,-1.835609 0.21857,-2.661515 1.07854,-4.408396 4.08161,-8.290892 15.68176,-8.307043 19.75775,-0.02752 1.71813,3.489922 1.45136,7.705408 -0.69234,10.941817 -1.95237,2.947573 -5.63588,4.923005 -9.17972,4.923005 -1.32616,0 -2.6347,-0.259388 -3.86798,-0.766727 z"
       id="path1" />
  </g>
</svg>
