<?xml version="1.0" encoding="UTF-8" standalone="no"?>
<!-- Created with Inkscape (http://www.inkscape.org/) -->

<svg
   version="1.1"
   id="svg1"
   width="1368"
   height="1337.3333"
   viewBox="0 0 1368 1337.3333"
   sodipodi:docname="logo.svg"
   inkscape:version="1.3 (0e150ed6c4, 2023-07-21)"
   xmlns:inkscape="http://www.inkscape.org/namespaces/inkscape"
   xmlns:sodipodi="http://sodipodi.sourceforge.net/DTD/sodipodi-0.dtd"
   xmlns="http://www.w3.org/2000/svg"
   xmlns:svg="http://www.w3.org/2000/svg">
  <defs
     id="defs1">
    <filter
       style="color-interpolation-filters:sRGB;"
       inkscape:label="Drop Shadow"
       id="filter30"
       x="0"
       y="0"
       width="1.005849"
       height="1.0074892">
      <feFlood
         result="flood"
         in="SourceGraphic"
         flood-opacity="0.49564305197429187"
         flood-color="rgb(37,26,12)"
         id="feFlood29" />
      <feGaussianBlur
         result="blur"
         in="SourceGraphic"
         stdDeviation="0.000000"
         id="feGaussianBlur29" />
      <feOffset
         result="offset"
         in="blur"
         dx="4.000000"
         dy="5.000000"
         id="feOffset29" />
      <feComposite
         result="comp1"
         operator="in"
         in="flood"
         in2="offset"
         id="feComposite29" />
      <feComposite
         result="fbSourceGraphic"
         operator="over"
         in="SourceGraphic"
         id="feComposite30"
         in2="comp1" />
      <feColorMatrix
         result="fbSourceGraphicAlpha"
         in="fbSourceGraphic"
         values="0 0 0 -1 0 0 0 0 -1 0 0 0 0 -1 0 0 0 0 1 0"
         id="feColorMatrix30" />
      <feFlood
         id="feFlood30"
         result="flood"
         in="fbSourceGraphic"
         flood-opacity="0.250980"
         flood-color="rgb(37,26,12)" />
      <feGaussianBlur
         id="feGaussianBlur30"
         result="blur"
         in="fbSourceGraphic"
         stdDeviation="0.000000" />
      <feOffset
         id="feOffset30"
         result="offset"
         in="blur"
         dx="4.000000"
         dy="5.000000" />
      <feComposite
         id="feComposite31"
         result="comp1"
         operator="in"
         in="flood"
         in2="offset" />
      <feComposite
         id="feComposite32"
         result="comp2"
         operator="over"
         in="fbSourceGraphic"
         in2="comp1" />
    </filter>
  </defs>
  <sodipodi:namedview
     id="namedview1"
     pagecolor="#ffffff"
     bordercolor="#000000"
     borderopacity="0.25"
     inkscape:showpageshadow="2"
     inkscape:pageopacity="0.0"
     inkscape:pagecheckerboard="0"
     inkscape:deskcolor="#d1d1d1"
     inkscape:zoom="0.40871902"
     inkscape:cx="703.41723"
     inkscape:cy="663.0472"
     inkscape:window-width="1920"
     inkscape:window-height="1012"
     inkscape:window-x="0"
     inkscape:window-y="0"
     inkscape:window-maximized="1"
     inkscape:current-layer="g1"
     showgrid="true">
    <inkscape:grid
       id="grid32"
       units="px"
       originx="0"
       originy="0"
       spacingx="1"
       spacingy="1"
       empcolor="#0099e5"
       empopacity="0.30196078"
       color="#0099e5"
       opacity="0.14901961"
       empspacing="5"
       dotted="false"
       gridanglex="30"
       gridanglez="30"
       visible="true" />
  </sodipodi:namedview>
  <g
     inkscape:groupmode="layer"
     inkscape:label="Image"
     id="g1">
    <path
       style="fill:#fbeae0;fill-opacity:1;filter:url(#filter30)"
       d="m 653.13923,1337.6098 c -0.48889,-0.4889 -0.88889,-3.2489 -0.88889,-6.1333 0,-4.2208 0.87025,-6.0642 4.45861,-9.4444 2.45224,-2.31 6.50224,-5.4124 9,-6.8943 3.54723,-2.1044 4.54139,-3.5638 4.54139,-6.6666 v -3.9725 l -12.66666,-0.1093 c -11.84558,-0.1023 -13.27168,0.1879 -22,4.4766 -5.13334,2.5222 -12.50118,6.9544 -16.373,9.8491 -7.73262,5.7813 -13.67575,8.2512 -23.27533,9.6729 -5.62884,0.8337 -6.67916,0.5711 -9.66667,-2.4164 -1.84342,-1.8434 -3.35167,-3.9325 -3.35167,-4.6425 0,-0.71 3.3,-4.1101 7.33333,-7.5559 5.52939,-4.7239 7.33334,-7.1502 7.33334,-9.8631 0,-3.58 -0.0709,-3.6062 -14.20978,-5.2497 l -14.20977,-1.6518 -16.12356,4.8409 c -8.86796,2.6625 -18.824,6.0303 -22.12454,7.484 -4.44259,1.9567 -8.25137,2.5377 -14.66667,2.2375 l -8.66568,-0.4056 -0.40719,-6.353 c -0.3798,-5.9256 -0.1243,-6.5086 3.79798,-8.6666 5.82547,-3.2052 10.60921,-6.9546 10.60921,-8.3153 0,-2.6107 -4.49868,-5.3318 -8.81503,-5.3318 -2.5435,0 -6.85064,-1.1196 -9.57142,-2.4881 -9.22026,-4.6375 -18.35103,-6.2456 -24.65826,-4.343 -3.09208,0.9328 -8.92196,2.1707 -12.95529,2.751 -4.03334,0.5802 -10.33334,2.0183 -14,3.1958 -16.41718,5.2718 -19.78894,5.9784 -22.89418,4.7978 -4.83474,-1.8381 -6.38821,-6.5255 -4.03179,-12.1652 2.86575,-6.8587 11.63466,-10.7552 25.88763,-11.5033 10.31641,-0.5415 11.12606,-0.7969 11.86558,-3.7434 1.16274,-4.6327 -0.14795,-6.8486 -5.33219,-9.0147 -2.54153,-1.062 -5.65666,-3.6309 -6.92249,-5.7088 -1.26584,-2.078 -4.00212,-6.2617 -6.08063,-9.2972 -6.10901,-8.9219 -6.8988,-12.074 -3.80136,-15.1715 1.68842,-1.6884 4.43551,-2.6427 7.60724,-2.6427 4.31667,0 5.92932,1.0139 12.3585,7.7704 4.06671,4.2736 9.40905,11.6236 11.87185,16.3333 10.99091,21.018 17.63581,27.761 30.11206,30.557 3.45072,0.7734 9.06356,2.891 12.47297,4.706 6.97514,3.7132 9.90093,4.0944 12.00108,1.5639 2.22475,-2.6806 0.2861,-7.4941 -3.88755,-9.6524 -4.12761,-2.1345 -11.89339,-12.5035 -11.89339,-15.8804 0,-3.0458 5.69798,-5.2096 11.06646,-4.2025 5.60462,1.0514 25.84259,15.4015 28.96738,20.5398 1.24168,2.0418 3.79653,4.7207 5.67743,5.9531 1.8809,1.2324 3.76792,3.3067 4.19338,4.6096 1.22885,3.7631 8.58406,7.586 19.87947,10.3325 10.83933,2.6357 14.41929,2.1005 15.28376,-2.2847 0.22067,-1.1194 -2.64615,-5.5177 -6.37072,-9.774 -7.17572,-8.2001 -8.81585,-11.9276 -7.51998,-17.0908 0.99507,-3.9647 5.58359,-5.2558 12.86465,-3.6199 6.92438,1.5558 13.58762,5.978 24.94162,16.5528 17.85262,16.6275 36.11232,25.5854 50.28684,24.67 9.46019,-0.611 10.76172,-3.5477 4.45374,-10.0489 -6.46223,-6.6603 -9.20853,-16.5178 -5.68619,-20.41 5.15036,-5.691 15.06218,-2.3874 26.44376,8.8139 4.03933,3.9754 8.02346,7.228 8.85361,7.228 0.83016,0 3.41935,1.4314 5.75375,3.181 7.16014,5.3663 15.22165,8.819 20.59126,8.819 2.81588,0 5.79432,0.6745 6.61876,1.4989 1.10976,1.1098 2.61552,1.1098 5.79897,0 2.36499,-0.8244 8.14846,-1.4989 12.85216,-1.4989 h 8.55218 l -0.41781,-4.3334 c -0.36773,-3.8139 -0.9689,-4.4132 -5.01507,-5 -9.0522,-1.3127 -12.13507,-13.2746 -4.68009,-18.1593 3.13924,-2.0569 3.87368,-2.0201 11.83273,0.5927 4.66715,1.5321 13.80149,5.3614 20.29851,8.5095 11.55176,5.5973 12.10739,5.7224 25.14611,5.662 20.7687,-0.096 34.81995,-5.5123 33.74865,-13.0083 -0.33975,-2.3773 -1.60491,-3.0754 -6.95306,-3.8367 -6.73382,-0.9585 -8.20723,-2.1215 -9.67038,-7.6329 -1.34,-5.0475 1.11602,-7.3499 9.23911,-8.6613 6.68942,-1.0799 8.75915,-0.7549 20.5374,3.225 18.68154,6.3126 35.03423,7.0537 46.75843,2.119 4.54274,-1.912 9.08124,-3.4763 10.08564,-3.4763 1.0044,0 2.5002,-1.4794 3.3241,-3.2876 1.8844,-4.136 -0.8544,-7.3791 -6.2318,-7.3791 -5.08217,0 -6.83809,-2.2874 -6.83809,-8.9079 0,-7.0848 1.70988,-7.6992 18.30689,-6.5781 6.4312,0.4344 19.3512,1.1677 28.7112,1.6295 l 17.018,0.8396 12.7336,-6.1957 c 11.5413,-5.6156 12.6944,-6.5117 12.3152,-9.5704 -0.3389,-2.7343 -1.9143,-3.9808 -8.3021,-6.5686 -8.6359,-3.4986 -10.0652,-4.9297 -10.0957,-10.1084 -0.026,-4.4347 3.2646,-7.2483 9.9796,-8.5325 7.0388,-1.3462 9.9904,-1.2515 22.66663,0.7272 11.2429,1.7549 14.3103,1.8064 29.3255,0.492 8.3765,-0.7333 10.4426,-1.5445 20.3012,-7.9707 6.0366,-3.9348 12.9401,-8.1483 15.3411,-9.3632 2.4011,-1.2149 6.6653,-4.5664 9.4761,-7.4477 7.5196,-7.7084 5.8215,-8.7545 -13.0393,-8.0325 l -15.3439,0.5873 -1.3307,-3.5 c -1.6069,-4.2265 -0.2001,-8.4292 4.1285,-12.3333 5.7903,-5.2224 8.5716,-5.8326 26.7205,-5.8626 14.4498,-0.024 18.7758,-0.4931 23.2423,-2.5214 3.0184,-1.3707 7.5184,-2.9315 10,-3.4684 10.7126,-2.3175 30.5216,-16.6425 38.1787,-27.609 5.1195,-7.3322 2.5177,-15.0946 -3.383,-10.0929 -3.7802,3.2043 -13.9904,6.3884 -19.6417,6.1254 -2.9197,-0.1359 -6.3181,0.2162 -7.5518,0.7824 -1.6733,0.7678 -2.7255,0.07 -4.1414,-2.7454 -1.9812,-3.9396 -1.2355,-9.5493 1.7469,-13.1429 2.3292,-2.8066 14.8401,-7.0988 25.5227,-8.7563 8.1592,-1.2659 29.275,-8.5213 39.6634,-13.6283 1.7683,-0.8693 6.2683,-6.0338 10,-11.4767 3.7317,-5.4428 9.6832,-13.7342 13.2257,-18.4251 3.6006,-4.7681 6.1178,-9.3704 5.7085,-10.4372 -1.0495,-2.7349 -8.4192,-2.3723 -12.623,0.6211 -3.6795,2.62 -6.6798,3.2029 -15.193,2.9516 l -5,-0.1476 v -7.9789 c 0,-11.7233 3.453,-15.071 20,-19.39009 12.3323,-3.2189 33.9542,-12.9021 39.3449,-17.6203 4.8872,-4.2775 8.6551,-9.9965 8.6551,-13.1367 0,-1.9051 2.0556,-5.0017 5.3334,-8.0344 5.8424,-5.4057 6.7316,-8.9974 2.7543,-11.126 -4.2578,-2.2787 -5.813,-1.6713 -13.3367,5.2094 l -7.2055,6.5895 -4.724,-1.9737 c -6.2044,-2.5924 -9.0103,-5.2498 -10.7192,-10.1519 -1.2761,-3.6606 -0.9971,-4.4254 3.1147,-8.5372 2.484,-2.484 5.8337,-4.5163 7.4439,-4.5163 1.6101,0 4.5201,-1.1314 6.4666,-2.5142 1.9466,-1.3827 7.4392,-4.133 12.2059,-6.1117 4.7666,-1.9787 13.0585,-6.3973 18.4263,-9.8192 9.572,-6.1019 9.899,-6.4969 17,-20.5327 3.9821,-7.8711 7.2402,-15.1857 7.2402,-16.2547 0,-3.6126 -2.6036,-3.5835 -8.888,0.099 -4.6675,2.7354 -8.0908,3.6846 -13.4651,3.7338 -6.284,0.058 -7.6184,-0.4128 -10.4265,-3.675 -1.7712,-2.0576 -3.2203,-4.3521 -3.2203,-5.099 0,-3.5124 15.3807,-17.1366 25.4862,-22.5756 5.9315,-3.1925 14.2269,-9.13 18.4341,-13.1945 6.8074,-6.5762 7.7373,-8.1239 8.4465,-14.0566 0.4382,-3.6666 2.1068,-9.7968 3.7078,-13.6227 1.6011,-3.8258 2.5581,-7.8758 2.1267,-9 -1.0866,-2.8315 -5.1926,-2.5545 -9.2319,0.6227 -2.1248,1.6715 -5.409,2.6667 -8.7995,2.6667 -6.9613,0 -8.6645,-2.9277 -7.8946,-13.5706 0.5444,-7.5264 0.9137,-8.2197 8.6027,-16.1467 7.223,-7.4467 22.4702,-25.7366 24.9415,-29.9189 0.5317,-0.8999 1.8599,-7.1583 2.9516,-13.9077 1.7838,-11.0289 1.7752,-12.4812 -0.085,-14.3412 -2.6711,-2.6711 -5.5827,-0.9369 -8.8771,5.2872 -3.5243,6.6586 -8.5751,10.6014 -13.5502,10.5775 -6.81,-0.033 -7.7845,-1.3762 -7.8389,-10.8079 -0.059,-10.2879 1.9623,-15.488 9.7861,-25.1717 7.1175,-8.8095 21.4629,-28.8232 23.6389,-32.9792 0.8579,-1.6386 1.8892,-5.5386 2.2916,-8.6667 2.1792,-16.9376 2.2052,-16.298 -0.7715,-18.9919 -3.7444,-3.3886 -6.2642,-1.8314 -10.923,6.7506 -4.1212,7.5915 -7.6077,9.8402 -15.2995,9.8676 -6.0847,0.022 -7.1427,-1.2506 -7.1427,-8.5885 0,-7.3008 3.6104,-15.2672 13.5431,-29.8836 13.2105,-19.4397 16.2488,-26.4606 15.2475,-35.2338 -0.4357,-3.8176 -1.1584,-11.3101 -1.6059,-16.65 -0.7562,-9.023 -1.0886,-9.8511 -4.705,-11.7212 -4.6518,-2.4055 -6.4797,-1.5787 -6.4797,2.9311 0,4.7343 -6.0619,12.0926 -11.4185,13.8604 -6.9803,2.3037 -9.6265,0.8048 -10.652,-6.0338 -1.0458,-6.9739 2.1811,-17.6269 10.9033,-35.9943 8.7984,-18.5281 8.7951,-18.5142 6.4491,-27.1047 -1.1358,-4.1591 -2.6119,-8.5608 -3.2804,-9.7816 -0.8334,-1.522 -0.6109,-2.7213 0.7079,-3.8158 3.0242,-2.5098 5.6916,-0.5697 7.2685,5.2867 1.1338,4.2103 2.2423,5.5785 5.0699,6.2572 9.539,2.2896 28.3532,20.8849 35.1978,34.7882 3.6789,7.473 4.0258,9.1853 3.2307,15.9497 -1.0199,8.6784 -2.5211,11.087 -6.9101,11.087 -3.6695,0 -9.8995,-2.6305 -9.8995,-4.1798 0,-0.5968 -1.8108,-2.0215 -4.024,-3.166 -3.6817,-1.9038 -4.0955,-1.8943 -4.8654,0.112 -1.8786,4.8956 0.503,21.374 4.0924,28.315 1.1232,2.1721 5.9091,7.3442 10.6354,11.4936 7.9844,7.01 8.9767,8.5221 14.0054,21.3424 8.1256,20.7159 9.6584,28.852 6.3005,33.4443 -1.3943,1.9067 -2.3061,2.1791 -3.6667,1.0952 -0.996,-0.7934 -3.9884,-2.1433 -6.6497,-2.9998 -2.6613,-0.8565 -5.9043,-2.7347 -7.2067,-4.1738 -1.3023,-1.4391 -3.3548,-2.6165 -4.5612,-2.6165 -4.2786,0 -5.3933,2.9825 -5.3933,14.4301 v 11.2301 l 8.1805,8.745 c 5.2024,5.5614 9.9172,12.402 12.9509,18.7901 4.1484,8.7352 4.8399,11.6341 5.3034,22.2312 0.5927,13.5516 -0.7568,17.9069 -5.5484,17.9069 -1.6609,0 -3.6394,0.6196 -4.3968,1.377 -3.112,3.112 -9.823,-4.0061 -9.823,-10.4189 0,-1.3791 -1.4795,-3.2994 -3.2878,-4.2672 -5.9052,-3.1603 -7.3797,-0.2661 -7.373,14.4723 0.01,13.5052 0.3424,14.8183 10.6281,41.5034 2.8942,7.5087 4.7332,15.158 5.4494,22.6667 0.5945,6.2333 1.269,12.7539 1.4988,14.4901 0.6383,4.8221 -5.3117,8.7742 -11.4703,7.6188 -3.7242,-0.6986 -5.2025,-1.8529 -6.6223,-5.1708 -1.0053,-2.3493 -3.68,-6.0129 -5.9438,-8.1414 -5.4934,-5.165 -8.2124,-3.1739 -8.2124,6.0141 0,3.5663 -0.7361,9.2363 -1.6357,12.5998 -1.4206,5.3116 -1.3329,6.6431 0.6667,10.1272 1.2663,2.2064 2.3023,6.2338 2.3023,8.9498 0,4.8897 3.4709,16.502 7.6256,25.5124 3.511,7.6143 7.02,20.321 7.0309,25.46 0.014,6.591 -3.8352,9.8733 -11.5786,9.8733 -4.894,0 -6.5578,-0.6771 -9.1933,-3.741 -2.6764,-3.1115 -3.2179,-5.1763 -3.2179,-12.2706 0,-12.388 -3.5897,-18.6358 -7.7955,-13.5681 -2.0713,2.4957 -9.5378,25.8355 -9.5378,29.8144 0,3.6675 3.181,17.7404 6.1254,27.0986 1.0896,3.4633 1.885,11.4768 1.8812,18.9536 -0.01,12.5836 -0.1248,13.0883 -4.1448,17.6667 -2.2759,2.5922 -5.1829,4.7131 -6.46,4.7131 -5.6842,0 -9.8211,-10.5129 -9.9688,-25.3334 l -0.1,-10 -3.8069,0.2703 c -5.1055,0.3624 -6.3631,2.3142 -14.0004,21.7297 -4.8476,12.3236 -6.9769,19.9675 -8.1709,29.3334 -0.8881,6.9666 -2.1587,16.26659 -2.8236,20.66669 -0.6648,4.4 -1.7841,13.0917 -2.4873,19.315 -1.3809,12.2223 -2.9616,14.685 -9.4257,14.685 -5.4827,0 -7.9518,-3.7794 -7.9518,-12.1717 0,-7.9239 -1.5297,-10.495 -6.2442,-10.495 -2.334,0 -3.8698,1.633 -6.5835,7 -1.9466,3.85 -6.0873,10.3 -9.2014,14.3333 -3.1142,4.0334 -6.2785,8.5448 -7.0319,10.0254 -2.7102,5.3263 -6.6368,18.7796 -7.4985,25.6914 -0.4834,3.8776 -2.0475,10.7776 -3.4758,15.3334 -1.4283,4.5557 -2.6047,9.946 -2.6141,11.9784 -0.025,5.4268 -6.1658,13.9791 -10.7617,14.9885 -6.1636,1.3538 -11.0606,-1.8142 -12.413,-8.0302 -0.6367,-2.9261 -1.3678,-6.0702 -1.6248,-6.9869 -0.7271,-2.5928 -6.9553,-1.9817 -8.4601,0.8301 -0.7349,1.3732 -7.0912,8.7232 -14.1251,16.3333 -11.8044,12.7716 -12.7369,14.1764 -12.1147,18.2511 0.4878,3.1939 -0.5437,7.087 -3.7305,14.0801 -2.4226,5.316 -5.4247,12.7362 -6.6712,16.4892 -1.2466,3.753 -4.0364,9.267 -6.1997,12.2533 -4.8771,6.7327 -10.024,7.3541 -15.1474,1.8288 -3.0196,-3.2565 -3.2616,-4.3404 -2.5307,-11.3334 1.0299,-9.8538 -0.4252,-10.0185 -11.8344,-1.3398 -4.6222,3.5159 -12.1592,9.2628 -16.7489,12.7709 -13.1641,10.0615 -19.7331,20.7479 -24.4812,39.8255 -4.8274,19.396 -8.6545,23.8481 -18.7625,21.8265 -6.486,-1.2972 -7.7447,-3.0814 -7.7447,-10.9788 0,-5.3923 0.6612,-7.8313 2.6667,-9.8368 1.4667,-1.4666 2.6667,-3.8666 2.6667,-5.3333 0,-4.0158 -8.7372,-3.6988 -13.2604,0.481 -1.8735,1.7313 -6.6327,4.2773 -10.576,5.6578 -9.10113,3.1862 -23.20553,15.4507 -28.74063,24.9915 -12.241,21.0996 -13.0124,22.1318 -19.5391,26.1478 -8.4156,5.1781 -15.44,5.4522 -19.8352,0.7738 l -3.0827,-3.2815 4.2591,-4.8508 c 8.1733,-9.3089 3.0298,-14.1 -8.7816,-8.1799 -3.5439,1.7763 -8.8435,3.9987 -11.7768,4.9388 -2.9334,0.9401 -6.76428,2.822 -8.51317,4.1821 -1.7489,1.36 -4.22543,2.4727 -5.50341,2.4727 -1.27798,0 -3.01457,0.8326 -3.85909,1.8502 -0.84452,1.0176 -5.26798,3.6921 -9.82992,5.9434 -4.56194,2.2513 -9.19444,4.8747 -10.29444,5.8297 -4.08447,3.5461 -13.33333,15.5842 -13.33333,17.3544 0,4.7444 -18.61489,17.0223 -25.80796,17.0223 -1.77647,0 -4.51587,-1.05 -6.08756,-2.3333 -2.77665,-2.2672 -2.79695,-2.5105 -0.7165,-8.5861 1.52012,-4.4392 3.80333,-7.5288 7.87223,-10.6524 3.15212,-2.4198 6.96949,-6.2888 8.48304,-8.5977 l 2.75191,-4.1981 -3.89952,-0.7799 c -2.62294,-0.5246 -5.35884,0.081 -8.35726,1.8502 -2.45176,1.4466 -8.00839,3.3303 -12.34806,4.1861 -4.33968,0.8557 -11.69015,3.5558 -16.33439,6.0002 -4.64424,2.4444 -9.74424,4.4575 -11.33333,4.4736 -5.18679,0.053 -14.61193,5.2789 -19.2123,10.6534 -2.47747,2.8944 -9.48567,9.6943 -15.57377,15.111 -9.43159,8.3914 -12.01175,9.9898 -17.43952,10.8038 -5.40362,0.8103 -6.78157,0.5439 -9.08099,-1.7555 -2.45833,-2.4583 -2.55793,-3.2208 -1.06964,-8.1883 0.90261,-3.0127 3.73118,-7.6922 6.2857,-10.3989 3.20902,-3.4003 4.52457,-5.9439 4.25626,-8.2295 -0.38357,-3.2675 -0.52755,-3.3033 -11.72167,-2.9153 -15.17025,0.5259 -20.53034,2.1172 -27.12085,8.0517 -9.99264,8.998 -17.43562,14.5572 -26.8756,20.0736 -8.11719,4.7434 -10.32471,5.4314 -17.42684,5.4314 -4.47275,0 -8.53227,-0.4 -9.02116,-0.8889 z m 530.64557,-237.1111 c 0.6776,-2.1402 -1.7655,-5.0933 -3.3854,-4.0921 -2.4262,1.4995 -1.8127,6.3517 0.7404,5.8566 1.2226,-0.2371 2.4129,-1.0311 2.645,-1.7645 z m -756.20112,149.0859 c -2.93334,-1.0936 -8.66067,-3.487 -12.72741,-5.3187 -6.39174,-2.8788 -8.74144,-3.2417 -17.33334,-2.6767 -5.46659,0.3595 -14.00434,1.3383 -18.97277,2.1751 -4.96844,0.8368 -13.06844,1.3443 -18,1.1279 l -8.96648,-0.3935 -0.41271,-4.9812 c -0.32155,-3.8811 0.32762,-5.7216 2.9394,-8.3333 1.84365,-1.8437 4.53029,-3.3521 5.97032,-3.3521 6.73037,0 8.79971,-3.6205 4.67461,-8.1787 -3.03368,-3.3522 -1.40269,-6.488 3.37451,-6.488 2.17973,0 4.30619,-0.555 4.72545,-1.2334 0.87676,-1.4187 -1.87895,-8.0999 -3.34083,-8.0999 -1.2728,0 -4.66988,-8.7 -5.76982,-14.7766 -0.67761,-3.7435 -0.31243,-5.2764 1.68834,-7.087 2.15434,-1.9497 3.37831,-2.0882 7.83888,-0.8871 6.17586,1.663 16.40722,11.819 19.82728,19.6812 7.2409,16.6457 13.48605,26.3612 17.83163,27.7405 1.4752,0.4682 3.52441,2.48 4.55381,4.4706 1.02939,1.9906 3.57281,4.4765 5.65204,5.5241 2.07923,1.0477 5.37304,2.9764 7.31958,4.2862 1.94654,1.3098 4.34654,2.4002 5.33333,2.4233 0.9868,0.023 2.87219,1.523 4.18976,3.3333 2.39397,3.2892 2.39307,3.2914 -1.33334,3.1619 -2.0509,-0.071 -6.12891,-1.0243 -9.06224,-2.1179 z m -148.85099,-51.6983 c -1.35981,-2.2298 -2.47462,-5.3614 -2.47736,-6.959 -0.009,-5.1803 7.54695,-10.3268 13.04894,-8.888 3.65492,0.9558 8.27941,-1.7492 8.27941,-4.8429 0,-1.5468 -3.26211,-5.0456 -8.33334,-8.938 -4.58333,-3.518 -9.76487,-8.0865 -11.51453,-10.1525 -1.74967,-2.0659 -7.41153,-5.8865 -12.58193,-8.4903 -8.82133,-4.4423 -10.76184,-4.856 -31.48546,-6.7114 -28.32183,-2.5357 -27.706,-2.3869 -30.78778,-7.4413 -3.38285,-5.5481 -3.3254,-9.6024 0.18581,-13.1136 2.37096,-2.371 4.01634,-2.7293 10.40884,-2.2669 4.17599,0.302 10.173,1.8258 13.32667,3.3861 6.58342,3.2572 9.44838,2.7421 9.44838,-1.6987 0,-3.8806 -32.99062,-39.5052 -39.4015,-42.5474 -2.38416,-1.1313 -6.34416,-2.0784 -8.8,-2.1045 -2.45584,-0.026 -8.06516,-0.9167 -12.46516,-1.9792 -4.4,-1.0624 -11.6,-1.9419 -16,-1.9545 -9.4006,-0.027 -16.36597,-3.0372 -19.30632,-8.3436 -1.88427,-3.4006 -1.8027,-4.0813 1.15827,-9.6667 l 3.18528,-6.0085 h 10.5476 c 6.89216,0 11.92448,0.712 14.52054,2.0545 2.18512,1.13 4.60394,1.6645 5.37515,1.1879 3.31866,-2.0511 -1.75372,-10.523 -22.91574,-38.2742 -2.95836,-3.8795 -8.29891,-7.1241 -15.15356,-9.2062 -10.82012,-3.2868 -24.19471,-6.4287 -27.36561,-6.4287 -4.56488,0 -19.468387,-5.03119 -21.245147,-7.17209 -2.10211,-2.5329 -2.17409,-17.7028 -0.0959,-20.2069 0.97233,-1.1716 3.55674,-3.0552 5.74315,-4.1858 3.4313,-1.7744 4.717867,-1.8106 9.402067,-0.2647 2.98474,0.985 8.73957,1.7997 12.7885,1.8103 6.52537,0.017 7.40814,-0.3066 7.77044,-2.8485 0.24607,-1.7265 -1.21314,-4.7149 -3.66667,-7.5094 -2.24147,-2.5528 -4.0754,-5.257 -4.0754,-6.0092 0,-3.7776 -7.93061,-15.8346 -14.16046,-21.5283 -7.149127,-6.5339 -13.641977,-8.9048 -31.827467,-11.6219 -6.99557,-1.0452 -13.25292,-6.9898 -15.38926,-14.6201 -1.46419,-5.2296 -1.38059,-6.1994 0.73601,-8.5382 4.89315,-5.4069 19.70881,-2.444 29.6211,5.9236 2.37229,2.0027 5.37229,3.4403 6.66667,3.1948 3.74646,-0.7106 3.70747,-7.2537 -0.0773,-12.9728 -1.81338,-2.7402 -5.27591,-9.7377 -7.69451,-15.5498 -5.67717,-13.643 -12.50183,-20.9008 -31.38093,-33.3726 -23.63445,-15.6133 -34.14436,-29.3441 -29.60992,-38.6841 1.65364,-3.4062 2.54523,-3.8358 7.82452,-3.7704 5.00928,0.062 7.30307,1.0994 14.40232,6.513 4.64426,3.5415 8.8005,7.4082 9.23608,8.5928 1.00127,2.7228 3.00629,4.1072 5.98649,4.1333 3.58095,0.031 2.93548,-5.3363 -2.33334,-19.4036 -3.3685,-8.9936 -4.66666,-14.6149 -4.66666,-20.2075 v -7.7479 l -23.82125,-24.2908 C 4.2228231,722.11891 2.1854031,718.97521 3.1535631,707.10531 l 0.43011,-5.2732 7.8062099,-0.4041 c 7.67222,-0.3971 7.8963,-0.3064 13.055,5.2815 2.88683,3.127 7.08213,9.6088 9.32288,14.404 2.24075,4.7952 4.62807,9.6186 5.30514,10.7186 0.67708,1.1 2.12704,3.95 3.22214,6.3333 2.1546,4.6892 4.66582,5.4936 7.28764,2.3345 1.27258,-1.5333 1.34025,-4.25 0.29061,-11.6666 -0.75253,-5.3174 -1.05355,-13.0902 -0.66893,-17.273 0.9097,-9.893 -0.0141,-13.1595 -5.13857,-18.1696 -3.16475,-3.0942 -3.86478,-4.5593 -2.79457,-5.8488 1.0818,-1.3035 -1.85831,-5.7763 -12.12982,-18.4533 -21.14063,-26.0915 -21.2964999,-26.3662 -21.7555799,-38.3348 -0.42346,-11.0398 1.2795799,-16.58 5.3367999,-17.3613 4.41464,-0.8502 8.94187,1.1452 10.21889,4.504 0.69493,1.8278 3.7195,6.5762 6.72127,10.5521 5.3819,7.1282 11.83796,22.5364 11.89277,28.3835 0.0155,1.65 1.26827,4.2401 2.78401,5.7559 2.19072,2.1907 3.14774,2.4306 4.66667,1.17 1.53282,-1.2721 1.91078,-6.4651 1.91078,-26.2533 v -24.6675 l -8.63523,-16.0141 c -4.74938,-8.8078 -9.69364,-19.6839 -10.98725,-24.1692 -2.79465,-9.6898 -3.05063,-25.0904 -0.51813,-31.1721 1.82617,-4.3855 6.51601,-6.8112 9.54702,-4.9379 2.49978,1.545 7.94682,15.0177 8.79767,21.7602 2.20606,17.4819 14.00156,15.5558 14.78469,-2.4142 0.17716,-4.0651 0.6676,-11.8911 1.08986,-17.3911 l 0.76775,-10 -9.52451,-14.413 c -11.62732,-17.5951 -13.32187,-21.4996 -13.32187,-30.6957 0,-5.9955 0.58579,-7.7802 3.51515,-10.7095 1.93333,-1.9334 3.92874,-3.5152 4.43425,-3.5152 1.85372,0 7.22035,6.7796 7.41058,9.3617 0.1078,1.4633 1.53252,4.0831 3.16604,5.8219 1.63351,1.7388 4.17184,7.1674 5.64072,12.0636 1.46887,4.8961 3.56279,9.2444 4.65314,9.6628 2.67999,1.0284 8.09781,-4.2837 8.85407,-8.6813 0.33691,-1.9591 1.95738,-8.362 3.60105,-14.2287 4.0886,-14.5932 3.24495,-25.0484 -3.02767,-37.5218 -8.30541,-16.5156 -13.42832,-40.7986 -10.23406,-48.5102 3.09481,-7.4715 14.5171,-6.6928 16.11056,1.0983 0.47247,2.3102 1.75158,5.5653 2.84247,7.2337 2.44832,3.7444 6.36703,19.0247 6.36703,24.8271 0,5.0096 2.647807,6.5837 7.418357,4.4101 2.14077,-0.9754 3.24831,-2.5811 3.24831,-4.7095 0,-1.7763 1.49414,-6.4391 3.32031,-10.3619 1.90167,-4.0851 3.32587,-9.5797 3.33333,-12.8602 0.008,-3.5299 1.29208,-8.1304 3.34636,-11.9894 3.65154,-6.8594 4.137,-11.4526 1.81743,-17.196 -1.7804,-4.4084 -3.41654,-12.158 -5.2965,-25.0868 -1.40113,-9.63586 0.1863,-23.45745 3.10099,-27.00003 2.56912,-3.12256 8.58918,-1.92636 12.25994,2.4361 4.74955,5.64451 5.35448,9.15399 3.33188,19.32967 -1.89786,9.54806 -0.98993,12.92586 3.66266,13.62626 3.53955,0.5328 5.68244,-2.1858 13.91637,-17.65533 8.19652,-15.39927 8.4206,-17.51453 4.73911,-44.7367 -2.68213,-19.83257 -2.02888,-26.38622 3.122,-31.32108 3.55833,-3.40909 3.8936,-3.47569 7.6689,-1.52342 6.31392,3.26506 8.90306,8.38369 8.67276,17.14571 -0.11036,4.199 -0.88974,8.9221 -1.73195,10.49578 -1.26279,2.35954 -1.07731,3.31522 1.05784,5.45036 2.56328,2.56328 2.65994,2.51175 9.68271,-5.16244 12.09506,-13.21698 11.98521,-12.87965 11.99088,-36.8217 0.009,-36.26514 5.44673,-51.59654 18.30165,-51.59654 11.98734,0 13.01123,13.73311 2.71241,36.38076 -2.89091,6.35727 -3.69515,9.4665 -2.7048,10.45685 2.14976,2.14976 6.1423,-0.54714 16.73108,-11.30158 10.58659,-10.75224 16.43063,-21.44621 17.51651,-32.05339 0.38377,-3.74878 1.36329,-14.01597 2.17672,-22.81597 0.81343,-8.8 2.37119,-18.82202 3.46169,-22.27116 2.45674,-7.77038 9.79049,-14.73758 14.88173,-14.13793 3.20395,0.37737 3.62133,1.19698 5.38174,10.56814 2.33095,12.40831 1.54458,17.11972 -4.54546,27.23322 -4.84931,8.05309 -5.3539,13.94106 -1.19472,13.94106 2.71927,0 21.6775,-19.07642 26.61976,-26.78573 2.2,-3.43172 5.13504,-7.83328 6.52231,-9.78125 1.38727,-1.94797 2.97516,-5.7673 3.52864,-8.48739 2.62437,-12.89753 8.30842,-33.087 10.54027,-37.43852 2.75073,-5.36321 7.6676,-10.39875 10.74212,-11.00138 4.17187,-0.81771 9.4473,1.62046 10.71382,4.95165 1.9037,5.00709 1.56142,14.6362 -0.71382,20.08162 -3.09496,7.40728 -2.65699,9.79434 1.79704,9.79434 2.88675,0 5.54806,-1.83797 11.10102,-7.66666 7.41364,-7.78177 9.19896,-11.41247 14.31301,-29.10751 1.67777,-5.80524 4.53226,-11.710006 7.41244,-15.333336 2.57616,-3.24087 4.68976,-6.53023 4.69688,-7.3097 0.007,-0.77946 1.69577,-3.02946 3.75257,-5 2.8265,-2.70796 5.08624,-3.58279 9.25464,-3.58279 6.51263,0 7.37641,1.04832 7.22153,8.76435 -0.13314,6.63289 -3.69042,14.40964 -8.75271,19.134736 -3.55244,3.31581 -4.51023,7.29637 -2.11224,8.77841 2.47293,1.52835 15.25893,-3.18941 19.31582,-7.12713 11.30949,-10.977296 21.38652,-25.086946 32.39038,-45.352346 5.37391,-9.89695 10.4643,-12.89934 20.04015,-11.82001 9.04869,1.01992 10.16935,2.90159 7.29241,12.24451 -1.52739,4.96025 -3.53777,8.50513 -5.58369,9.84567 -1.75833,1.1521 -4.89342,4.43661 -6.96685,7.2989 -2.86738,3.9583 -3.46399,5.77573 -2.49213,7.59167 1.20247,2.24683 1.87686,2.164 11.44589,-1.40582 18.56746,-6.92678 26.78896,-13.92448 40.04526,-34.08436 12.65173,-19.24046 20.44107,-25.65784 31.71584,-26.12964 9.48712,-0.397 12.01701,1.96576 10.98688,10.26107 -0.56298,4.53356 -2.02467,6.57521 -9.74738,13.61488 -4.9968,4.55485 -10.23319,8.45485 -11.63642,8.66666 -4.19372,0.63304 -5.86503,4.58186 -3.10668,7.34021 2.22905,2.22905 2.97207,2.12397 15.88188,-2.24611 7.44888,-2.52151 14.86316,-4.47534 16.47617,-4.34185 4.04391,0.33469 18.90434,-9.52682 21.66367,-14.37619 1.24371,-2.18574 2.76058,-3.97787 3.37084,-3.98251 0.61026,-0.005 6.31026,-4.98516 12.66667,-11.06784 19.78648,-18.9343896 24.24135,-21.0912796 33.58379,-16.26012 12.21479,6.31651 6.61495,20.53905 -9.98713,25.3654 -7.58127,2.20393 -9.55154,4.54995 -7.32119,8.71739 1.62442,3.03526 7.77175,3.37837 18.76632,1.04744 3.95009,-0.83744 9.28198,-1.66048 11.84865,-1.82897 10.10237,-0.66318 21.67774,-7.68449 35.79272,-21.71091 15.87043,-15.7708596 23.07753,-19.9571796 30.27088,-17.5831596 4.72851,1.56055 7.26973,5.2763696 7.26973,10.6299096 0,3.17041 -7.05447,10.25003 -12.47877,12.52326 -6.85658,2.87347 -12.85456,8.67481 -12.85456,12.43313 0,2.98971 0.41401,3.27618 3.66667,2.53715 16.24262,-3.69044 19.38214,-3.95504 28.45895,-2.39854 5.09146,0.87309 11.36688,1.58743 13.94538,1.58743 4.79737,0 16.50646,-5.98388 34.92079,-17.84613 17.08272,-11.00444 19.59479,-11.90367 28.74919,-10.29115 4.43929,0.78196 8.55446,2.18275 9.14481,3.11285 1.34311,2.11607 1.41164,13.18666 0.0938,15.15193 -0.53877,0.80346 -2.77958,2.3079 -4.97958,3.34319 -2.83907,1.33603 -4.127,2.99082 -4.43757,5.70159 -0.61848,5.39825 1.18285,6.54073 9.99242,6.33764 4.25332,-0.0981 9.72776,0.47995 12.16541,1.28445 3.91955,1.29357 5.00709,1.06425 9.40423,-1.98297 2.73467,-1.89513 7.9138,-4.44802 11.50917,-5.67309 3.59538,-1.22506 8.61161,-3.63523 11.14719,-5.35592 6.78302,-4.60308 16.71923,-7.11599 28.12782,-7.11365 11.89414,0.002 18.73345,2.75391 20.66096,8.31192 1.05629,3.04585 0.72883,4.22111 -1.98571,7.12669 -4.06565,4.35178 -8.42802,6.59945 -15.18857,7.82577 -7.32585,1.32886 -14.42589,5.19647 -18.56096,10.11072 -1.92558,2.28842 -3.50106,4.61186 -3.50106,5.1632 0,0.55134 1.87083,3.82687 4.15739,7.27894 4.85857,7.33511 6.62295,20.36393 3.54541,26.180686 -1.84941,3.49551 -7.70206,4.95856 -13.75677,3.43892 -4.11318,-1.03234 -10.77618,-11.490056 -14.0274,-22.016286 -6.17727,-19.99967 -12.8099,-25.94108 -30.58529,-27.39786 -18.32969,-1.50221 -18.92504,-1.48043 -20.34924,0.74439 -1.02533,1.6017 -0.19128,3.78101 3.50167,9.14961 5.4975,7.99196 6.32554,14.33038 2.34295,17.93458 -2.18809,1.98019 -3.30837,2.06426 -8.86432,0.66526 -5.18914,-1.30664 -8.5505,-3.71045 -18.26241,-13.06 -17.81273,-17.14814 -23.4088,-20.22819 -39.67778,-21.83847 -10.32389,-1.02184 -13.76625,-0.9408 -15.33487,0.36104 -3.08953,2.56409 -2.4571,5.21475 2.57251,10.78193 4.16107,4.60581 4.47598,5.50198 3.33334,9.48614 -0.69402,2.41989 -1.26185,4.56862 -1.26185,4.77495 0,0.20632 -1.5801,0.97588 -3.51133,1.71014 -4.51317,1.7159 -16.4188,-0.40067 -23.75432,-4.22302 -2.97057,-1.54789 -9.00103,-5.65715 -13.40103,-9.13169 -14.95944,-11.81301 -18.84355,-13.89193 -22.98567,-12.30279 -2.02455,0.77673 -8.931,1.80606 -15.34766,2.28739 l -11.66667,0.87515 v 3.94835 c 0,3.2251 0.8252,4.29313 4.50495,5.83063 6.97275,2.9134 8.61027,11.56721 3.16172,16.70867 -2.57493,2.42979 -4.22799,2.75545 -11.66667,2.29838 -8.32195,-0.51134 -9.31639,-0.97261 -25.00153,-11.59674 -13.13036,-8.89368 -17.05388,-10.93794 -20,-10.4205 -2.01583,0.35405 -9.81514,2.06476 -17.3318,3.80157 -13.39643,3.09539 -13.66667,3.23295 -13.66667,6.95653 0,2.99637 0.84485,4.11759 4,5.30853 3.73235,1.4088 4,1.97004 4,8.38759 0,8.4982 -1.44274,9.8223 -11.69884,10.73687 -7.17172,0.63952 -8.74304,0.26444 -17.0993,-4.08161 -5.06102,-2.63222 -10.8599,-6.10866 -12.8864,-7.72543 -2.84517,-2.26992 -5.27511,-2.89509 -10.66666,-2.74431 -11.84656,0.33132 -30.31547,8.25171 -30.31547,13.0008 0,0.99025 2.04047,3.06154 4.53437,4.60285 5.42203,3.350996 6.63889,5.942476 4.62285,9.845026 -4.49457,8.70039 -12.5053,9.93049 -28.59144,4.39042 -12.93064,-4.45332 -23.79368,-5.5929 -29.07096,-3.04966 -2.28882,1.10303 -6.73909,2.68823 -9.8895,3.52265 -3.86013,1.0224 -6.19995,2.55294 -7.17528,4.69354 -1.84034,4.03912 -0.59819,7.34646 2.75915,7.34646 3.44321,0 10.81081,6.28307 10.81081,9.21943 0,2.48704 -4.18673,6.84677 -8.91234,9.28061 -4.48417,2.3095 -18.20187,1.78289 -29.64146,-1.13789 -12.18503,-3.11112 -14.55109,-2.66721 -27.54037,5.16699 -4.98894,3.00897 -9.54327,5.47085 -10.12074,5.47085 -0.57747,0 -1.94309,1.72716 -3.03471,3.83812 -3.13644,6.06521 0.20855,8.16188 13.02128,8.16188 h 10.22834 l -0.0204,5 c -0.0232,5.68851 -0.85224,7.34146 -4.69526,9.36181 -2.42974,1.27736 -15.87853,1.95733 -30.61766,1.54802 -2.93333,-0.0815 -9.79074,0.26676 -15.23869,0.77382 -8.42557,0.78421 -10.46727,1.48385 -13.66667,4.68325 -2.06872,2.06872 -3.76131,5.00746 -3.76131,6.53054 0,2.51624 0.78307,2.76923 8.57143,2.76923 10.00455,0 12.76191,1.88646 12.76191,8.73117 0,5.45242 -3.20306,7.92254 -12,9.2541 -3.3,0.49951 -9.8132,2.05717 -14.47378,3.46146 -4.66058,1.4043 -10.66058,2.55552 -13.33334,2.55828 -11.40621,0.0118 -33.52622,16.10292 -33.52622,24.38857 v 3.97949 l 7.66666,-0.9868 c 15.34732,-1.97541 16.80474,-1.29768 16.66795,7.75095 -0.10268,6.79244 -1.91023,10.8517 -5.74635,12.90473 -2.72288,1.45725 -19.24596,4.34748 -34.04649,5.95545 -7.60599,0.82633 -8.80511,1.46197 -18.776,9.95288 -14.93525,12.71843 -20.33272,22.79637 -12.14096,22.66913 1.67302,-0.026 4.54185,-0.90472 6.37518,-1.95275 4.50881,-2.57747 15.97837,-2.53346 19.70333,0.0756 3.8742,2.7136 3.74858,6.81645 -0.39544,12.91492 -4.30273,6.33205 -6.52678,7.45106 -20.49821,10.31351 -6.33103,1.29709 -15.40317,3.86374 -20.16032,5.70365 -4.75714,1.83991 -9.65986,3.68189 -10.89492,4.09328 -3.19849,1.0654 -15.75444,19.3935 -15.75444,22.997 0,4.186 2.04787,4.4817 11.2361,1.622 13.06083,-4.065 18.09724,-1.4525 18.09724,9.3876 0,4.3641 -0.80829,5.9925 -4.64788,9.3637 -5.02395,4.4111 -15.6374,8.1699 -23.26079,8.2378 -2.6169,0.023 -5.92268,0.9233 -7.34617,2 -1.4235,1.0767 -4.1235,1.9576 -6,1.9576 -2.31424,10e-5 -4.69864,1.5748 -7.41183,4.895 -5.21366,6.38 -9.98456,14.0265 -9.99317,16.0164 -0.004,0.8679 -1.88075,4.5926 -4.1711,8.277 -2.31019,3.7163 -3.81294,7.6145 -3.37518,8.7552 0.94059,2.4512 6.33971,2.7228 8.6284,0.4341 1.9997,-1.9997 17.00404,-5.1808 19.649,-4.1659 3.00139,1.1518 2.61158,14.0902 -0.5096,16.9149 -1.34108,1.2136 -2.94384,2.2066 -3.56168,2.2066 -0.61785,0 -2.08266,0.8682 -3.25513,1.9292 -1.17247,1.0611 -9.01972,4.998 -17.43832,8.7487 -17.12749,7.6306 -19.98299,9.7978 -23.905907,18.1434 -3.24962,6.9133 -3.5153,12.8704 -0.679,15.2243 1.69768,1.409 3.07925,1.194 7.946207,-1.2367 4.27499,-2.135 7.41636,-2.767 11.45034,-2.3036 7.73356,0.8885 8.55142,2.0905 6.6283,9.7415 -2.09344,8.3286 -6.64755,14.1729 -14.45834,18.5546 -11.917867,6.6857 -24.333967,15.5183 -26.737637,19.0207 -1.32536,1.9312 -3.64785,7.2256 -5.16109,11.7655 -2.4338,7.3015 -2.52938,8.5711 -0.82811,11 2.52422,3.6038 4.71398,3.4639 9.5563,-0.6107 3.4438,-2.8977 4.44696,-3.1477 7.34102,-1.8291 1.84368,0.8401 4.73747,4.1387 6.43065,7.3304 l 3.078507,5.8031 -2.650567,4.9667 c -1.45781,2.7317 -4.45056,6.5971 -6.65056,8.5898 -19.55247,17.7103 -26.1082,24.6897 -28.10704,29.9236 -1.19734,3.1352 -1.78856,6.3288 -1.31382,7.097 0.47475,0.7681 -0.14706,3.3502 -1.38179,5.7379 -2.25093,4.3528 -3.07717,16.6954 -1.30914,19.5562 1.86427,3.0164 7.42225,1.6996 9.08512,-2.1525 0.87055,-2.0167 3.40769,-5.8142 5.63808,-8.4389 2.23039,-2.6248 4.65526,-5.7436 5.38859,-6.9308 1.1851,-1.9186 1.91279,-1.9533 6.54543,-0.312 16.091397,5.7011 13.13307,15.8974 -12.77603,44.0343 -5.73994,6.2335 -11.20253,13.7277 -13.11865,17.9976 -2.9764,6.6326 -3.28486,9.0476 -3.30034,25.838 -0.0149,16.2015 0.2752,18.7059 2.31626,19.9932 3.4853,2.1982 6.56037,-0.3505 9.66667,-8.0119 1.46666,-3.6174 5.31058,-9.7104 8.54204,-13.54 5.16024,-6.1153 6.48473,-6.9628 10.88148,-6.9628 3.95323,0 5.73208,0.8628 8.45795,4.1023 1.89852,2.2562 3.438677,5.1062 3.422577,6.3333 -0.094,7.1592 -12.460167,24.8697 -22.200497,31.7948 -3.53904,2.5162 -9.05483,7.5702 -12.25731,11.2311 -6.45755,7.3819 -6.64473,9.7599 -1.61414,20.5065 1.56757,3.3487 2.85594,10.1262 3.42779,18.032 0.50393,6.9666 1.53507,13.4166 2.29143,14.3333 2.04899,2.4833 7.66847,2.0476 8.5988,-0.6667 5.39453,-15.7385 12.14918,-24.3333 19.1236,-24.3333 6.327247,0 7.992937,2.9463 7.992937,14.1381 0,11.5528 -1.67189,16.2607 -9.839187,27.7061 -9.83836,13.7873 -12.39726,25.0899 -7.49913,33.1236 1.46393,2.401 2.66393,6.2922 2.66667,8.6469 0.006,5.0177 4.58772,10.0192 8.645997,9.4377 2.17822,-0.3121 2.85604,-1.7271 3.54971,-7.4106 1.19517,-9.7923 2.53503,-10.9751 12.43255,-10.9751 11.31373,0 12.93507,1.8796 12.83731,14.8826 -0.0883,11.7402 -1.25073,16.0956 -6.95893,26.0724 -3.70713,6.4794 -4.4267,9.2107 -4.9243,18.6912 -0.45341,8.6385 -0.13488,11.6116 1.4351,13.395 2.04266,2.3203 8.14813,16.2251 10.40514,23.6971 1.60687,5.3196 6.3211,10.3139 8.82762,9.3521 1.08509,-0.4164 2.52381,-0.7571 3.19717,-0.7571 0.67336,0 1.22428,-5.3105 1.22428,-11.801 0,-18.4939 2.77667,-22.8657 14.52276,-22.8657 8.32064,0 9.92972,2.9722 9.17863,16.9543 -0.54212,10.0918 -1.39518,13.4272 -6.16528,24.1055 -7.11278,15.9227 -7.2315,21.0244 -0.77386,33.25439 2.61924,4.9606 6.44447,10.8192 8.5005,13.0192 2.05604,2.2 4.56303,5.7387 5.57109,7.8639 1.00805,2.1251 3.09665,4.6911 4.64132,5.7021 2.44504,1.6004 3.18195,1.5317 5.69447,-0.5306 2.58702,-2.1234 2.71906,-2.8061 1.27463,-6.5906 -1.29162,-3.384 -1.24567,-5.3298 0.23154,-9.8058 2.20108,-6.6694 6.21021,-9.6416 12.22583,-9.0639 3.75786,0.3609 5.09313,1.5286 8.87142,7.7582 4.31078,7.1075 4.42877,7.6823 3.83197,18.6667 -0.33867,6.2333 -1.62082,14.7486 -2.84923,18.9228 -2.70056,9.1767 -1.34718,16.1052 4.4461,22.7613 2.06598,2.3737 4.95831,7.0558 6.42739,10.4046 1.46908,3.3488 6.35348,10.0253 10.85422,14.8366 4.50074,4.8113 8.18317,9.2898 8.18317,9.9523 0,0.6624 1.83392,1.8966 4.07537,2.7427 5.28922,1.9964 5.77267,0.7237 4.19574,-11.0461 -1.80606,-13.48 -1.54375,-13.9076 8.53215,-13.9076 8.48733,0 8.49437,0 12.17782,5.5604 3.37747,5.0955 3.74331,6.9069 4.37602,21.6667 0.57111,13.3227 1.32274,17.7313 4.34913,25.5092 3.3888,8.7093 4.56285,10.1602 15.91453,19.6667 11.54072,9.6648 18.38889,12.8692 18.37307,8.597 -0.003,-0.9166 -1.48916,-5.2666 -3.30169,-9.6666 -3.62057,-8.7891 -4.05394,-13.4434 -1.95537,-21 1.31383,-4.7309 1.68056,-5 6.81274,-5 4.56292,0 6.1499,0.7923 9.99484,4.99 2.51387,2.7445 6.34479,8.5403 8.51316,12.8796 3.28523,6.5743 3.94249,9.5093 3.94249,17.6052 0,8.698 0.48878,10.5496 4.66667,17.6781 4.46904,7.6252 5.923,13.9132 3.55548,15.3764 -0.61115,0.3777 -7.54768,0.1716 -15.41452,-0.4581 -7.86683,-0.6296 -16.2168,-0.649 -18.55548,-0.043 -2.33868,0.6059 -8.68733,1.3218 -14.10812,1.591 -9.75916,0.4846 -9.88025,0.4496 -12.32835,-3.5649 z m -54.89497,-64.2355 c 1.21461,-3.1652 -1.37894,-6.4854 -5.06603,-6.4854 -2.62214,0 -3.26217,0.7692 -3.60582,4.3333 -0.39006,4.0454 -0.14365,4.3334 3.70851,4.3334 2.59023,0 4.43792,-0.812 4.96334,-2.1813 z m 37.74596,-28.4265 c 0,-2.0692 -5.33245,-5.6779 -7.28368,-4.9291 -2.86386,1.0989 -2.65927,8.3821 0.28368,10.0986 1.80428,1.0523 2.86238,0.7315 4.66666,-1.4148 1.28334,-1.5266 2.33334,-3.2162 2.33334,-3.7547 z M 114.86391,987.22941 c 2.44577,-2.947 0.54719,-6.6678 -4.67232,-9.1568 -5.86364,-2.7962 -10.43489,-2.8589 -12.663447,-0.1736 -2.09504,2.5243 -0.54354,4.3078 7.369117,8.4708 6.28906,3.3088 7.8241,3.4412 9.96665,0.8596 z M 21.370133,716.65851 c 0.93265,-4.9126 -6.96893,-6.7633 -8.2333,-1.9284 -1.04868,4.0102 0.0983,5.3245 4.22803,4.8451 2.19613,-0.255 3.70913,-1.3568 4.00527,-2.9167 z m 2.61355,-74.4264 c 2.25881,-2.2588 1.98622,-5.9665 -0.50905,-6.924 -4.02283,-1.5437 -5.89095,-0.8279 -5.89095,2.2573 0,2.86 2.17445,6.2667 4,6.2667 0.44,0 1.52,-0.72 2.4,-1.6 z m 59.6606,-68.3394 c 3.77162,-3.7716 4.02046,-5.1135 1.35796,-7.3232 -3.68734,-3.0602 -11.09944,3.7348 -9.27113,8.4993 1.16124,3.0262 4.15599,2.5811 7.91317,-1.1761 z m 22.896327,-71.2578 c 3.87794,-5.7735 3.82439,-6.8028 -0.35393,-6.8028 -3.93612,0 -9.936337,5.8071 -9.936337,9.6166 0,4.3553 6.706677,2.5215 10.290267,-2.8138 z m 62.60057,-128.9062 c 0.96617,-2.5178 -2.68824,-6.5912 -4.76289,-5.309 -1.6101,0.9951 -1.97235,5.1236 -0.57239,6.5235 1.59758,1.5976 4.51065,0.9345 5.33528,-1.2145 z m 97.53378,-200.42389 c 0.40713,-4.14384 0.24653,-4.30444 -3.89731,-3.89732 -5.35893,0.5265 -6.22466,2.72727 -2.52731,6.42462 3.69736,3.69736 5.89812,2.83163 6.42462,-2.5273 z m 62.10076,-40.47269 c 1.99904,-3.19267 -0.51996,-7 -4.63131,-7 -3.43055,0 -6.84767,5.03414 -5.60872,8.2628 0.99771,2.59999 8.39239,1.68808 10.24003,-1.2628 z M 524.80716,43.410674 c 3.13138,-2.28972 2.22074,-6.79676 -1.48022,-7.32612 -3.76001,-0.5378 -6.7014,4.31986 -4.3392,7.16614 1.96022,2.36192 2.77736,2.38438 5.81942,0.15998 z m 263.91519,-15.84445 c 2.01953,-3.20163 0.0244,-6.40076 -3.99184,-6.40076 -4.52133,0 -8.48017,3.47664 -8.48017,7.44725 0,5.40622 8.87127,4.66185 12.47201,-1.04649 z M 614.2217,25.670294 c 3.52016,-3.52015 1.99585,-6.50483 -3.32208,-6.50483 -4.27074,0 -4.68329,0.35281 -5.06709,4.33334 -0.37038,3.84137 -0.0406,4.33333 2.90476,4.33333 1.82742,0 4.2954,-0.97283 5.48441,-2.16184 z M 446.91701,974.17471 c -4.03333,-0.7943 -7.7893,-2.0963 -8.3466,-2.8934 -1.30167,-1.8617 -0.32628,-6.0282 3.92353,-16.7599 2.38291,-6.0174 3.42307,-11.1662 3.42307,-16.9442 0,-9.4524 2.69479,-13.6763 7.20561,-11.2944 4.1593,2.1964 12.73921,4.0992 22.62681,5.0182 8.87286,0.8246 9.57157,0.6902 11.62123,-2.2361 1.74264,-2.488 2.01451,-5.0006 1.35324,-12.5065 -1.05574,-11.9833 -2.78856,-14.0597 -11.73341,-14.0597 -3.7656,0 -10.30188,-0.9 -14.52507,-2 -4.22318,-1.1 -9.14924,-2 -10.9468,-2 -3.6705,0 -4.38061,-1.9545 -1.15923,-3.1907 3.56631,-1.3685 10.07079,-0.9225 21.69983,1.4877 l 11.14221,2.3094 2.52446,-3.1176 c 2.76511,-3.4147 3.33361,-11.1869 1.22412,-16.7353 -1.28263,-3.3736 -1.49222,-3.4201 -15.39394,-3.4201 -13.15576,0 -14.30969,0.216 -17.34085,3.2472 -3.69812,3.6981 -4.1928,3.2995 -5.41874,-4.3672 -0.5732,-3.5846 -0.31705,-6.2162 0.7276,-7.4749 1.26132,-1.5198 1.25708,-2.9248 -0.0195,-6.455 -1.12812,-3.1198 -1.21748,-5.2527 -0.28955,-6.9108 0.90449,-1.6162 0.89209,-3.8648 -0.038,-6.8953 -0.96505,-3.1445 -0.94231,-6.399 0.0756,-10.8205 1.55717,-6.7639 1.46249,-12.2764 -0.81854,-47.6569 -0.80374,-12.4666 -1.7842,-41.2666 -2.17879,-64 -0.39459,-22.7333 -1.04757,-42.3833 -1.45107,-43.6666 -1.40407,-4.4657 -6.57097,-2.6453 -13.2452,4.6666 -5.04143,5.5232 -29.32334,31.4062 -33.72385,35.9477 -0.50501,0.5211 -5.13592,4.819 -10.2909,9.5508 -10.7897,9.9039 -10.35159,9.924 -21.76459,-1.0002 -8.38881,-8.0295 -27.10092,-30.8463 -30.17946,-36.7995 -2.6903,-5.2025 -8.27666,-8.1128 -10.1532,-5.2896 -0.70344,1.0583 -0.92771,4.0242 -0.49838,6.5908 1.00419,6.0035 1.13486,12.3606 0.56183,27.3334 -0.0842,2.2 -0.0922,5.95 -0.0177,8.3333 0.0744,2.3833 0.10545,7.1833 0.0689,10.6667 -0.0574,5.4685 0.0636,29.3817 0.34892,69 0.11723,16.2767 -1.20151,36.4522 -2.95288,45.1766 -0.86598,4.3138 -1.1558,9.4138 -0.64405,11.3333 0.51176,1.9195 1.39386,15.1901 1.96024,29.4901 1.21518,30.681 4.67959,51.7486 10.00358,60.8333 1.93768,3.3064 3.18134,6.9021 2.76369,7.9905 -0.41764,1.0884 -3.52224,3.201 -6.89909,4.6947 -5.73748,2.538 -6.53853,2.5846 -12.22687,0.712 -4.18032,-1.3763 -7.09237,-1.6218 -9.29615,-0.7839 -4.63691,1.7629 -11.78536,1.4996 -16.86105,-0.6212 -3.14187,-1.3127 -5.10558,-1.4501 -6.84183,-0.4784 -2.56009,1.4327 -28.75897,0.5932 -32.9992,-1.0574 -3.54272,-1.3791 -2.80764,-3.777 2,-6.5242 10.72714,-6.1298 16.26868,-14.0173 14.40754,-20.5067 -0.6401,-2.2319 -0.90594,-4.3159 -0.59075,-4.6311 1.57853,-1.5785 3.06955,-22.4978 3.86981,-54.2943 1.08817,-43.236 1.29181,-136.3635 0.35569,-162.6667 -0.39224,-11.0211 -0.10888,-21.8253 0.65907,-25.1295 1.0359,-4.4571 0.84465,-7.9996 -0.82779,-15.3334 -1.89853,-8.3251 -3.5304,-17.3396 -3.71578,-20.5261 -0.14691,-2.5253 40.76497,-5.2933 42.26894,-2.8598 0.40186,0.6502 3.24524,1.1914 6.31863,1.2026 7.43275,0.027 9.2977,1.349 8.18092,5.7986 -1.09082,4.3462 1.37401,10.7738 4.73701,12.3529 3.75567,1.7635 21.07177,21.1531 29.61514,33.1614 13.19152,18.5417 13.39569,18.7347 17.86407,16.8838 2.12935,-0.882 5.0222,-3.3157 6.42857,-5.4082 1.40637,-2.0925 3.90529,-4.6306 5.55316,-5.6401 1.64786,-1.0095 4.89272,-4.2355 7.2108,-7.1688 5.33482,-6.7508 12.54619,-14.171 22.02859,-22.6667 4.09254,-3.6667 10.72908,-9.9466 14.74786,-13.9555 6.30588,-6.2903 7.1952,-7.7972 6.49175,-11 -0.57291,-2.6084 -0.2884,-3.7093 0.9575,-3.7048 0.97493,0 13.6728,-0.2035 28.21748,-0.4601 l 26.44487,-0.4664 1.22179,3.2135 c 1.60492,4.2213 1.56951,62.3515 -0.0417,68.3733 -3.15645,11.7975 -3.85688,77.7677 -1.34489,126.6667 0.92297,17.9666 1.80029,44.3666 1.9496,58.6666 0.24035,23.0202 0.5992,26.8405 3.13109,33.3334 1.5728,4.0333 2.85994,8.3404 2.86031,9.5714 9.5e-4,3.1717 3.65637,6.4286 7.21522,6.4286 3.0131,0 6.11878,-4.4727 6.11878,-8.812 0,-1.1109 1.45748,-5.1327 3.23884,-8.9373 1.78136,-3.8046 3.60594,-9.3174 4.05463,-12.2507 0.44869,-2.9334 1.66487,-8.6334 2.70261,-12.6667 2.17609,-8.4577 6.02644,-27.5936 9.79225,-48.6667 1.44154,-8.0666 3.22232,-16.4666 3.9573,-18.6666 0.73497,-2.2 2.63017,-9.7 4.21154,-16.6667 1.58137,-6.9667 3.37371,-14.1667 3.98298,-16 0.60927,-1.8333 1.85197,-6.9333 2.76156,-11.3333 0.90959,-4.4 2.45232,-11 3.42829,-14.6667 0.97597,-3.6667 2.97521,-13.5667 4.44277,-22 1.46756,-8.4333 3.54976,-20.1333 4.62711,-26 1.07734,-5.8667 2.62669,-15.9955 3.44298,-22.5085 1.57682,-12.581 5.46446,-31.7092 8.73602,-42.9834 1.84134,-6.3455 1.79887,-7.2311 -0.60419,-12.5985 -1.89179,-4.2254 -2.22937,-6.4372 -1.25922,-8.2499 1.76954,-3.3064 6.54772,-4.9945 9.60215,-3.3923 1.40004,0.7344 13.42933,1.1311 28.05505,0.9251 14.08225,-0.1983 26.34511,0.097 27.2508,0.6572 1.22017,0.7541 0.521,3.0653 -2.69931,8.9231 l -4.346,7.9054 2.31092,6.5065 c 1.27101,3.5786 2.31092,8.0274 2.31092,9.8862 0,1.8588 0.8556,5.0783 1.90133,7.1544 1.04572,2.0761 3.44452,10.6747 5.33065,19.108 4.56132,20.3948 5.48072,23.9559 12.22033,47.3334 3.17126,11 7.6745,28.7 10.00721,39.3333 2.70108,12.3125 5.15608,20.3469 6.76038,22.1244 1.7517,1.9409 2.91291,6.257 3.81189,14.1687 0.71105,6.2576 2.75315,15.8016 4.53801,21.2089 4.42688,13.4113 9.95815,37.0559 11.50125,49.1647 0.7009,5.5 2.42398,13.6 3.82907,18 1.40509,4.4 2.96159,11 3.45889,14.6666 1.19491,8.8102 2.80045,11.5933 6.39267,11.0809 1.87028,-0.2667 3.81088,-2.3134 5.44969,-5.7475 2.29396,-4.8071 2.49358,-7.8332 2.02295,-30.6667 -0.5487,-26.6212 -0.54338,-31.5993 0.0762,-71.3333 0.21154,-13.5667 -0.0122,-26.7667 -0.4972,-29.3334 -0.48499,-2.5666 -0.41414,-16.2204 0.15745,-30.3417 0.60027,-14.83 0.53115,-27.1959 -0.16364,-29.2754 -0.76755,-2.2972 -0.65885,-5.6343 0.30032,-9.2206 1.09666,-4.1003 1.10827,-6.7533 0.043,-9.8093 -0.99427,-2.8521 -1.05407,-6.2433 -0.1874,-10.6265 1.00287,-5.0721 0.84156,-7.246 -0.76051,-10.2487 -1.91001,-3.5799 -2.60583,-13.4529 -1.72511,-24.4778 0.54531,-6.8262 -1.76511,-25.5337 -3.56963,-28.9034 -0.85516,-1.5968 -1.17564,-3.8915 -0.71218,-5.0993 0.76282,-1.9879 4.07868,-2.1236 34.99522,-1.4327 18.78391,0.4197 36.55256,0.6513 39.48589,0.5147 2.93333,-0.1367 14.64594,-0.2855 26.02801,-0.3306 18.35561,-0.073 21.86589,0.2856 31.0569,3.1706 10.21975,3.2079 10.42886,3.3637 15.20803,11.3333 2.66519,4.4444 6.53958,10.0517 8.60976,12.4605 2.07018,2.4089 3.77171,5.7089 3.78117,7.3333 0.009,1.6245 1.18429,6.6762 2.61074,11.2261 2.08673,6.6559 2.6241,12.5182 2.74997,30 0.21978,30.5233 -1.09051,39.2152 -7.99879,53.0609 -4.59038,9.2001 -8.00078,13.6625 -18.1186,23.7075 -12.5933,12.5027 -18.59202,16.2925 -25.78913,16.2925 -4.5332,0 -8.13806,3.0084 -8.13806,6.7917 0,1.4306 2.31366,5.1378 5.14147,8.2381 2.8278,3.1002 10.05616,13.4368 16.063,22.9702 13.41736,21.2944 22.70759,34.8649 31.55309,46.0907 3.71667,4.7167 10.30746,13.6759 14.64622,19.9093 4.33876,6.2333 10.89785,14.6864 14.57577,18.7847 3.67791,4.0982 7.72056,8.7358 8.98366,10.3056 2.83657,3.5254 5.77196,2.6007 8.50176,-2.6782 1.6222,-3.137 2.0375,-9.368 2.0555,-30.8384 0.012,-14.7989 0.05,-33.8071 0.083,-42.2404 0.1866,-47.0202 -0.5126,-85.4352 -1.8446,-101.3333 -0.8295,-9.9 -1.7193,-23.7 -1.9774,-30.6667 -2.59985,-70.1763 -1.62488,-63.8143 -12.37783,-80.7699 -3.76702,-5.94 -4.0147,-9.3655 -0.83463,-11.543 0.78683,-0.5388 15.58756,-0.9888 32.89056,-1 29.3667,-0.019 31.6145,0.1503 33.7816,2.5448 2.2114,2.4436 2.1946,2.7441 -0.3533,6.3334 -2.6824,3.7787 -5.8385,24.2245 -5.5534,35.9758 0.068,2.8191 -0.6156,15.0256 -1.5199,27.1256 -1.7783,23.7947 -1.9713,57.2985 -0.6799,118 1.4115,66.3463 1.8788,75.5569 4.1572,81.9468 1.4147,3.9675 1.8344,7.8545 1.2609,11.6787 -1.4208,9.4747 4.538,13.1598 10.0167,6.1946 2.0902,-2.6572 2.7779,-5.4994 2.8228,-11.6666 0.068,-9.3636 4.0481,-32.0808 6.3789,-36.4107 1.1827,-2.1969 1.1989,-3.747 0.065,-6.2353 -1.2425,-2.7269 -1.0379,-4.0936 1.1588,-7.7428 2.5689,-4.2673 3.1352,-7.3933 7.6872,-42.4314 1.0003,-7.7 2.7105,-17.8033 3.8003,-22.4518 1.0899,-4.6485 2.4088,-16.6485 2.9309,-26.6667 0.6151,-11.8028 1.5894,-19.1406 2.7677,-20.8448 1.00013,-1.4465 1.82483,-5.0465 1.83283,-8 0.01,-2.9535 0.9407,-8.37 2.0727,-12.0367 1.5154,-4.9084 1.9712,-11.4333 1.7278,-24.7399 -0.2777,-15.187 0.03,-18.588 1.9273,-21.2967 1.4462,-2.0648 2.2578,-5.8169 2.2578,-10.4387 0,-3.9684 0.6791,-9.482 1.5092,-12.2525 1.499,-5.0034 0.3727,-9.0737 -5.6048,-20.2541 -1.9382,-3.6254 -1.4221,-5.4894 2.264,-8.1757 2.7008,-1.9684 4.0207,-2.1915 6.2914,-1.0635 1.5804,0.7852 8.2735,1.3654 14.8735,1.2895 6.6,-0.076 19.6612,0.3446 29.0249,0.9346 17.5892,1.1083 23.2468,2.8569 19.9751,6.1739 -2.5992,2.6353 -2.0525,5.2947 3.5579,17.3052 2.8735,6.1515 5.6137,13.5846 6.0893,16.5179 0.4756,2.9333 1.6493,7.4333 2.6083,10 2.7741,7.4249 7.419,25.0177 8.2977,31.4285 0.4429,3.2317 1.6247,6.5558 2.6261,7.3869 1.0014,0.8311 1.8207,2.4451 1.8207,3.5866 0,1.8956 2.6401,11.326 7.5395,26.9313 1.036,3.3 2.2014,8.3435 2.5898,11.2077 0.3884,2.8643 1.8679,8.2643 3.2878,12 1.4199,3.7358 2.5819,8.4505 2.5823,10.4771 3e-4,2.0266 0.5549,4.7266 1.2323,6 0.6775,1.2734 3.1328,8.6152 5.4564,16.3152 2.3235,7.7 4.8343,15.8 5.5795,18 3.7917,11.1937 6.3998,21.7677 6.4059,25.9712 0,2.6476 1.4395,7.0216 3.2918,10.0288 1.8066,2.9334 3.3036,6.731 3.3265,8.4393 0.023,1.7082 1.4825,6.8082 3.2437,11.3333 1.7612,4.5251 3.6131,10.6274 4.1153,13.5608 1.3024,7.6067 11.0535,25.7039 15.6869,29.1136 2.1572,1.5875 4.8203,4.616 5.918,6.73 2.4219,4.6641 2.0572,4.9703 -10.4626,8.7856 -11.8675,3.6164 -38.4671,3.8262 -49.2177,0.3881 l -7.242,-2.316 12,-0.7494 c 13.9818,-0.8731 16.0858,-1.6279 18.7159,-6.714 2.4631,-4.763 2.474,-9.2841 0.036,-14.8594 -1.0531,-2.4082 -2.919,-9.1785 -4.1466,-15.0452 -2.1413,-10.2333 -6.8376,-26.4054 -10.7525,-37.027 -1.019,-2.7648 -1.8528,-6.2329 -1.8528,-7.7068 0,-1.474 -1.5305,-6.3161 -3.401,-10.7603 -1.8706,-4.4443 -4.9038,-14.7762 -6.7405,-22.9598 -4.2228,-18.815 -5.6813,-20.5646 -15.458,-18.5427 -17.4593,3.6106 -27.8592,4.9656 -38.2272,4.9805 -10.2903,0.015 -11.4709,0.3005 -15.1489,3.6656 -3.1137,2.8488 -3.806,4.3778 -3.1556,6.9693 0.8453,3.3679 -1.005,18.8611 -3.27,27.3812 -1.433,5.3902 -4.6621,47.7486 -5.6922,74.6667 -0.1823,4.7632 0.5556,7.0278 3.5798,10.9864 4.3947,5.7526 3.9987,7.9442 -2.1083,11.6676 -4.1663,2.5402 -6.7138,2.6696 -52.64883,2.6743 -32.3528,0 -49.3348,-0.4799 -51.498,-1.4655 -2.3785,-1.0837 -3.9847,-1.0652 -6.1066,0.07 -2.193,1.1736 -3.946,1.1552 -7.3546,-0.077 -3.58875,-1.2977 -5.75929,-1.2557 -10.95611,0.2122 -10.73908,3.0333 -20.48075,0.1036 -20.48075,-6.1594 0,-2.1171 -2.15195,-5.6733 -5.82888,-9.6324 -3.20589,-3.4519 -6.23062,-7.5768 -6.72162,-9.1663 -0.49101,-1.5895 -2.21801,-4.5499 -3.83779,-6.5787 -1.61977,-2.0288 -4.44504,-6.2371 -6.27838,-9.3518 -1.83333,-3.1147 -7.61588,-10.6877 -12.8501,-16.829 -5.23422,-6.1412 -11.45412,-15.0324 -13.82199,-19.7582 -2.36788,-4.7257 -6.43408,-11.2137 -9.03602,-14.4178 -2.60193,-3.204 -7.18204,-10.4882 -10.178,-16.187 -7.79995,-14.8368 -15.54174,-26.1441 -19.42416,-28.3701 -1.84602,-1.0584 -8.23536,-2.281 -14.19853,-2.7169 -16.14042,-1.1799 -15.15786,-4.0341 -15.15786,44.0318 0,34.5507 0.38003,42.2326 2.76516,55.8951 1.52083,8.7116 2.86167,20.5444 2.97963,26.295 0.28565,13.9253 -0.12849,14.211 -20.60356,14.211 -15.45809,0 -20.57191,-1.0342 -25.50373,-5.1575 -2.09414,-1.7509 -2.89442,-1.7216 -7.04524,0.2578 -2.77673,1.3241 -7.95622,2.233 -12.72515,2.233 -4.42334,0 -9.33585,0.6922 -10.9167,1.5383 -2.97951,1.5946 -33.77431,1.893 -38.56129,0.3736 -4.10915,-1.3042 -0.52168,-4.1133 6.63414,-5.1949 11.01632,-1.6649 23.19896,-6.4478 25.97594,-10.1981 2.5591,-3.4559 2.55662,-3.5223 -0.34409,-9.2082 -1.60698,-3.1499 -2.88769,-7.8834 -2.84602,-10.5189 0.0417,-2.6355 -1.34994,-9.2918 -3.09246,-14.7918 -1.74252,-5.5 -4.0663,-13.6 -5.16397,-18 -1.09767,-4.4 -2.9123,-11.3 -4.03252,-15.3333 -1.12023,-4.0333 -2.69098,-12.7333 -3.49056,-19.3333 -0.79959,-6.6 -2.32764,-16.2 -3.39567,-21.3334 -1.06803,-5.1333 -2.09758,-10.4697 -2.28789,-11.8587 -0.52817,-3.8546 -6.85321,-8.0694 -9.71026,-6.4706 -1.51905,0.8501 -3.82328,0.844 -6.63077,-0.018 -3.26225,-1.0012 -7.2285,-0.6776 -16.40199,1.3383 -9.8304,2.1601 -13.38203,2.4051 -18.93973,1.3062 -5.99493,-1.1854 -7.2714,-1.0308 -10.32703,1.2506 -6.95531,5.1929 -10.91095,18.9614 -10.9765,38.2062 -0.0145,4.2649 -0.59566,8.818 -1.2914,10.118 -0.69574,1.3 -2.49574,9.5772 -4,18.3938 -3.60357,21.1209 -3.92001,57.3525 -0.54588,62.5021 1.76883,2.6996 1.89577,3.9849 0.66118,6.6946 l -1.52796,3.3535 -28.32784,-0.7818 c -15.58032,-0.4299 -33.12784,-0.9015 -38.99451,-1.0479 -8.52315,-0.2127 -11.41605,0.2363 -14.39581,2.2345 -2.65883,1.7831 -7.63369,2.8122 -17.33333,3.5858 -7.48231,0.5968 -16.60419,1.3614 -20.27086,1.6992 -3.66667,0.3378 -9.96667,-0.036 -14,-0.8301 z m 312.08962,-11.1173 c 1.41508,-1.7051 1.44628,-3.8761 0.16326,-11.3581 -0.87242,-5.0875 -1.58621,-10.5417 -1.58621,-12.1203 0,-6.2217 -3.39495,-7.7469 -17.24331,-7.7469 -14.7153,0 -17.91521,1.4063 -19.94758,8.767 -2.13445,7.7303 0.28343,12.3338 7.49048,14.2614 4.3766,1.1706 6.3509,2.5089 7.27093,4.9288 1.79313,4.7162 3.32012,5.3327 13.26622,5.3557 6.44831,0.015 9.30959,-0.5494 10.58621,-2.0876 z m 244.33187,-1.4077 c 9.3019,-0.6915 10.5472,-1.105 11.5906,-3.8493 3.0127,-7.9242 -4.4284,-17.9315 -11.3707,-15.2921 -1.9149,0.7281 -5.87243,1.3238 -8.79443,1.3238 -6.4244,0 -12.0187,2.6952 -14.9823,7.2182 -2.8124,4.2923 -2.7815,7.2604 0.1089,10.4542 1.8355,2.0282 3.4022,2.3826 7.6667,1.7345 2.9478,-0.4481 10.0494,-1.1633 15.78123,-1.5893 z m -508.68816,-2.0843 c 0.88,-0.88 1.6,-2.9261 1.6,-4.547 0,-3.6131 -7.23597,-19.2128 -9.61077,-20.7194 -0.94741,-0.601 -8.39909,-1.102 -16.5593,-1.1132 -17.40248,-0.024 -18.61208,0.699 -18.29232,10.933 0.26203,8.3862 2.70867,14.2392 6.29785,15.0661 1.55716,0.3588 8.83121,0.8256 16.16454,1.0373 7.33334,0.2118 14.56334,0.5107 16.06667,0.6641 1.50333,0.1535 3.45333,-0.4409 4.33333,-1.3209 z m 460.01903,-3.4168 c 0.3285,-3.4096 -0.477,-5.2463 -3.7251,-8.4944 -3.7923,-3.7923 -4.6205,-4.059 -9.7524,-3.1406 -3.0845,0.552 -8.5458,1.4281 -12.1362,1.947 -3.9756,0.5745 -7.2339,1.9087 -8.3334,3.4122 -1.9102,2.6124 -2.4377,8.8824 -0.8785,10.4416 0.5097,0.5097 8.4597,0.7597 17.6667,0.5556 l 16.7399,-0.3713 z m -638.38684,-1.71 c 1.7222,-3.218 0.21079,-6.3764 -5.25015,-10.9715 -3.62745,-3.0523 -4.90084,-3.297 -15.83156,-3.0426 -9.90091,0.2304 -12.58826,0.7761 -16.08532,3.2662 -4.39789,3.1316 -5.69788,8.7753 -2.70964,11.7635 0.94782,0.9479 8.2101,1.5074 19.98527,1.5399 17.01824,0.047 18.60792,-0.1573 19.8914,-2.5555 z m 251.31029,-9.8278 c 2.79652,-2.7965 3.32419,-4.5802 3.32419,-11.2371 0,-11.2652 -2.50489,-14.0416 -12.66851,-14.0416 -6.74251,0 -8.09783,0.4558 -10.84243,3.6466 -1.72518,2.0056 -3.4825,5.2681 -3.90515,7.25 -0.42266,1.9818 -1.37713,5.0918 -2.12106,6.9109 -1.16208,2.8417 -0.82005,3.7807 2.42831,6.6667 3.03372,2.6953 5.42903,3.4351 12.12068,3.7439 7.38699,0.3408 8.71955,0.01 11.66397,-2.9394 z m 378.90495,-5.0112 c 2.645,-2.4848 3.0859,-4.2081 3.0859,-12.0606 0,-8.0515 -0.4135,-9.575 -3.4129,-12.5744 -2.4313,-2.4313 -4.3796,-3.2282 -6.7735,-2.7706 -1.8482,0.3533 -5.3713,0.1889 -7.8291,-0.3654 -3.6447,-0.8221 -5.346,-0.3837 -9.2266,2.3774 -4.3181,3.0724 -4.7579,3.9738 -4.7579,9.7522 0,7.0048 1.7203,12.6181 4.9661,16.2048 1.6322,1.8035 4.2498,2.3357 11.488,2.3357 7.7895,0 9.8957,-0.49 12.46,-2.8991 z m 63.91253,-11.1009 c 0.088,-5.1333 0.5845,-10.5939 1.1035,-12.1345 1.7522,-5.2018 -2.327,-7.3601 -13.0807,-6.9208 -9.03383,0.369 -9.53633,0.5576 -9.91453,3.722 -0.2192,1.8333 -1.3741,6.1454 -2.5665,9.5825 -1.8827,5.4269 -1.918,6.5518 -0.2682,8.5494 4.182,5.0635 9.6892,7.2672 17.23313,6.8958 l 7.3333,-0.361 z m -697.63879,0.7876 c 1.68533,-1.3988 2.02696,-2.9325 1.3365,-6 -0.51015,-2.2665 -0.81148,-6.8764 -0.66961,-10.2442 0.32788,-7.7838 -1.80161,-9.7913 -9.08175,-8.5613 -2.92558,0.4942 -8.72152,0.1923 -12.87986,-0.6709 -6.81984,-1.4158 -7.79917,-1.3283 -9.99552,0.8929 -3.03794,3.0725 -5.7603,18.8966 -4.03268,23.4406 1.19084,3.1322 1.52821,3.1934 17.13681,3.1085 11.63409,-0.063 16.53178,-0.5926 18.18611,-1.9656 z m 442.35221,-8.7088 c 1.09153,-2.3956 1.08399,-4.8387 -0.0286,-9.2571 -0.8313,-3.3014 -1.51145,-9.2168 -1.51145,-13.1454 0,-3.9286 -0.72,-7.8629 -1.6,-8.7429 -2.20292,-2.2029 -20.08652,-2.0511 -25.44283,0.2159 -2.35978,0.9988 -5.40874,3.0715 -6.77547,4.6059 -2.10604,2.3645 -2.25852,3.4395 -1,7.0497 0.81673,2.3428 1.48496,7.1266 1.48496,10.6307 0,5.2945 0.59357,6.8378 3.51315,9.1343 3.01609,2.3725 5.3782,2.7635 16.69525,2.7635 12.68193,0 13.23837,-0.1235 14.66498,-3.2546 z m -186.65662,-6.4121 c 3.64926,-2.9528 6.44991,-8.1618 6.44991,-11.9963 0,-4.5577 -3.79279,-6.337 -13.50779,-6.337 -9.41408,0 -11.82554,1.6187 -11.82554,7.9378 0,7.5031 1.08708,9.3955 5.39729,9.3955 2.07826,0 4.14948,0.6 4.60271,1.3333 1.15089,1.8622 6.41414,1.6647 8.88342,-0.3333 z m 376.68947,-9.3333 c 1.5535,-3.4927 0.6935,-27.2205 -1.1114,-30.6667 -1.0072,-1.9233 -3.0799,-2.3333 -11.7948,-2.3333 -9.0885,0 -10.7667,0.362 -11.9531,2.579 -1.5829,2.9577 -1.8487,25.2867 -0.3294,27.6762 2.0647,3.2475 9.1586,5.7286 16.4018,5.7365 6.4486,0.01 7.6324,-0.3959 8.7869,-2.9917 z m 71.32213,-8.54 c 3.2424,-2.9343 3.0876,-8.6082 -0.3541,-12.9837 -2.3501,-2.9877 -3.4895,-3.4192 -7.1929,-2.7244 -2.4615,0.4617 -5.6769,0.1424 -7.297,-0.7246 -6.22913,-3.3337 -11.59683,4.6557 -8.51813,12.6785 2.0723,5.4004 18.60703,8.0574 23.36213,3.7542 z m -704.20329,-4.5069 c 1.03994,-1.9431 1.05455,-6.9587 0.0515,-17.6666 -0.77042,-8.2243 -1.40281,-21.3297 -1.40531,-29.1233 -0.003,-9.7328 -0.52842,-14.6048 -1.67748,-15.5584 -1.09969,-0.9127 -5.97056,-1.0325 -14.21506,-0.3495 -9.82049,0.8134 -12.92946,1.5686 -14.32707,3.48 -2.34,3.2001 -2.43232,21.0924 -0.11828,22.9241 0.91666,0.7257 5.49549,1.6494 10.17516,2.0527 8.4858,0.7315 13.33127,3.3111 11.57058,6.1599 -1.17018,1.8934 -6.43904,1.86 -12.92073,-0.082 -4.46537,-1.3378 -5.5065,-1.2216 -7.82136,0.8733 -2.3007,2.0821 -2.67032,4.1044 -2.67032,14.61 0,7.7059 0.58883,12.7822 1.6,13.7933 1.04627,1.0463 6.56735,1.6 15.95309,1.6 13.07106,0 14.4828,-0.2423 15.80531,-2.7135 z m 261.94032,-3.9149 c 1.30828,-1.4456 2.8261,-4.8956 3.37294,-7.6667 0.54684,-2.771 1.41581,-6.0418 1.93106,-7.2684 1.80502,-4.2973 -3.71364,-7.7698 -12.34788,-7.7698 -10.77583,0 -12.57573,1.6534 -13.11676,12.0493 -0.57335,11.0167 1.28054,13.284 10.86192,13.284 5.19315,0 7.51363,-0.6559 9.29872,-2.6284 z m 159.36795,-7.042 c 1.1,0.072 4.4416,0.5413 7.42577,1.0436 4.56766,0.7689 5.99267,0.4162 9.01011,-2.2299 3.51844,-3.0855 3.5589,-3.3026 2.20141,-11.8099 -1.80795,-11.3305 -4.11603,-13.3334 -15.36487,-13.3334 -15.17953,0 -17.34938,2.2435 -16.74896,17.3169 0.38113,9.5683 1.55883,11.1089 7.47654,9.7804 2.2,-0.4939 4.9,-0.8394 6,-0.7677 z m -247.59577,-13.2532 c 2.52859,-3.4013 2.5515,-3.7699 0.43505,-7 -2.15828,-3.294 -2.7026,-3.4097 -16.04009,-3.4097 -15.48765,0 -17.26347,0.8845 -16.55683,8.2462 l 0.4243,4.4205 10,0.7896 c 16.40938,1.2957 18.75359,0.9672 21.73757,-3.0466 z m 533.99579,2.657 c 2.2622,-2.2622 1.9876,-9.7518 -0.4312,-11.7592 -2.4187,-2.0074 -22.75593,-0.754 -25.56263,1.5753 -2.2186,1.8413 -2.2732,10.013 -0.073,10.9008 3.5643,1.4382 24.48703,0.8628 26.06673,-0.7169 z m -77.44763,-6.781 c 2.8902,-2.8902 3.797,-16.406 1.4057,-20.9524 -2.231,-4.2416 -7.0947,-4.8553 -15.7348,-1.9856 -5.5673,1.8492 -6.6233,2.7265 -6.6233,5.5024 0,1.8163 -0.6957,6.0651 -1.5459,9.4417 -1.4576,5.7886 -1.3633,6.2873 1.6506,8.7278 2.5724,2.0829 4.7045,2.4793 10.9196,2.0297 4.7821,-0.3459 8.5628,-1.3983 9.9281,-2.7636 z m -364.5314,-5.152 c 1.60178,-0.8431 3.35315,-2.1931 3.89192,-3 1.59908,-2.3948 1.1534,-16.1341 -0.57958,-17.867 -0.88,-0.88 -5.03645,-1.6 -9.23656,-1.6 -6.63699,0 -7.99369,0.454 -10.36496,3.4686 -3.7748,4.7989 -5.03006,12.2046 -2.49786,14.7367 2.00648,2.0065 10.92516,5.6296 14.12037,5.7361 0.96488,0.032 3.06488,-0.6313 4.66667,-1.4744 z m -91.64604,-9.7219 c 2.75984,-3.7759 2.36561,-10.9379 -0.77495,-14.0785 -2.27161,-2.2716 -4.44445,-2.6666 -14.66667,-2.6666 -10.22222,0 -12.39506,0.395 -14.66667,2.6666 -4.03652,4.0366 -3.5555,11.1073 0.99935,14.6902 3.25303,2.5588 4.99255,2.8326 15.44162,2.4301 9.79596,-0.3773 12.09363,-0.8887 13.66732,-3.0418 z m 264.51147,-1.9908 c 0.75913,-1.4185 1.38024,-6.7756 1.38024,-11.9048 0,-13.9023 -2.48976,-15.3347 -20.79274,-11.9623 -7.57898,1.3965 -8.57406,1.9571 -9.82039,5.5323 -0.76278,2.1881 -1.38687,6.5453 -1.38687,9.6827 0,8.7815 3.95501,11.2311 18.1329,11.2311 9.61618,0 11.29183,-0.3461 12.48686,-2.579 z m 272.1775,-1.2512 c 3.175,-3.921 3.2692,-9.017 0.197,-10.6611 -3.1219,-1.6708 -18.1863,-0.7061 -22.7159,1.4548 -2.4246,1.1566 -3.75293,2.9513 -4.04133,5.4603 -0.7544,6.5617 1.68713,7.8923 13.49713,7.356 9.1233,-0.4144 10.8652,-0.8957 13.0631,-3.61 z m -436.39421,-21.7545 c 0.4005,-6.2121 0.37115,-6.2603 -4.66667,-7.6593 -2.78834,-0.7743 -6.33879,-1.4111 -7.8899,-1.4152 -3.31844,-0.01 -9.84648,4.7753 -9.84648,7.216 0,4.4111 9.5146,8.8178 18,8.3367 3.78045,-0.2144 4.02213,-0.57 4.40305,-6.4782 z m 353.68458,5.5378 c 2.1435,-1.1472 2.579,-2.843 2.579,-10.0419 0,-6.8288 -0.4668,-8.8407 -2.206,-9.5081 -2.1841,-0.8381 -12.2724,3.6004 -16.794,7.3886 -7.9003,6.6191 6.6465,17.3925 16.421,12.1614 z m -454.75429,-3.9249 c 3.04208,-1.923 2.67374,-13.6704 -0.53999,-17.2215 -2.17266,-2.4008 -4.05871,-2.8067 -13.04184,-2.8067 -7.23865,0 -10.66147,0.5179 -11.01552,1.6667 -1.66123,5.3902 -1.85234,12.7861 -0.38214,14.7889 2.68998,3.6646 20.74837,6.2473 24.97949,3.5726 z m 524.49322,-0.1424 c 3.6878,-1.024 5.5707,-1.0219 6.6,0.01 2.2002,2.2002 4.184,1.749 8.0454,-1.8296 4.6101,-4.2725 4.699,-9.5873 0.1947,-11.6396 -2.5034,-1.1406 -4.1789,-1.1335 -6.7294,0.029 -1.8678,0.8511 -5.9478,1.5474 -9.0667,1.5474 -6.7547,0 -8.8705,1.7597 -8.8705,7.3778 0,6.4282 1.0974,6.9317 9.8265,4.5079 z m -698.3535,-5.9119 c 2.48896,-3.7986 2.01848,-13.9035 -0.80578,-17.3065 -1.87188,-2.2555 -6.70757,-2.5678 -12.78222,-0.8256 -2.8733,0.824 -5.45974,0.6018 -8.65786,-0.7439 -4.37183,-1.8396 -4.68466,-1.7748 -7.56053,1.5659 -3.59597,4.1772 -4.06797,13.2181 -0.92439,17.7062 1.90768,2.7236 3.14568,2.9633 15.30259,2.9633 12.6649,0 13.32053,-0.1427 15.42819,-3.3594 z m 323.86028,0.6928 c 0.45322,-0.7334 3.67395,-1.3334 7.15718,-1.3334 8.76688,0 11.3424,-2.1493 10.50589,-8.7674 -1.08114,-8.5535 -3.76452,-20.6578 -6.6283,-29.8992 -1.47713,-4.7667 -2.87904,-12.5667 -3.11535,-17.3334 -0.23632,-4.7666 -1.67862,-13.1666 -3.20512,-18.6666 -5.66792,-20.4217 -8.0272,-30.1742 -8.87019,-36.6667 -1.04963,-8.084 -2.40878,-10 -7.09376,-10 -4.52855,0 -8.08369,6.7358 -8.08369,15.3158 0,3.2407 -0.53828,7.2703 -1.19619,8.9548 -0.6579,1.6845 -1.88719,9.2039 -2.73175,16.7098 -0.84455,7.5059 -2.70627,17.0499 -4.13714,21.2088 -1.43087,4.1589 -2.60528,9.1177 -2.6098,11.0195 -0.005,1.9019 -0.80645,4.9875 -1.78208,6.857 -0.97563,1.8695 -2.17571,7.2436 -2.66683,11.9424 -0.49113,4.6988 -1.8935,12.1092 -3.1164,16.4676 -2.21645,7.8994 -2.21386,7.9321 0.82275,10.391 2.44344,1.9785 5.45742,2.4852 15.23182,2.5603 6.70209,0.052 13.38562,0.6094 14.85229,1.2397 3.66465,1.5747 5.69342,1.5747 6.66667,0 z m 158.32946,-3.7 c 5.00678,-2.9068 22.84806,-32.6297 25.79099,-42.9667 1.14828,-4.0333 2.64093,-9.1759 3.317,-11.428 0.67607,-2.2521 1.22921,-5.4415 1.22921,-7.0876 0,-1.6462 0.5801,-4.077 1.2891,-5.4017 0.82511,-1.5418 0.82975,-4.0104 0.0129,-6.8586 -0.82922,-2.8913 -0.81373,-4.9124 0.0442,-5.7703 3.61791,-3.6179 0.54238,-22.6564 -5.58377,-34.5653 -0.69171,-1.3447 -2.67091,-6.622 -4.39821,-11.7275 -6.21022,-18.3558 -12.78764,-23.095 -35.32374,-25.4513 -11.11896,-1.1626 -14.97308,-1.1489 -16.42787,0.059 -1.04539,0.8676 -2.4112,5.3247 -3.03514,9.9046 -1.18908,8.7284 -1.18417,10.9832 0.13891,63.849 0.52807,21.1 0.32909,34.6413 -0.55614,37.8473 -1.05569,3.8234 -0.93304,6.0582 0.52388,9.5451 1.42048,3.3996 1.69515,7.7063 1.08445,17.0033 -0.78473,11.9465 -0.69661,12.5155 2.17642,14.0531 1.64685,0.8813 4.06651,1.3221 5.37703,0.9793 1.31052,-0.3427 3.19918,-0.068 4.19702,0.6096 2.60577,1.7703 15.48368,0.1128 20.14373,-2.5928 z m 302.07216,-3.9267 c 0.2209,-3.8281 -0.3423,-8.3281 -1.2515,-10 -0.9092,-1.672 -1.7771,-3.94 -1.9286,-5.04 -0.7781,-5.6486 -3.3087,-16.3499 -4.3438,-18.3692 -0.6478,-1.2636 -2.5286,-9.4975 -4.1797,-18.2975 -1.6511,-8.8 -4.1336,-19.4523 -5.5167,-23.6719 -1.3831,-4.2196 -2.5343,-9.6196 -2.5582,-12 -0.024,-2.3804 -1.2555,-7.6281 -2.7368,-11.6614 -1.4814,-4.0333 -3.2133,-12.3134 -3.8488,-18.4003 -1.2118,-11.6063 -2.7348,-14.933 -6.8367,-14.933 -4.2877,0 -6.2115,5.2966 -7.0219,19.3333 -0.8309,14.3917 -2.5017,28.6306 -4.85,41.3333 -1.5645,8.4631 -2.918,18.624 -5.2392,39.3334 -0.7809,6.9666 -2.0062,15.0666 -2.723,18 -1.8217,7.4555 -1.6807,18.486 0.261,20.4277 1.194,1.194 8.3897,1.5316 27,1.2667 l 25.3723,-0.3611 z m -347.50661,1.42 c 2.86387,-2.5917 3.21812,-9.5505 0.66401,-13.0435 -1.65702,-2.2661 -2.56046,-2.3116 -13.66667,-0.6874 -6.54079,0.9565 -12.33317,2.3838 -12.87194,3.1717 -1.54963,2.2662 -1.17896,9.4073 0.57959,11.1659 2.57658,2.5766 22.30027,2.1035 25.29501,-0.6067 z m -160.99025,-7.8886 c 2.48673,-2.4867 2.7389,-7.3944 0.49524,-9.6381 -0.88,-0.88 -4.75889,-1.6 -8.61976,-1.6 -5.57562,0 -7.3037,0.5306 -8.4,2.579 -3.40823,6.3684 0.1072,10.7544 8.61976,10.7544 3.5036,0 6.64116,-0.8317 7.90476,-2.0953 z m 242.89563,-1.5918 c 1.98347,-1.3244 4.53294,-6.3255 4.53294,-8.8919 0,-3.2345 -5.79346,-2.5361 -9.8053,1.182 -3.45231,3.1995 -4.41644,6.0641 -2.63914,7.8414 1.17997,1.18 6.06907,1.0987 7.9115,-0.1315 z m 198.35313,-3.0764 c 7.4139,-5.8318 1.8376,-10.5699 -12.44,-10.5699 h -9.3802 v 4.6413 c 0,3.9783 0.5238,4.7568 3.6667,5.45 2.0166,0.4447 5.1666,1.3088 7,1.9201 5.3172,1.7729 7.411,1.5023 11.1535,-1.4415 z m -86.06253,-6.3236 c 0.6579,-6.8547 -1.7238,-8.6916 -10.1427,-7.8227 -8.1885,0.8451 -10.9483,2.6113 -10.9483,7.0068 0,4.407 3.4752,5.9325 12.6667,5.5603 l 8,-0.324 z m -459.67,1.0402 c 1.7912,-0.9587 2.57901,-2.7975 2.57901,-6.0196 0,-3.8033 -0.78092,-5.1155 -4.33334,-7.2815 -2.38333,-1.4531 -6.54427,-2.6443 -9.24653,-2.647 -2.70226,0 -6.39017,-0.5666 -8.19536,-1.2529 -4.36776,-1.6606 -7.02446,0.561 -8.11207,6.7835 -1.11992,6.4073 1.72593,9.5275 7.68503,8.4258 2.74306,-0.5071 5.12825,-0.071 6.86893,1.2551 3.10589,2.3667 9.06537,2.7108 12.75433,0.7366 z m -170.58524,-5.4555 c 2.41023,-2.4103 2.72657,-3.8937 2.10815,-9.8856 -1.29745,-12.5711 -1.57155,-12.7586 -18.01457,-12.3231 l -14.26267,0.3777 -0.38553,10.8936 c -0.36072,10.1924 -0.19824,10.953 2.52418,11.8171 1.60035,0.5079 5.07384,0.2153 7.71887,-0.6502 3.93379,-1.2874 5.65858,-1.2029 9.47582,0.464 6.22941,2.7202 7.50351,2.6387 10.83575,-0.6935 z m 535.49758,-1.952 c 2.27554,-1.4718 3,-3.2096 3,-7.1961 0,-6.1438 -2.4017,-8.0162 -10.28234,-8.0162 -6.46606,0 -11.05099,3.1103 -11.05099,7.4966 0,9.7966 9.15767,13.6506 18.33333,7.7157 z m -97.68708,-2.3273 c 2.30628,-3.5199 1.51623,-10.537 -1.46491,-13.0111 -1.38936,-1.1531 -2.92584,-0.9996 -6.37416,0.6367 -2.49894,1.1859 -6.06379,2.1561 -7.92189,2.1561 -6.52521,0 -10.21863,2.3013 -10.21863,6.367 0,5.8589 2.15695,6.9663 13.56927,6.9663 9.39547,0 10.56094,-0.2925 12.41032,-3.115 z m -159.35964,-3.4644 c 0.92948,-1.7367 0.94648,-3.7207 0.0521,-6.0732 -1.20995,-3.1824 -1.88963,-3.4577 -7.62375,-3.0873 -5.16867,0.3338 -6.64126,1.0254 -8.22804,3.8641 -3.21364,5.7493 -1.29903,7.8758 7.09103,7.8758 5.88098,0 7.60089,-0.5094 8.7087,-2.5794 z m 442.12651,-4.6886 c 4.3064,-6.5724 -1.4067,-11.3268 -8.8341,-7.3518 -3.5483,1.8991 -3.2294,4.5813 0.9341,7.8564 4.481,3.5247 5.2939,3.4728 7.9,-0.5046 z m -90.31073,-3.1387 c 0.7703,-5.4343 -1.8911,-7.0092 -10.26,-6.0714 -8.7514,0.9808 -10.8424,2.2724 -10.8424,6.6974 0,3.1687 0.1842,3.2193 10.3333,2.8368 9.6396,-0.3633 10.3626,-0.5958 10.7691,-3.4628 z m -457.69622,-4.7421 c 0.43466,-1.7319 0.5961,-5.1819 0.35873,-7.6667 l -0.43157,-4.5178 -14,-0.041 c -7.7,-0.023 -14.75,0.5009 -15.66667,1.1632 -2.24218,1.6202 -2.12241,9.5064 0.17332,11.4117 1.15749,0.9606 4.49576,1.2456 9,0.7684 3.93801,-0.4172 8.96002,-0.1825 11.16002,0.5216 6.54368,2.0943 8.55713,1.7434 9.40617,-1.6394 z m 371.76554,-2.5179 c 2.674,-4.2224 3.86527,-10.9453 2.79939,-15.7982 -0.83388,-3.7966 -1.24775,-4.066 -5.10594,-3.3228 -2.30917,0.4448 -6.73889,1.1809 -9.84382,1.6359 -7.14563,1.047 -8.61928,2.8753 -8.10282,10.0533 0.40221,5.59 0.56362,5.7776 5.31333,6.1729 2.69418,0.2243 5.61765,1.2743 6.49659,2.3334 2.35788,2.841 6.27969,2.342 8.44327,-1.0745 z m -105.82377,-5.3333 c 2.96359,-4.8606 3.47119,-11.6475 1.05206,-14.0667 -3.04945,-3.0494 -13.06667,-1.6112 -13.06667,1.876 0,2.3435 -1.30706,2.2969 -4.55727,-0.1624 -3.30025,-2.4972 -6.1094,-0.3845 -6.1094,4.5949 0,5.3509 2.59912,7.9366 10,9.9484 9.59006,2.6068 9.77606,2.5747 12.68128,-2.1902 z m -155.30111,0.2576 c 0.47899,-0.7751 0.50296,-2.8751 0.0533,-4.6667 -0.68669,-2.736 -1.62477,-3.2576 -5.85886,-3.2576 -2.77269,0 -5.6357,-0.5944 -6.36224,-1.3209 -1.78564,-1.7857 -7.21236,2.0742 -7.21236,5.1299 0,1.2784 0.72,3.0444 1.6,3.9244 1.97333,1.9733 16.58164,2.1301 17.78017,0.1909 z m 346.36216,-5.4097 c 2.6198,-4.1803 0.1553,-6.5146 -6.8783,-6.5146 -5.5322,0 -6.6669,0.4355 -7.284,2.7953 -1.3557,5.1841 0.2862,6.7016 6.7848,6.2709 3.7595,-0.2491 6.5364,-1.2095 7.3775,-2.5516 z m 92.65763,1.2188 c 0.88,-0.88 1.6,-3.28 1.6,-5.3334 0,-3.4666 -0.3809,-3.7333 -5.3333,-3.7333 -5.0171,0 -5.3333,0.2333 -5.3333,3.9338 0,5.4891 5.5617,8.6378 9.0666,5.1329 z m -723.06431,-1.3104 c 4.41846,-2.0131 4.0761,-7.1102 -0.71679,-10.6716 -2.96429,-2.2026 -4.20912,-2.3348 -10.09704,-1.072 -4.46745,0.9581 -8.61023,1.0146 -12.37412,0.1689 -6.33626,-1.4236 -7.33053,-0.5112 -6.58046,6.0391 0.42361,3.6994 0.65491,3.7994 10.94069,4.7317 5.77936,0.5238 10.82936,1.2738 11.22222,1.6666 1.14396,1.144 3.88335,0.8333 7.6055,-0.8627 z m 171.41868,-6.4699 c 3.33664,-1.7857 3.28137,-5.363 -0.1396,-9.035 -3.25612,-3.495 -4.93878,-3.6414 -8.17641,-0.7114 -6.40605,5.7974 0.52231,13.9175 8.31601,9.7464 z m -20.04205,-2.705 c 1.62381,-3.0341 -0.23697,-6.5814 -3.45235,-6.5814 -2.48995,0 -3.78126,5.0986 -1.87349,7.3973 2.19512,2.645 3.58784,2.4316 5.32584,-0.8159 z M 598.33,744.56431 c 4.28548,-6.5405 0.94509,-9.8466 -8.21281,-8.1286 -5.46977,1.0262 -5.68013,2.7203 -0.95073,7.6567 4.40064,4.5933 6.39576,4.6961 9.16354,0.4719 z m 343.19277,-7.9922 c 0.8794,-1.0596 1.4029,-3.3096 1.1633,-5 -0.3404,-2.4011 -1.4109,-3.1668 -4.8938,-3.5005 -2.5069,-0.2402 -5.4247,0.4006 -6.6667,1.464 -1.2147,1.0401 -3.2586,2.2635 -4.5419,2.7186 -1.2833,0.4551 -2.3333,1.4657 -2.3333,2.2457 0,3.662 14.5084,5.4027 17.2724,2.0722 z m -627.14894,-5.424 c 1.21749,-4.8509 -1.57645,-7.5335 -7.3427,-7.0501 -3.84228,0.3221 -4.86692,1.0087 -5.21956,3.4977 -0.76071,5.3692 0.65502,6.903 6.37152,6.903 4.60182,0 5.46736,-0.4684 6.19074,-3.3506 z m 171.94289,-2.9062 c 2.12025,-2.1203 2.072,-2.4066 -0.79714,-4.7298 -5.41869,-4.3878 -11.11928,-1.091 -8.75718,5.0645 1.00794,2.6267 6.79572,2.4239 9.55432,-0.3347 z m 264.6459,-0.4951 c 1.75557,-3.2803 -0.31605,-6.5814 -4.13018,-6.5814 -3.20382,0 -4.3513,2.0818 -3.34888,6.0758 1.01779,4.0552 5.42011,4.3528 7.47906,0.5056 z m -146.95288,-4.9147 c 0.3609,-2.5412 -0.18791,-3 -3.58797,-3 -4.72343,0 -6.40347,1.9772 -4.06955,4.7894 2.42117,2.9173 7.14586,1.8133 7.65752,-1.7894 z m 338.15083,-9.5675 c 3.4319,-3.7922 2.2037,-7.354 -2.7014,-7.8339 -5.068,-0.4959 -7.8272,2.4227 -6.6657,7.0507 1.0379,4.1352 5.9611,4.5468 9.3671,0.7832 z m -630.50626,-1.5106 c 3.09388,-3.4187 1.21702,-7.2553 -3.54928,-7.2553 -3.6648,0 -5.14094,4.8436 -2.46045,8.0734 2.12795,2.5641 3.0643,2.4366 6.00973,-0.8181 z m 545.92937,-2.4934 c 0,-1.4142 -0.9881,-3.5595 -2.19577,-4.7671 -2.0388,-2.0388 -2.38839,-2.0032 -4.89026,0.4987 -2.2471,2.2471 -2.40888,3.0386 -0.97431,4.7672 2.5313,3.05 8.06034,2.7079 8.06034,-0.4988 z m -489,-118.7472 c -4.48463,-2.7344 -5.38288,-5.0984 -2.88591,-7.5954 1.02009,-1.0201 1.2191,-18.1244 0.67407,-57.9333 -0.42534,-31.0673 -0.70575,-77.039 -0.62313,-102.1594 0.11016,-33.4922 -0.27209,-46.1823 -1.43326,-47.5814 -1.2229,-1.4735 -1.22001,-2.5872 0.0127,-4.8906 1.24272,-2.322 1.2314,-4.9245 -0.0511,-11.7519 -2.57395,-13.7022 -1.98671,-15.2781 6.05921,-16.2602 3.71392,-0.45332 8.8162,-1.57044 11.33838,-2.48247 3.81785,-1.38055 5.79771,-1.29835 11.82275,0.4909 3.98032,1.18202 10.14916,2.14914 13.70852,2.14914 3.67,0 7.87235,0.91782 9.70733,2.12015 l 3.23575,2.12014 -3.94933,7.40084 c -3.5823,6.7131 -3.94933,8.5809 -3.94933,20.0982 0,6.9835 1.00414,17.9354 2.23141,24.3375 1.96944,10.2737 2.0338,13.6526 0.54826,28.7817 -1.08005,10.9994 -1.42939,27.1743 -0.97496,45.1415 0.38951,15.4 0.75324,29.8 0.80831,32 0.0551,2.2 -0.2064,18.1 -0.58102,35.3333 -0.78597,36.1563 -0.17722,40.0094 6.65932,42.1492 2.67458,0.8371 5.30089,0.9214 6.57052,0.2109 1.3026,-0.729 3.81025,-0.5707 6.5283,0.4122 3.59462,1.2998 5.63103,1.2113 10.97823,-0.4774 3.61073,-1.1402 8.96497,-2.4705 11.8983,-2.9561 10.89595,-1.8037 16.22848,-5.2262 20.09308,-12.896 1.97023,-3.9102 4.7053,-8.7021 6.07792,-10.6486 1.37262,-1.9466 2.49567,-5.0276 2.49567,-6.8467 0,-2.063 1.26326,-4.1352 3.35734,-5.5073 3.66305,-2.4001 3.88776,-2.1699 5.10059,5.2265 0.36075,2.2 1.29098,6.4 2.06718,9.3333 0.7762,2.9333 1.42558,9.8787 1.44308,15.4342 0.0276,8.7769 -0.36144,10.4693 -2.96819,12.9107 l -3,2.8098 -7.91632,-2.6776 c -6.17559,-2.0889 -8.60818,-2.3624 -11.06274,-1.2441 -1.86663,0.8505 -13.28948,1.4615 -28.08368,1.5021 -13.7155,0.038 -29.13726,0.6657 -34.2706,1.3957 -5.13333,0.73 -14.43333,1.6543 -20.66666,2.0541 -6.23334,0.3997 -11.90334,1.2717 -12.6,1.9376 -1.8712,1.7887 -3.58476,1.4947 -8.4,-1.4412 z m 32.66666,-8.1602 c 2.95454,-1.1048 3,-1.4764 3,-24.5211 0,-26.8486 0.56864,-25.76 -13.13687,-25.1499 -10.88397,0.4844 -12.56429,2.6647 -11.64479,15.1093 0.9782,13.2391 0.97898,15.4354 0.008,23.7414 -0.62636,5.3599 -0.29422,7.8396 1.3955,10.4184 2.08539,3.1827 2.66913,3.3289 9.79765,2.454 4.16909,-0.5117 8.93015,-1.4351 10.58015,-2.0521 z m 0.90477,-56.6164 c 3.13195,-3.1319 2.64772,-10.2542 -0.92538,-13.6109 -2.1457,-2.0158 -3.59393,-2.4752 -5,-1.5862 -1.08866,0.6884 -4.44847,1.2607 -7.46624,1.272 -6.2469,0.023 -12.51315,4.0727 -12.51315,8.0864 0,3.7037 5.87453,7.065 11.02583,6.3089 2.36913,-0.3478 5.80751,-0.1842 7.64084,0.3635 4.87847,1.4574 4.956,1.4484 7.2381,-0.8337 z m -0.34309,-21.4447 c 1.86456,-1.6874 2.43832,-4.159 2.43832,-10.5034 0,-11.2369 -1.03355,-11.9623 -14.05093,-9.8624 -9.50698,1.5337 -10.32119,1.929 -12.23394,5.9401 -2.26345,4.7465 -1.10344,10.9976 2.36423,12.7405 7.25515,3.6464 18.35322,4.517 21.48232,1.6852 z m 1.629,-27.9024 c 1.39698,-3.6405 0.88871,-7.8509 -1.33015,-11.0188 -1.99226,-2.8443 -2.74918,-2.9912 -11,-2.1347 -10.52623,1.0927 -12.46234,2.3563 -11.92861,7.7853 0.5273,5.3635 4.76035,7.4324 15.25876,7.4576 6.25143,0.015 8.3823,-0.4797 9,-2.0894 z m -1.0691,-25.234 c 0.5329,-2.1232 0.0127,-4.6043 -1.42575,-6.7996 -1.84608,-2.8174 -2.92093,-3.2877 -5.81365,-2.5434 -1.95186,0.5022 -5.27261,0.8804 -7.37943,0.8404 -5.5303,-0.105 -8.83608,2.0996 -8.83608,5.8926 0,2.7916 0.65244,3.3064 4.33333,3.4193 2.38334,0.073 5.83334,0.6133 7.66667,1.2004 6.8871,2.2057 10.5586,1.5615 11.45491,-2.0097 z m -1.6068,-17.3622 c 2.48719,-2.4872 1.51331,-5.5612 -2.12799,-6.7169 -1.77439,-0.5632 -3.59526,0.038 -5.31069,1.7535 -2.42388,2.4238 -2.45352,2.7674 -0.41472,4.8062 2.73983,2.7399 5.22109,2.7895 7.8534,0.1572 z m 0.0566,-18.7233 c 1.15243,-1.1524 2.09529,-2.3095 2.09529,-2.5714 0,-1.5076 -4.57746,-4.6667 -6.7619,-4.6667 -1.93465,0 -2.57143,0.9355 -2.57143,3.7778 0,5.9059 3.24242,7.456 7.23809,3.4603 z m -0.57143,-21.1594 c 0,-3.1825 -2.16339,-3.5115 -4.69512,-0.7139 -2.31846,2.5618 -2.28631,2.6352 1.15514,2.6352 2.19333,0 3.53998,-0.7309 3.53998,-1.9213 z m 347.28321,193.8402 c -0.7003,-1.1331 -4.58753,-1.4079 -13.39825,-0.947 -10.0036,0.5232 -12.55464,0.2767 -13.14834,-1.2704 -1.37359,-3.5795 -0.74508,-6.2126 2.6535,-11.1168 3.2116,-4.6343 3.45088,-6.2178 4.54422,-30.0716 0.63476,-13.8489 0.80882,-44.6798 0.38679,-68.5131 -0.42204,-23.8333 -0.60316,-45.7333 -0.40251,-48.6667 0.67606,-9.8832 0.46314,-27.8719 -0.58862,-49.7298 -0.88728,-18.4395 -1.4351,-22.225 -3.61791,-25 -1.41476,-1.7986 -3.36456,-3.27016 -4.33288,-3.27016 -2.15207,0 -3.88189,-4.03065 -2.37607,-5.53648 3.5245,-3.52449 45.55255,-5.33571 57.97773,-2.49858 3.12719,0.71406 9.21419,1.90971 13.52667,2.657 7.0997,1.23027 22.53422,6.29262 35.93065,11.78472 8.99914,3.6894 18.62833,14.8542 26.42906,30.6436 6.59551,13.35 7.10251,15.0845 7.76128,26.5519 0.40979,7.1334 1.40244,12.9656 2.37147,13.9334 0.91667,0.9154 1.66667,3.269 1.66667,5.2301 0,1.9612 0.9,6.1166 2,9.2343 1.25335,3.5524 2,10.5211 2,18.6667 0,8.1456 -0.74665,15.1143 -2,18.6667 -1.1,3.1177 -2,7.6036 -2,9.9686 0,2.3651 -0.59927,6.0396 -1.3317,8.1657 -0.73244,2.1261 -2.17018,8.3657 -3.19499,13.8657 -2.09843,11.262 -5.41824,20.9699 -8.2432,24.1049 -1.04323,1.1578 -1.89678,3.4738 -1.89678,5.1467 0,4.6355 -7.79518,18.253 -13.29084,23.218 -2.69128,2.4314 -10.58707,7.4993 -17.54619,11.262 -14.02601,7.5837 -25.99572,10.4338 -51.16297,12.1827 -7.33333,0.5096 -14.32264,1.3782 -15.5318,1.9303 -1.29071,0.5893 -2.6058,0.3447 -3.18499,-0.5924 z m 7.19894,-13.0677 c 2.29436,-2.2944 2.43651,-4.4378 1.87893,-28.3334 -0.55684,-23.864 -0.81024,-26.0305 -3.29652,-28.1845 -3.93275,-3.4071 -9.90651,-2.9459 -13.92766,1.0752 -2.55659,2.5566 -3.16144,4.1397 -2.41987,6.3334 0.54379,1.6086 0.79788,5.0248 0.56465,7.5914 -0.23324,2.5667 -0.46702,12.4667 -0.51953,22 l -0.0954,17.3334 4.66667,2.3312 c 6.00709,3.0009 10.04627,2.9558 13.14881,-0.1467 z m 31.51785,-0.4184 c 7.34449,-1.8563 16.96104,-11.95 19.94538,-20.935 1.25227,-3.7702 4.26704,-9.7482 6.6995,-13.2844 5.07177,-7.373 9.18045,-20.9217 11.58837,-38.2134 1.89897,-13.6368 1.88556,-16.6086 -0.24062,-53.3333 -0.84912,-14.6667 -1.69517,-31.4667 -1.88011,-37.3334 -0.39278,-12.46 -4.51638,-23.5229 -14.41269,-38.6666 -7.83975,-11.9967 -11.6956,-15.5 -19.42193,-17.6462 -12.52482,-3.479 -15.3994,-3.5341 -18.28527,-0.3505 -2.36997,2.6146 -2.76686,5.639 -3.64802,27.7985 -1.12712,28.345 -1.07253,81.9485 0.14933,146.6406 1.01434,53.7051 -0.42472,50.3613 19.50606,45.3237 z m 40.2127,-17.4328 c 1.47264,-1.65 4.30253,-5.85 6.28862,-9.3333 1.9861,-3.4834 4.1858,-6.3334 4.88822,-6.3334 2.05351,0 1.4674,-8.8489 -0.70556,-10.6523 -1.1628,-0.965 -3.40933,-1.2874 -5.43267,-0.7796 -2.7825,0.6984 -4.71687,3.5003 -9.99814,14.4823 -3.60149,7.4889 -6.55679,14.0663 -6.56733,14.6163 -0.0465,2.4282 8.97112,0.8635 11.52686,-2 z m 19.33218,-35.6731 c 4.79109,-4.7911 4.47699,-6.4894 -1.83721,-9.934 -3.99572,-2.1797 -5.34681,-2.3483 -8.24334,-1.0285 -4.33316,1.9743 -4.74676,8.3532 -0.79766,12.3023 3.6621,3.662 6.18738,3.351 10.87821,-1.3398 z m -92.72859,-18.022 c 4.12896,-4.1289 3.77099,-8.5144 -0.90868,-11.132 -8.33119,-4.6602 -20.7079,6.4935 -14.30761,12.8938 2.92458,2.9245 11.52582,1.9287 15.21629,-1.7618 z m 96.96224,-1.8874 c 2.84421,-1.0813 3.49363,-2.5587 4.83544,-11 0.85248,-5.363 2.47263,-12.829 3.60032,-16.5913 2.3638,-7.8861 0.78603,-13.4833 -3.31654,-11.7656 -1.2271,0.5138 -4.88533,1.4617 -8.12942,2.1065 -13.16846,2.6172 -14.35492,12.3446 -1.91159,15.6725 5.3934,1.4424 4.72231,4.2488 -1.5234,6.3705 -8.8345,3.0012 -12.53743,9.7287 -7.90477,14.3613 2.33805,2.3381 9.33998,2.7509 14.34996,0.8461 z m -96.67617,-23.8242 c 0.66928,-4.7213 -2.06854,-6.9266 -8.59895,-6.9266 h -5.83669 v 5.403 5.403 l 7,-0.403 c 6.15136,-0.3542 7.05282,-0.7756 7.43569,-3.4764 z m 106.03686,-24.523 c 2.05188,-3.2583 -0.46185,-9.6317 -3.99985,-10.1413 -3.09763,-0.4461 -7.13937,2.856 -7.13937,5.8329 0,2.7569 5.13453,7.4735 7.60574,6.9867 1.15964,-0.2284 2.74971,-1.4336 3.53348,-2.6783 z m -4.71315,-31.4173 c 0.32015,-2.2439 -0.24034,-2.9863 -2.25464,-2.9863 -3.19135,0 -4.7061,2.0168 -3.62694,4.829 1.14053,2.9722 5.38433,1.6426 5.88158,-1.8427 z m 30.90727,161.0526 c 0,-2.288 1.7633,-6.4626 4.17487,-9.8839 3.90644,-5.5421 4.2484,-6.9806 5.31835,-22.3723 1.13965,-16.3945 3.22476,-149.5112 2.65943,-169.7827 -0.3482,-12.4862 -1.88321,-20.1913 -5.52344,-27.7257 -3.49067,-7.2249 -3.3374,-8.5063 1.30457,-10.90676 3.30974,-1.71153 11.50603,-2.03628 51.66666,-2.0471 44.2406,-0.0119 70.26093,1.35571 77.26743,4.06119 3.2349,1.24913 4.4082,6.12967 4.7417,19.72367 0.2205,8.9891 -0.8958,10.8351 -6.5753,10.8742 -1.9737,0.014 -3.6743,-1.3498 -5.0841,-4.0759 -1.4597,-2.8227 -4.6278,-5.2832 -10.1895,-7.9135 -4.4392,-2.0994 -9.42963,-5.0932 -11.08983,-6.6529 -2.8558,-2.6829 -4.4321,-2.8432 -29.2249,-2.973 -14.4135,-0.075 -26.6841,0.4117 -27.268,1.0826 -2.6199,3.01 -4.201,12.3186 -2.7334,16.0926 1.3642,3.5079 0.238,21.2533 -2.2716,35.7939 -0.3797,2.2 -0.7213,12.2917 -0.759,22.426 l -0.069,18.426 3.8273,4.0246 c 3.6397,3.8274 4.2666,4.0006 12.7847,3.5329 6.399,-0.3514 10.0169,-1.2788 12.6667,-3.2469 3.4055,-2.5294 4.6289,-4.4165 8.8964,-13.7224 4.3737,-9.5375 6.6234,0.8699 6.7441,31.1988 0.06,15.1872 -0.2058,17.3598 -2.1746,17.7472 -1.5002,0.2951 -3.9307,-2.1084 -7.3361,-7.2545 -2.8009,-4.2327 -7.1552,-9.0858 -9.6762,-10.7847 -3.9961,-2.693 -5.6191,-2.9829 -12.6639,-2.262 -6.3136,0.6461 -8.7536,1.5653 -11.1593,4.2037 -2.1038,2.3074 -2.7372,4.0632 -2,5.5441 0.5934,1.1919 1.2506,23.2617 1.4605,49.044 0.2833,34.8034 0.7984,47.1963 2,48.1176 3.9961,3.0638 58.5775,5.7034 63.49673,3.0707 3.3081,-1.7704 13.197,-15.1427 16.1725,-21.8694 3.0285,-6.8464 8.2002,-11.9311 11.4969,-11.3036 2.7299,0.5196 4.0058,8.8591 4.2965,28.0825 0.1843,12.1915 1.8666,11.2552 -21.8442,12.1572 -8.8,0.3348 -20.29743,1.3802 -25.54983,2.3232 -7.1093,1.2762 -11.1382,1.3509 -15.7648,0.2922 -3.8041,-0.8705 -8.1163,-0.9803 -11.1168,-0.2832 -2.6961,0.6265 -19.7519,1.1533 -37.9019,1.1708 l -33.00002,0.032 z m 36.10254,-5.2697 3.8975,-3.8975 0.2333,-34.1025 c 0.1284,-18.7564 0.3741,-35.7526 0.5462,-37.7692 0.1721,-2.0167 0.7209,-7.8667 1.2196,-13 0.6982,-7.1864 0.4614,-9.9229 -1.0293,-11.8961 -1.9015,-2.5168 -2.0713,-2.5078 -9.4989,0.5069 -4.1595,1.6882 -8.2339,4.3234 -9.054,5.8559 -1.31474,2.4566 -0.7638,3.4031 4.6536,7.9948 l 6.145,5.2083 -5.6078,2.8318 -5.60769,2.8317 -0.82488,12.6667 c -2.13033,32.7131 -4.162,51.6369 -5.92679,55.2048 -1.05325,2.1293 -1.915,4.5404 -1.915,5.3578 0,2.6867 7.22366,6.0324 13.10256,6.0685 4.6257,0.028 6.5418,-0.737 9.6667,-3.8619 z m 5.1714,-107.9593 c 2.0618,-4.9775 1.3436,-10.8211 -1.5528,-12.6343 -3.0288,-1.8961 -14.3878,3.4204 -14.3878,6.7341 0,3.6533 6.7276,9.7569 10.7544,9.7569 2.7008,0 3.984,-0.9542 5.1863,-3.8567 z m 0.015,-23.1433 c 1.8217,-3.267 1.8266,-4.0546 0.045,-7.2264 -2.9139,-5.1864 -4.5992,-5.1618 -10.2588,0.1497 l -5.0745,4.7625 3.8247,3.3958 c 4.6961,4.1694 8.7493,3.787 11.4641,-1.0816 z m 0.7112,-21 c 0,-5.9682 -0.025,-6 -4.6666,-6 -4.3096,0 -4.6992,0.3382 -5.091,4.4205 -0.5299,5.5205 1.8272,8.5014 6.3102,7.9803 3.1376,-0.3648 3.4474,-0.94 3.4474,-6.4008 z m 0.4261,-22.3333 c 0.347,-2.4433 -0.2097,-3 -3,-3 -2.7903,0 -3.4261,0.6357 -3.4261,3.4261 0,2.7903 0.5567,3.347 3,3 1.928,-0.2738 3.1523,-1.4982 3.4261,-3.4261 z m -355.17547,178.431 c -9.63851,-2.3411 -18.92999,-8.9638 -34.64086,-24.6909 -14.01973,-14.0343 -16.7475,-17.5113 -21.50119,-27.4068 -2.99441,-6.2333 -6.21225,-14.3333 -7.15074,-18 -0.9385,-3.6666 -2.43295,-8.1666 -3.32101,-10 -2.15284,-4.4444 -3.27524,-17.4036 -3.81083,-44 -0.42593,-21.1504 -0.27366,-22.6842 3.943,-39.7185 6.68793,-27.0176 19.93104,-51.7297 35.7282,-66.67 6.09574,-5.76512 8.20596,-6.96467 12.42289,-7.06178 2.7939,-0.0643 10.09327,-0.36053 16.22083,-0.6582 6.12755,-0.29768 11.69624,-0.19808 12.37485,0.22133 0.67862,0.41941 -1.79183,4.25515 -5.48989,8.52385 -7.92343,9.1461 -11.40556,16.5626 -12.62685,26.8933 -0.57511,4.8648 -2.26998,9.7057 -4.78851,13.677 -4.67551,7.3725 -4.95257,8.4363 -6.63124,25.4597 -0.72314,7.3333 -2.1034,19.9333 -3.06726,28 -1.88655,15.7888 -0.6709,57.468 1.81144,62.1063 0.70204,1.3118 1.28419,4.0745 1.29365,6.1394 0.027,5.8919 4.52868,18.6463 11.31053,32.0455 4.74563,9.3761 7.38133,13.0126 11.11332,15.3333 6.01333,3.7393 15.44726,4.0658 20.56601,0.7119 4.91184,-3.2184 12.91579,-20.3716 14.40174,-30.8642 0.66077,-4.6659 1.77832,-10.0009 2.48345,-11.8555 0.70513,-1.8546 1.66106,-17.3771 2.12429,-34.4944 0.87109,-32.1887 0.54535,-35.7824 -5.17777,-57.1223 -1.8481,-6.8911 -3.13113,-15.0853 -6.36744,-40.6667 -0.7422,-5.8666 -2.44723,-12.5583 -3.78895,-14.8704 -1.34173,-2.312 -3.12913,-7.5256 -3.97199,-11.5856 -0.84287,-4.0601 -2.69751,-8.863 -4.12144,-10.6733 -4.23471,-5.38351 -3.40844,-6.62232 3.74438,-5.61381 8.26986,1.16601 24.714,9.22601 28.84898,14.14011 1.79036,2.1278 3.9892,6.1339 4.88633,8.9025 0.89713,2.7686 3.29745,8.3652 5.33403,12.4369 2.03659,4.0717 4.66947,10.728 5.85085,14.7918 1.18138,4.0638 3.01354,8.5324 4.07148,9.9303 1.05794,1.3978 1.94846,4.0415 1.97895,5.8749 0.0305,1.8333 1.64835,6.6333 3.59524,10.6666 3.20873,6.6475 3.59479,9.1416 4.12768,26.6667 0.32332,10.6333 1.09984,19.965 1.72558,20.7371 3.10412,3.8301 -7.33059,57.1005 -14.32943,73.1534 -4.48271,10.2818 -14.05353,22.5052 -21.46546,27.4147 -6.36636,4.2169 -27.89956,11.335 -37.62423,12.4373 -3.3,0.3741 -7.83717,0.2339 -10.08261,-0.3115 z m 42.36331,-20.1644 c 6.42019,-2.9253 16.39466,-21.9689 20.56659,-39.2666 3.65659,-15.161 3.76131,-18.7247 0.64188,-21.8442 -3.59431,-3.5943 -8.36674,-3.6061 -11.60431,-0.029 -1.8285,2.0205 -2.73616,5.6208 -3.27879,13.0055 -0.41268,5.6164 -1.76788,12.2513 -3.01154,14.7443 -1.24366,2.493 -2.2612,5.8074 -2.2612,7.3655 0,1.558 -2.11499,7.246 -4.69997,12.6399 -6.14181,12.8158 -4.92282,17.289 3.64734,13.3842 z m -54.94737,-3.1642 c 0,-1.0437 -2.41563,-6.3761 -5.36807,-11.8497 -4.13379,-7.6638 -6.13176,-13.7422 -8.68943,-26.4357 -1.82675,-9.066 -4.14201,-17.9837 -5.14502,-19.817 -1.09579,-2.0029 -1.41765,-4.4017 -0.80641,-6.0102 0.55949,-1.4722 0.9372,-11.8589 0.83936,-23.0815 -0.17515,-20.0895 -0.22926,-20.4439 -3.50416,-22.949 -2.10101,-1.6072 -4.30856,-2.2212 -5.99293,-1.667 -1.46667,0.4825 -4.98336,0.931 -7.81486,0.9967 -7.23585,0.1678 -10.67271,4.5235 -9.43151,11.953 1.09043,6.527 2.20401,7.3778 9.69081,7.4042 7.36297,0.026 6.86257,2.5423 -1.09055,5.4839 -3.16755,1.1716 -6.56799,3.2363 -7.55653,4.5882 -4.38443,5.9961 -0.26269,15.0688 8.24301,18.1445 5.68287,2.055 5.85709,3.3216 0.6152,4.473 -3.91082,0.8589 -6.65557,3.9995 -6.65557,7.6154 0,3.0654 9.40658,11.7155 12.74004,11.7155 4.42834,0 5.07905,2.0173 1.21815,3.7764 -5.90405,2.6901 -4.43208,7.9561 5.52511,19.7662 15.23966,18.0756 14.93223,17.7907 19.19365,17.7907 2.56186,0 3.98971,-0.6791 3.98971,-1.8976 z m 81.05961,-73.6142 c 0.44892,-9.3438 -1.84658,-13.2512 -6.86677,-11.6888 -6.97004,2.1693 -8.85795,3.292 -10.97891,6.529 -1.83157,2.7954 -1.9707,4.0799 -0.73548,6.791 1.82035,3.9952 8.64362,7.2944 14.18822,6.8604 3.92767,-0.3075 4.00711,-0.461 4.39294,-8.4916 z m -1.03854,-16.4882 c 2.24287,-4.689 3.76736,-10.9999 3.08606,-12.7754 -1.15412,-3.0075 -7.09743,-3.813 -13.02178,-1.7647 -7.14658,2.4708 -8.12058,7.6032 -2.54694,13.4208 4.09292,4.2721 10.69156,4.8638 12.48266,1.1193 z m -101.26674,-26.7136 c 3.26701,-1.7484 3.75357,-12.9194 0.61516,-14.1237 -1.08011,-0.4145 -6.63011,0.079 -12.33333,1.0968 -9.08823,1.6217 -10.42332,2.2233 -10.80518,4.8688 -0.63024,4.3664 2.06694,6.8526 7.59895,7.0046 2.66021,0.073 6.33674,0.6133 8.17007,1.2004 1.83334,0.5872 3.52278,1.1274 3.75433,1.2005 0.23154,0.073 1.58154,-0.4883 3,-1.2474 z m 4.97901,-25.5531 c 0.88,-0.88 1.6,-3.88 1.6,-6.6666 0,-4.6604 -0.29942,-5.0667 -3.73334,-5.0667 -4.66077,0 -6.93333,2.1851 -6.93333,6.6667 0,3.9324 2.18742,6.6666 5.33333,6.6666 1.17334,0 2.85334,-0.72 3.73334,-1.6 z m 1.82834,-15.2733 c 1.34108,-1.2136 2.43832,-3.6136 2.43832,-5.3333 0,-2.5902 -0.69132,-3.1267 -4.02858,-3.1267 -4.94838,0 -8.1725,5.2112 -5.33752,8.6272 2.17199,2.6171 3.89722,2.5754 6.92778,-0.1672 z m 4.83832,-16.7267 c 2.60523,-2.6052 1.8587,-6.0396 -1.45032,-6.6722 -4.74264,-0.9066 -6.28301,0.168 -6.28301,4.3833 0,3.1691 0.56762,3.8889 3.06667,3.8889 1.68666,0 3.78666,-0.72 4.66666,-1.6 z m 724.96016,110.9631 c -2.0732,-2.2909 -2.2868,-4.3464 -1.628,-15.6666 0.6186,-10.6282 1.7626,-15.856 6.2066,-28.3631 7.1586,-20.1469 7.0894,-19.0551 1.3945,-22 -4.1702,-2.1565 -5.0761,-5.4981 -2.6961,-9.945 0.9894,-1.8489 0.5071,-3.6104 -2,-7.3049 -1.8172,-2.6777 -3.3039,-5.4419 -3.3039,-6.1427 0,-1.3585 -1.6968,-1.7348 -5.9999,-1.3308 -3.9257,0.3685 -6,3.8532 -6,10.0791 0,5.7678 -2.4739,9.1543 -9.2449,12.6556 -2.9748,1.5383 -3.6128,1.2764 -7.6666,-3.1471 -4.2283,-4.6139 -4.4193,-5.2783 -4.3633,-15.178 0.032,-5.6941 0.9231,-12.7529 1.9799,-15.6862 1.0568,-2.9334 1.9304,-7.0026 1.9415,-9.0429 0.011,-2.0402 0.92,-5.8635 2.02,-8.4961 3.7986,-9.0913 2.0324,-19.0652 -4.4083,-24.8939 -1.4747,-1.33462 -3.4333,-4.33321 -4.3523,-6.66352 -2.0083,-5.0925 -6.3953,-10.23694 -8.7295,-10.23694 -3.3011,0 -5.8432,5.80063 -5.8432,13.33333 0,9.49853 -2.6416,13.64503 -8.3296,13.07493 -2.6107,-0.2617 -5.0783,-1.7583 -6.8719,-4.168 -2.5532,-3.4302 -2.8349,-5.83735 -3.2138,-27.46631 -0.3881,-22.15856 -0.2194,-24.15497 2.5832,-30.57359 2.9843,-6.83468 3.0271,-6.86689 9.082,-6.83817 6.199,0.0294 25.8345,3.95391 32.3471,6.46516 1.9783,0.76284 6.0283,3.58357 9,6.2683 6.23,5.62846 7.197,11.4555 2.7807,16.75664 -1.4423,1.73124 -2.6423,2.6766 -2.6667,2.1008 -0.024,-0.57581 -1.2437,-0.40505 -2.7095,0.37945 -3.9792,2.1296 -15.6006,0.16391 -19.7891,-3.34721 -3.8323,-3.21262 -8.4843,-2.67447 -9.9524,1.15133 -0.9417,2.45383 4.1181,9.27631 6.2339,8.40563 5.7877,-2.38177 6.1728,-2.4166 6.1728,-0.55826 0,1.0648 1.161,2.98676 2.5801,4.27103 1.4191,1.28426 3.8675,5.12725 5.4408,8.53998 3.5403,7.6793 5.8434,9.53062 11.9006,9.56612 4.8954,0.029 15.2833,2.1652 28.0784,5.775 9.175,2.5885 20.412,13.5905 19.7387,19.3258 -0.8172,6.9601 -15.0571,6.9659 -29.8506,0.012 -6.0635,-2.8503 -6.3054,-2.864 -8.0661,-0.4561 -1.5392,2.105 -1.519,2.9001 0.1333,5.2321 4.9773,7.025 12.5827,22.0419 13.4179,26.4937 1.4833,7.9064 7.4333,14.8432 16.1994,18.886 19.9325,9.1924 22.0033,10.5874 31.2219,21.0319 9.3348,10.5761 10.0624,12.3871 8.3721,20.8383 -0.8196,4.0982 -0.9617,4.1666 -8.6525,4.1666 -7.5248,0 -8.0997,-0.2539 -15.2678,-6.7454 -5.6965,-5.1588 -8.2873,-6.6485 -11.0141,-6.3334 -3.3948,0.3924 -3.6047,0.8591 -4.3824,9.7455 -1.0875,12.427 -5.7917,24.2234 -10.6646,26.7433 -5.0723,2.6229 -8.3272,2.4148 -11.1583,-0.7135 z M 1164.5464,302.14725 c -5.3974,-5.74523 -7.3879,-12.84911 -7.747,-27.64847 -0.1869,-7.7 -0.8499,-20.63117 -1.4733,-28.73595 -1.27,-16.51108 -0.5657,-15.10723 -15.9627,-31.81699 -7.476,-8.11337 -10.1935,-10.23789 -12.6505,-9.89005 -3.0198,0.42751 -3.1347,0.88598 -3.285,13.10966 -0.086,6.96667 -0.2357,13.40816 -0.3333,14.31442 -0.098,0.90626 -2.5286,3.20358 -5.4021,5.10516 -4.2846,2.8354 -5.721,3.19169 -7.9843,1.98043 -3.2105,-1.71821 -3.7841,-3.85499 -4.6713,-17.40001 -1.1412,-17.42359 -6.5707,-39.32109 -10.9654,-44.22435 -1.3683,-1.52662 -6.9127,-6.40038 -12.3209,-10.83057 -7.8057,-6.39423 -10.2797,-7.77497 -12,-6.69715 -3.1389,1.96676 -3.4172,6.78148 -0.6851,11.8546 2.0045,3.72225 2.1137,4.91624 0.6922,7.57225 -0.9281,1.73426 -1.5537,4.61691 -1.3901,6.40588 0.7365,8.05318 -1.2206,9.731 -8.9691,7.68932 -3.5539,-0.93644 -4.9144,-2.63822 -9.0197,-11.28297 -2.659,-5.59912 -5.6763,-14.14924 -6.7049,-19.00027 -2.4016,-11.32516 -7.7743,-23.32451 -11.6904,-26.10895 -7.9433,-5.64802 -19.0455,-11.37778 -22.046,-11.37778 -2.8954,0 -3.2387,0.47199 -2.6672,3.66667 0.3608,2.01666 2.0123,6.73217 3.67,10.4789 2.793,6.31287 2.8782,7.23852 1.162,12.62741 -1.2009,3.7707 -3.1196,6.52249 -5.4575,7.82705 -3.3235,1.85448 -3.8972,1.7958 -7.3333,-0.75001 -5.20113,-3.85347 -9.52003,-10.60263 -10.45143,-16.33236 -0.4337,-2.66805 -2.6555,-10.25099 -4.9374,-16.85099 -5.0008,-14.46388 -12.4282,-23.33334 -19.5397,-23.33334 -5.0407,0 -13.466,-3.29435 -13.466,-5.265296 0,-2.03768 -5.7264,-1.71622 -8.7448,0.4909 -2.3478,1.716756 -2.4218,2.304156 -0.7985,6.333326 5.2986,13.15141 5.7077,15.96513 3.0548,21.01162 -2.0894,3.97445 -3.1227,4.69316 -6.2427,4.34214 -9.4075,-1.05841 -14.8539,-6.9438 -18.7306,-20.24017 -3.1144,-10.68201 -11.3845,-23.837416 -19.11915,-30.413156 -3.71379,-3.15735 -6.75234,-6.50276 -6.75234,-7.43424 0,-2.66605 5.86965,-7.49178 9.11243,-7.49178 1.6173,0 6.52606,-1.45694 10.90836,-3.23763 12.9614,-5.26668 21.5233,-6.56494 31.657,-4.80022 16.0955,2.8029 22.9889,7.02823 22.9889,14.09115 0,5.73596 -4.8266,8.84032 -15.3055,9.84425 -7.5334,0.72174 -8.0537,0.99373 -8.4479,4.41603 -0.4756,4.13033 1.6243,5.3659 17.3412,10.20363 8.1425,2.50631 9.3315,2.57448 13.6238,0.78104 2.5865,-1.08071 6.7866,-1.96492 9.3335,-1.96492 2.547,0 4.9552,-0.52478 5.3516,-1.16619 1.2769,-2.06608 37.87743,-4.67406 40.61393,-2.89395 0.6145,0.39974 2.1013,2.64774 3.3041,4.99555 1.7607,3.43686 1.887,4.927096 0.6477,7.646986 -1.518,3.33157 -10.6468,8.75093 -14.7408,8.75093 -2.7943,0 -3.9271,3.28604 -2.4616,7.14065 1.9997,5.25967 10.5157,6.78734 24.3626,4.3704 6.3362,-1.10596 13.3334,-2.94839 15.5493,-4.09428 7.0501,-3.64574 26.3965,-1.97611 35.8738,3.09599 4.5801,2.4512 5.2668,7.81165 1.4639,11.42677 -4.2247,4.01608 -13.7242,7.64591 -15.462,5.90813 -1.966,-1.96596 -12.381,1.60462 -12.381,4.24456 0,4.84141 20.5571,18.57445 27.8042,18.57445 2.5982,0 9.6964,0.71892 15.7737,1.59761 7.4191,1.07269 12.2594,1.17215 14.7315,0.30273 4.7849,-1.68273 21.0345,1.03052 28.2657,4.71959 7.4757,3.81383 10.7582,7.76026 10.7582,12.93408 0,7.08881 -4.3178,9.02527 -17.6457,7.91377 -5.9814,-0.49883 -11.6317,-1.5348 -12.5563,-2.30216 -2.4817,-2.05957 -4.4646,-0.20196 -4.4646,4.18234 0,3.03168 1.2128,4.69966 5.6666,7.79308 3.1167,2.1647 9.8286,8.23231 14.9154,13.48358 5.0868,5.25126 10.3154,10.11863 11.6191,10.81637 2.7561,1.47498 22.739,5.16507 28.1655,5.2011 4.4084,0.0293 20.1445,7.71627 26.1629,12.78048 3.7204,3.13047 4.2213,4.30537 3.8719,9.0807 l -0.4014,5.48499 -7.077,1.11982 c -5.1337,0.81233 -8.4289,0.61142 -12,-0.73162 -5.954,-2.23917 -10.923,-1.64779 -10.923,1.29995 0,1.18669 2.7,5.59429 6,9.79466 3.3,4.20037 6,8.2523 6,9.00429 0,3.32861 -3.1182,2.67928 -8.2571,-1.71944 -3.056,-2.61576 -6.9342,-4.75593 -8.6184,-4.75593 -3.0552,0 -3.0602,0.0324 -2.2407,14.35645 l 0.8214,14.35646 -5.2576,3.64354 c -6.3979,4.43376 -9.7606,4.5897 -13.4849,0.62535 z m 9.0373,-19.64847 c 0,-4.8 -0.3334,-5.33333 -3.3334,-5.33333 -2.8889,0 -3.3333,0.59259 -3.3333,4.44444 0,5.07607 0.7777,6.22223 4.2222,6.22223 1.963,0 2.4445,-1.05051 2.4445,-5.33334 z M 1144.1604,176.3103 c 3.5755,-4.54554 1.668,-7.14484 -5.2434,-7.14484 -6.9114,0 -8.8189,2.5993 -5.2434,7.14484 1.5237,1.937 3.8832,3.52182 5.2434,3.52182 1.3602,0 3.7197,-1.58482 5.2434,-3.52182 z M 941.49387,69.333284 c 2.4311,-4.54267 -5.2119,-8.99942 -8.9769,-5.23449 -2.1086,2.10861 -2.0194,3.12339 0.4953,5.6381 2.8336,2.83362 6.8514,2.64243 8.4816,-0.40361 z m -61.74353,-3.89815 c -0.36155,-0.58501 -0.14269,-1.89643 0.48636,-2.91426 0.96095,-1.55485 1.48969,-1.56349 3.30847,-0.054 1.71809,1.42589 1.80784,2.02296 0.43495,2.89385 -2.19866,1.39471 -3.40073,1.41587 -4.22978,0.0744 z"
       id="path1" />
  </g>
</svg>
