<?xml version="1.0" encoding="UTF-8" standalone="no"?>
<!-- Created with Inkscape (http://www.inkscape.org/) -->

<svg
   version="1.1"
   id="svg1"
   width="910.22223"
   height="910.22223"
   viewBox="0 0 910.22223 910.22223"
   sodipodi:docname="wa.svg"
   inkscape:version="1.3 (0e150ed6c4, 2023-07-21)"
   xmlns:inkscape="http://www.inkscape.org/namespaces/inkscape"
   xmlns:sodipodi="http://sodipodi.sourceforge.net/DTD/sodipodi-0.dtd"
   xmlns="http://www.w3.org/2000/svg"
   xmlns:svg="http://www.w3.org/2000/svg">
  <defs
     id="defs1" />
  <sodipodi:namedview
     id="namedview1"
     pagecolor="#ffffff"
     bordercolor="#000000"
     borderopacity="0.25"
     inkscape:showpageshadow="2"
     inkscape:pageopacity="0.0"
     inkscape:pagecheckerboard="0"
     inkscape:deskcolor="#d1d1d1"
     showgrid="false"
     inkscape:zoom="0.6005056"
     inkscape:cx="444.62533"
     inkscape:cy="463.77586"
     inkscape:window-width="1920"
     inkscape:window-height="1016"
     inkscape:window-x="0"
     inkscape:window-y="0"
     inkscape:window-maximized="1"
     inkscape:current-layer="g1" />
  <g
     inkscape:groupmode="layer"
     inkscape:label="Image"
     id="g1">
    <path
       style="fill:#934a25;fill-opacity:1"
       d="m 35.790947,871.5456 c 0.43715,-1.2222 13.866229,-50.043 29.84241,-108.49058 L 94.680937,656.78663 82.835107,632.38835 C 53.506986,571.98272 41.195686,522.37653 39.411566,457.42096 37.940426,403.86005 43.822646,361.67717 59.319437,314.65674 82.029477,245.74985 115.75564,192.05012 168.40742,140.9638 231.81635,79.440172 308.00208,41.485202 398.0432,26.561542 c 23.91697,-3.96406 74.69518,-5.29844 102.42483,-2.69158 159.20166,14.96656 294.78718,117.012918 354.47038,266.786778 9.3418,23.44309 18.1107,55.24191 23.3684,84.74112 5.4826,30.76137 6.0032,102.39298 0.9669,133.03666 -31.2664,190.24218 -180.4628,333.95168 -370.1194,356.50768 -22.7197,2.7021 -73.03371,2.6934 -96,-0.017 -47.86919,-5.6484 -110.30206,-24.4909 -144.52379,-43.6178 -4.35822,-2.4359 -8.87795,-4.4288 -10.04384,-4.4288 -1.1659,0 -50.86513,12.7974 -110.44276,28.4387 -59.577623,15.6413 -109.408534,28.4413 -110.735373,28.4444 -1.32683,0 -2.05475,-0.9943 -1.6176,-2.2165 z M 509.85459,792.6994 c 148.43875,-19.64705 269.16922,-135.68291 297.23412,-285.67611 4.7103,-25.17395 6.4935,-75.19406 3.5677,-100.07455 -6.839,-58.15684 -25.8409,-110.35056 -57.1952,-157.10213 C 673.1287,130.06515 532.11285,72.161612 390.0432,100.6209 271.5867,124.35003 169.31175,213.92361 129.78374,328.55916 c -34.636863,100.45067 -23.34638,209.52688 30.8561,298.09758 5.68451,9.28889 10.28399,18.08889 10.22106,19.55556 -0.0629,1.46667 -7.77606,30.59659 -17.1403,64.73316 -9.36424,34.13658 -16.7192,62.37319 -16.34435,62.74804 0.37485,0.37485 20.17826,-4.45213 44.00758,-10.72662 23.82932,-6.27449 53.426,-14.00482 65.77041,-17.17851 l 22.44437,-5.77034 13.06973,7.63314 C 351.82326,788.03981 429.176,803.3779 509.85459,792.6994 Z M 545.2408,645.40728 C 529.67148,642.1475 500.86954,632.24852 474.27583,621.01722 406.88987,592.55815 343.9118,537.45639 288.70735,458.65674 272.77493,435.91457 260.08606,411.56866 253.03471,390.2123 c -4.475,-13.55341 -5.00089,-17.67675 -5.10153,-40 -0.12212,-27.08896 2.8145,-40.42639 12.72148,-57.77778 7.26437,-12.72306 22.39954,-30.67659 30.73662,-36.46016 7.28082,-5.05082 8.71198,-5.34717 28.5244,-5.90661 28.84399,-0.81447 26.81951,-3.03423 51.51366,56.48264 10.72651,25.85261 19.50275,48.49234 19.50275,50.3105 0,5.37039 -4.9556,13.52469 -20.70026,34.06167 -8.17041,10.65732 -14.8553,21.1123 -14.8553,23.2333 0,8.98978 27.02633,46.97582 49.84136,70.05302 25.49417,25.78713 50.89474,43.13844 88.12772,60.20065 21.49751,9.85135 22.5088,9.77998 33.87586,-2.39087 5.37974,-5.76017 15.44287,-17.88977 22.36251,-26.95468 13.90704,-18.21859 17.01091,-19.96361 29.54595,-16.61099 10.69734,2.8611 91.21658,42.19125 94.02438,45.92682 4.83411,6.43142 0.7582,38.36617 -7.02423,55.0349 -7.06805,15.13864 -34.1684,35.2591 -58.30723,43.28979 -14.89411,4.95509 -45.50945,6.27729 -62.58205,2.70278 z"
       id="path1" />
  </g>
</svg>
